<?xml version="1.0" encoding="utf-8"?>
<!-- Generator: Adobe Illustrator 14.0.0, SVG Export Plug-In . SVG Version: 6.00 Build 43363)  -->
<!DOCTYPE svg PUBLIC "-//W3C//DTD SVG 1.1//EN" "http://www.w3.org/Graphics/SVG/1.1/DTD/svg11.dtd">
<svg version="1.1" id="Layer_1" xmlns="http://www.w3.org/2000/svg" xmlns:xlink="http://www.w3.org/1999/xlink" x="0px" y="0px"
	 width="50px" height="50px" viewBox="-10 -10 50 50" enable-background="new -10 -10 50 50" xml:space="preserve">
<g>
	<path fill="#FFFFFF" d="M25.885-9.913c-2.898,0.048-5.279-0.219-8.172,0c0,0-1.932-0.031-2.418,0c-0.058,0.079-1.978,0.185-1.804,0
		c-1.622,0.088-10.403,0.038-12.056,0c4.452,3.901,4.02,9.971,3.704,10.855C4.821,1.825,4.606,2.437,4.497,2.778L4,3.157
		C3.834,3.283,3.609,3.614,3.325,4.151C3.044,4.686,2.855,5.056,2.758,5.26C2.745,5.396,2.615,5.754,2.365,6.329
		C2.119,6.902,1.846,7.525,1.549,8.203c-0.296,0.673-0.585,1.279-0.868,1.816c-0.283,0.534-0.466,0.836-0.549,0.899l-4.82,9.255
		l-0.434,0.91l-0.142,1.455l0.313,0.34c0.041-0.416,0.228-0.752,0.56-1.004l0.374-0.285c0.068,0.076,0.195,0.172,0.375,0.293
		c0.181,0.117,0.339,0.252,0.48,0.406c-0.026,0.275-0.077,0.377-0.145,0.301c-0.07-0.074-0.119,0.025-0.145,0.303l-0.64,1.836
		l-0.081,0.832l0.314,0.34l0.498-0.379c-0.07-0.076,0.068-0.311,0.415-0.701c0.346-0.393,0.56-0.619,0.643-0.682l0.603-0.268
		l0.208,0.229l0.128,1.057l0.454-1.115c0.18-0.268,0.491-0.697,0.933-1.287c0.442-0.598,0.746-0.955,0.913-1.082l0.374-0.283
		l-0.06,0.623c-0.416,0.316-0.815,0.877-1.203,1.686c-0.387,0.807-0.612,1.555-0.68,2.252l-0.06,0.623l0.872-0.664
		c0.013-0.139,0.171-0.389,0.476-0.748c0.304-0.359,0.5-0.572,0.581-0.635c0.25-0.189,0.478-0.172,0.687,0.057l3.363-2.562
		c0.013-0.139,0.289-0.605,0.829-1.4c0.538-0.797,0.851-1.225,0.931-1.287l0.5-0.379c-0.676,1.41-1.231,2.574-1.665,3.48
		c-0.434,0.91-0.844,1.766-1.231,2.576c-0.385,0.805-0.668,1.342-0.848,1.607c0.083-0.064,0.184-0.109,0.302-0.131
		c0.118-0.027,0.22-0.074,0.3-0.135c-0.081,0.061,0.208-0.35,0.871-1.24s1.244-1.525,1.741-1.904l0.748-0.57l0.065,0.529
		l-0.744,1.723c-0.332,0.252-0.506,0.447-0.52,0.586l-0.165,0.512l0.542,0.359l-0.996,0.758c-0.083,0.062-0.194,0.211-0.333,0.445
		c-0.137,0.23-0.253,0.449-0.352,0.654l-1.302,2.725l0.873-0.664c0.083-0.064,0.196-0.246,0.341-0.551
		c0.146-0.301,0.26-0.486,0.342-0.549l1.371-1.043c-0.526,0.656-0.989,1.457-1.387,2.406c-0.123,0.477-0.323,0.949-0.599,1.418
		l0.521,0.566c0.014-0.141,0.063-0.242,0.146-0.303l0.249-0.189c0.249-0.189,0.437-0.525,0.559-1.004
		c0.125-0.479,0.477-0.941,1.057-1.383c0.179-0.268,0.468-0.68,0.869-1.242s0.805-1.158,1.211-1.787
		c0.409-0.635,0.768-1.162,1.078-1.59c0.312-0.432,0.474-0.717,0.486-0.854l2.549-3.676c1.412-1.072,2.451-2.477,3.119-4.201
		c0.666-1.731,1.707-3.131,3.119-4.207l0.576-1.212c0.584-0.442,0.928-0.99,1.027-1.646c0.104-0.657,0.32-1.11,0.65-1.363
		l0.996-0.759c0.084-0.063,0.164-0.284,0.238-0.662c0.076-0.379,0.045-0.644-0.096-0.794l-0.521-0.566
		c-0.141-0.151-0.121-0.359,0.059-0.623c0.18-0.266,0.355-0.462,0.52-0.587L24.187,3.2c0.58-0.443,1.088-1.118,1.521-2.026
		c0.436-0.909,0.645-1.294,0.633-1.155l0.02-0.208l-0.996,0.758l0.164-0.511c0.039-0.416,0.141-0.847,0.299-1.286
		c0.156-0.443,0.32-0.727,0.486-0.853l0.145-0.302l0.229,0.019c0.082-0.064,0.203-0.089,0.354-0.076L27.5-2.404l0.496-0.379
		l0.143-1.456l0.742-1.723l0.061-0.624c0.084-0.064,0.213-0.194,0.385-0.389c0.174-0.197,0.346-0.357,0.508-0.483l-0.625-0.68
		c-0.07-0.076,0.195-0.629,0.795-1.665 M29.265-9.913 M-3.355,20.66l-0.812,0.039c-0.14-0.152-0.042-0.354,0.29-0.605
		c0.333-0.254,0.567-0.305,0.707-0.152C-2.961,20.168-3.022,20.406-3.355,20.66z M1.283,19.824
		c-0.068,0.309-0.109,0.533-0.123,0.674l-1.077,1.59l-0.933,1.287c-0.056-0.215-0.066-0.496-0.033-0.84
		c0.033-0.348,0.093-0.553,0.175-0.615l1.741-2.48l0.498-0.381C1.434,19.26,1.351,19.516,1.283,19.824z M1.985,17.943
		c0.04-0.416,0.104-0.658,0.184-0.719l0.25-0.189L1.985,17.943z M4.554,21.188L4.326,21.17l0.145-0.305l0.229,0.021L4.554,21.188z
		 M4.103,16.33l-1.044-1.131c0.333-0.254,0.55-0.707,0.652-1.361c0.103-0.658,0.36-1.144,0.775-1.459l0.313,0.34L4.103,16.33z
		 M13.574,10.277c0.206,0.227,0.187,0.433-0.062,0.623l-0.811,0.04c-0.141-0.152-0.042-0.354,0.289-0.606
		C13.24,10.145,13.435,10.125,13.574,10.277z M11.839,7.936c-0.14-0.152,0-0.384,0.414-0.7c0.332-0.253,0.566-0.305,0.706-0.153
		c0.139,0.15,0.044,0.353-0.289,0.606L11.839,7.936z M13.119-1.707l-0.515,1.739l-0.498,0.379c-0.07-0.076-0.022-0.369,0.143-0.879
		c0.166-0.511,0.331-0.83,0.497-0.956L13.119-1.707z M11.338,1.189C11.587,1,11.781,0.979,11.923,1.131
		c0.138,0.15,0.084,0.32-0.166,0.512L11.05,1.794C10.909,1.643,11.008,1.441,11.338,1.189z M9.115,5.676
		c0.601-1.038,0.955-1.725,1.064-2.065l0.5-0.377c-0.111,0.339-0.448,1.043-1.013,2.118C9.101,6.424,8.728,7.093,8.549,7.359
		L8.05,7.739C8.159,7.397,8.516,6.709,9.115,5.676z M8.771,18.17l-0.458-0.033l0.144-0.305c0.167-0.127,0.283-0.15,0.354-0.076
		C8.949,17.904,8.938,18.045,8.771,18.17z M6.004,12.185l-0.707,0.153c-0.141-0.152-0.042-0.354,0.289-0.605
		c0.25-0.189,0.443-0.21,0.582-0.058C6.308,11.826,6.253,11.997,6.004,12.185z M6.769,10.256l-0.042,0.416l-0.374,0.284l0.061-0.624
		l0.144-0.304l0.354-0.076C6.832,10.014,6.781,10.115,6.769,10.256z M7.806,9.082L6.993,9.121c-0.14-0.151-0.042-0.354,0.29-0.604
		c0.249-0.19,0.441-0.212,0.582-0.06C8.075,8.684,8.053,8.892,7.806,9.082z M8.292,25.471l-0.81,0.039
		c-0.141-0.152-0.042-0.354,0.29-0.605c0.25-0.191,0.442-0.211,0.583-0.059C8.563,25.072,8.543,25.281,8.292,25.471z M9.438,25.561
		l-0.145,0.303c-0.026,0.277-0.206,0.541-0.538,0.795c-0.071-0.074-0.098-0.184-0.085-0.32l0.041-0.416
		c-0.208-0.227-0.021-0.561,0.56-1.002l0.312,0.338C9.418,25.383,9.369,25.484,9.438,25.561z M9.491,22.629l-0.538,0.797
		L8.54,24.127c-0.28-0.303-0.226-0.666,0.162-1.088c0.388-0.424,0.666-0.697,0.831-0.824l0.248-0.189L9.491,22.629z M11.924,18.371
		c-0.088,0.516-0.464,1.027-1.13,1.535l-0.956,0.342c0.013-0.141,0.062-0.24,0.145-0.303l0.454-1.117
		c0.168-0.127,0.443-0.402,0.83-0.822c0.388-0.426,0.665-0.701,0.83-0.826C12.071,17.455,12.012,17.852,11.924,18.371z
		 M12.656,16.176c-0.28-0.301-0.252-0.58,0.079-0.832l0.419,0.453L12.656,16.176z M14.303,17.041l-0.708,0.154
		c-0.209-0.229-0.146-0.467,0.186-0.719c0.25-0.189,0.478-0.174,0.687,0.055C14.606,16.682,14.551,16.852,14.303,17.041z
		 M13.864-3.43l0.538-0.796l-0.04,0.416L13.864-3.43z M17.695-2.495c0.084-0.063,0.133-0.165,0.145-0.302l0.5-0.379l0.104,0.112
		c0.139,0.15,0.168,0.258,0.084,0.322l-0.453,1.115L17.656-2.08L17.695-2.495z M17.48,2.1c0.334-0.253,0.568-0.305,0.709-0.153
		c0.139,0.15,0.043,0.352-0.291,0.606l-0.707,0.152C17.049,2.554,17.15,2.352,17.48,2.1z M15.564,1.632
		c0.25-0.19,0.443-0.211,0.584-0.057c0.139,0.15,0.082,0.32-0.164,0.51l-0.709,0.153C15.135,2.086,15.235,1.884,15.564,1.632z
		 M16.326,5.676l-0.809,0.039c-0.142-0.151-0.043-0.354,0.285-0.606c0.252-0.19,0.445-0.21,0.584-0.058
		C16.595,5.277,16.576,5.486,16.326,5.676z M17.34,3.555l-0.707,0.154c-0.141-0.152-0.039-0.354,0.291-0.606
		c0.246-0.189,0.441-0.211,0.582-0.057C17.644,3.195,17.592,3.366,17.34,3.555z M17.787,13.233l0.289-0.605l0.209,0.227
		L17.787,13.233z M19.031,12.285l-0.705,0.153c-0.139-0.152-0.043-0.354,0.289-0.606c0.334-0.253,0.568-0.305,0.709-0.153
		C19.459,11.829,19.367,12.032,19.031,12.285z M19.14,0.451l-0.811,0.04c-0.141-0.152-0.043-0.354,0.289-0.606
		c0.334-0.253,0.568-0.305,0.709-0.153C19.533-0.042,19.472,0.198,19.14,0.451z M24.334-9.09 M23.474-4.968
		c0.248-0.188,0.439-0.209,0.582-0.057c0.139,0.15,0.084,0.322-0.166,0.51l-0.707,0.153C23.045-4.514,23.142-4.714,23.474-4.968z
		 M23.736-0.544L23.24-0.165c-0.141-0.152-0.127-0.29,0.039-0.416c0.168-0.127,0.27-0.397,0.309-0.813
		c0.014-0.14,0.105-0.271,0.271-0.397l0.623-0.474C24.4-1.434,24.154-0.862,23.736-0.544z M25.135-6.616l-0.709,0.153
		c-0.209-0.226-0.145-0.467,0.186-0.719c0.248-0.189,0.479-0.17,0.688,0.055C25.435-6.976,25.383-6.805,25.135-6.616z M26.064-4.917
		c-0.297,0.29-0.459,0.572-0.484,0.853l-0.146,0.303l0.021-0.208c0.01-0.139,0.135-0.392,0.361-0.757
		c0.229-0.366,0.367-0.828,0.422-1.381C26.42-5.605,26.361-5.209,26.064-4.917z M27.969-7.909c-0.158,0.44-0.277,0.694-0.361,0.757
		l-0.02,0.208l-0.354,0.077L27.15-7.188c0.014-0.14,0.061-0.242,0.143-0.304l0.293-0.604c0.012-0.14,0.102-0.273,0.268-0.399
		l0.5-0.378C28.256-8.674,28.127-8.351,27.969-7.909z"/>
</g>
<rect x="10.417" y="-5.75" fill="#FFFFFF" width="9.75" height="12.667"/>
<rect x="21.25" y="-10" fill="#FFFFFF" width="6.584" height="6.584"/>
<rect x="22.834" y="-4.25" fill="#FFFFFF" width="1.833" height="5"/>
<rect x="27.334" y="-10" fill="#FFFFFF" width="1.166" height="3.167"/>
</svg>
