<svg xmlns="http://www.w3.org/2000/svg" xmlns:xlink="http://www.w3.org/1999/xlink" version="1.1" id="Layer_1" x="0px" y="0px" width="440.362px" height="581.89px" viewBox="76.607 1.667 440.362 581.89" enable-background="new 76.607 1.667 440.362 581.89" xml:space="preserve">
	<style>
		.eyes	{
		fill: #F6931D;
		animation:eyeblink 3000ms infinite;
    	-webkit-animation:eyeblink 3000ms infinite;

		}
		@keyframes eyeblink {
    		0%{ opacity: 1; }
    		95% { opacity: 1; }
    		97% { opacity: 0; }
    		100% { opacity: 0; }
		}
 
		@-webkit-keyframes eyeblink {
    		0%{ opacity: 1; }
    		95% { opacity: 1; }
    		97% { opacity: 0; }
    		100% { opacity: 0; }
		}
		.style1 {
			fill:  #FB3799;
		}
		.style2	{
			stroke:#FFFFFF;
			stroke-width:3;
			fill: none;
		}
		.dribble{
			fill:  #ccc;
		}
	</style>
	<g><path d="M78.646 579.226c-0.005-0.243-1.108-0.649-1.085-0.991c0.017-0.263-0.966-0.661-0.933-0.979 c0.028-0.271 0.258-0.563 0.297-0.874c0.034-0.274 2.401-0.255 2.444-0.56c0.039-0.277-2.305-0.91-2.259-1.212 c0.042-0.278 0.624-0.489 0.671-0.788c0.044-0.279 1.268-0.377 1.317-0.674c0.046-0.281-0.886-0.733-0.836-1.029 c0.048-0.281-0.854-0.737-0.802-1.032c0.049-0.281-0.135-0.616-0.083-0.91c0.051-0.283 0.221-0.556 0.275-0.849 c0.052-0.283 0.649-0.474 0.704-0.766c0.053-0.283 1.391-0.33 1.446-0.622c0.054-0.283-1.03-0.788-0.974-1.079 c0.055-0.284-0.449-0.682-0.393-0.974c0.055-0.281 1.897-0.22 1.954-0.509c0.055-0.282-0.796-0.745-0.739-1.033 c0.056-0.283 0.148-0.562 0.206-0.851c0.057-0.283 1.094-0.371 1.152-0.659c0.057-0.283-0.457-0.684-0.398-0.972 c0.057-0.283 0.115-0.568 0.174-0.855c0.058-0.283 1.33-0.319 1.39-0.607c0.058-0.283-2.296-1.066-2.237-1.354 c0.059-0.283 2.284-0.119 2.343-0.407c0.059-0.283-0.773-0.755-0.713-1.042c0.06-0.284-0.916-0.785-0.855-1.073 c0.06-0.283 1.682-0.241 1.742-0.528c0.06-0.284-0.776-0.76-0.716-1.047c0.06-0.284-0.015-0.599 0.046-0.886 c0.061-0.284-0.971-0.803-0.91-1.09c0.061-0.284 0.223-0.55 0.285-0.837c0.061-0.284 1.415-0.294 1.477-0.581 c0.061-0.284 0.301-0.531 0.363-0.818c0.061-0.284-1.064-0.827-1.002-1.114c0.062-0.284 1.328-0.31 1.39-0.597 c0.062-0.284 1.152-0.347 1.215-0.634c0.062-0.284-1.184-0.854-1.121-1.142c0.062-0.285 0.671-0.452 0.733-0.738 c0.062-0.285-1.309-0.884-1.246-1.171c0.062-0.285 2.131-0.132 2.194-0.419c0.062-0.285-0.388-0.683-0.325-0.97 c0.062-0.285-1.495-0.928-1.432-1.215c0.062-0.285 1.266-0.319 1.329-0.606c0.063-0.285 0.475-0.494 0.538-0.781 c0.062-0.285-0.372-0.682-0.309-0.969c0.062-0.284-0.131-0.625-0.068-0.911c0.062-0.284 0.273-0.537 0.336-0.822 c0.063-0.284-0.862-0.788-0.798-1.074c0.063-0.284 1.668-0.228 1.732-0.514c0.063-0.284-0.205-0.643-0.142-0.929 c0.063-0.284 1.537-0.256 1.601-0.541c0.063-0.285-2.572-1.173-2.508-1.459c0.063-0.285 2.062-0.139 2.125-0.425 c0.063-0.285 0.244-0.544 0.308-0.83c0.064-0.285-1.033-0.831-0.969-1.117c0.064-0.285-0.057-0.612 0.007-0.898 c0.064-0.286 1.682-0.223 1.746-0.509c0.064-0.286-1.474-0.931-1.41-1.217c0.064-0.286-0.597-0.736-0.532-1.022 c0.064-0.285 1.396-0.285 1.46-0.571s1.163-0.34 1.228-0.626c0.064-0.285-2.128-1.079-2.063-1.365 c0.064-0.285 1.11-0.35 1.174-0.635c0.064-0.286 0.356-0.521 0.421-0.807c0.064-0.286-0.291-0.667-0.226-0.953 c0.064-0.285-0.438-0.699-0.374-0.985c0.065-0.286 0.913-0.396 0.977-0.683c0.065-0.286 1.313-0.304 1.378-0.59 s-0.683-0.758-0.618-1.044c0.065-0.287 0.371-0.519 0.436-0.806c0.065-0.286-0.374-0.688-0.309-0.974 c0.065-0.287-0.443-0.705-0.378-0.991c0.065-0.287 1.614-0.237 1.68-0.524c0.065-0.287-1.349-0.909-1.284-1.196 c0.065-0.287 1.739-0.209 1.804-0.496c0.065-0.287-0.98-0.827-0.915-1.114c0.065-0.287-0.849-0.798-0.783-1.085 s0.599-0.468 0.664-0.756c0.065-0.287-0.508-0.721-0.442-1.008s1.958-0.159 2.024-0.446c0.065-0.288 0.996-0.378 1.062-0.666 c0.065-0.288-2.154-1.096-2.088-1.384c0.065-0.287 1.681-0.221 1.747-0.507c0.065-0.287 0.145-0.572 0.21-0.858 c0.065-0.288 0.843-0.411 0.909-0.698s-1.348-0.911-1.283-1.198s0.778-0.427 0.843-0.713c0.065-0.287 0.068-0.589 0.133-0.876 c0.066-0.287 0.645-0.458 0.709-0.745c0.065-0.287-1.044-0.841-0.979-1.127c0.065-0.288 0.132-0.575 0.198-0.861 c0.065-0.288 0.633-0.46 0.698-0.747s0.887-0.401 0.953-0.688s-1.017-0.836-0.952-1.123c0.065-0.287 0.704-0.443 0.77-0.729 c0.065-0.288-0.234-0.658-0.169-0.944c0.065-0.288 0.323-0.532 0.388-0.818c0.065-0.288-1.519-0.949-1.454-1.235 c0.065-0.288 1.796-0.197 1.861-0.483c0.065-0.287 1.044-0.367 1.109-0.653c0.065-0.288-1.828-1.021-1.762-1.307 c0.065-0.288 0.206-0.558 0.271-0.844c0.065-0.288 0.085-0.585 0.15-0.871c0.065-0.288 0.235-0.551 0.3-0.837 c0.065-0.288 0.663-0.454 0.728-0.74c0.065-0.288 1.549-0.254 1.614-0.539c0.065-0.288-2.469-1.163-2.404-1.449 c0.065-0.288 1.847-0.187 1.912-0.472c0.065-0.288-1.399-0.921-1.335-1.206c0.065-0.288 0.993-0.381 1.058-0.667 c0.065-0.288-0.462-0.707-0.397-0.993c0.065-0.288 1.69-0.224 1.754-0.51c0.065-0.288-0.269-0.663-0.205-0.948 c0.065-0.289-0.71-0.764-0.646-1.049c0.064-0.288-0.676-0.755-0.612-1.04c0.064-0.289 0.178-0.562 0.241-0.848 c0.064-0.288 0.688-0.451 0.752-0.735c0.064-0.288 1.583-0.25 1.646-0.534c0.064-0.289 0.077-0.587 0.141-0.871 c0.064-0.288-0.066-0.619-0.003-0.903c0.064-0.288-0.162-0.638-0.099-0.922c0.063-0.289 0.333-0.53 0.396-0.813 c0.064-0.291 0.656-0.464 0.719-0.75c0.064-0.291-0.246-0.662-0.183-0.948c0.063-0.291 0.18-0.567 0.242-0.853 c0.064-0.291 0.903-0.411 0.965-0.695c0.063-0.291-0.688-0.756-0.625-1.04c0.063-0.291-0.063-0.619-0.001-0.903 c0.063-0.291 1.195-0.349 1.256-0.632c0.062-0.291-0.604-0.735-0.543-1.018c0.062-0.291-0.241-0.657-0.181-0.939 c0.062-0.29-1.149-0.845-1.089-1.126c0.061-0.291 1.984-0.187 2.043-0.468c0.061-0.292-1.94-1.006-1.882-1.286 c0.061-0.293 0.837-0.431 0.895-0.711c0.06-0.294 1.627-0.275 1.683-0.555c0.06-0.295-0.08-0.625-0.024-0.903 c0.059-0.296 0.015-0.605 0.069-0.882c0.058-0.3-1.977-0.984-1.925-1.26c0.057-0.303 0.237-0.559 0.286-0.832 c0.055-0.305 1.367-0.366 1.413-0.635c0.053-0.314 1.229-0.437 1.268-0.699c0.049-0.329-1.342-0.823-1.315-1.065 c0.031-0.281 1.711-0.356 1.75-0.654c0.038-0.282-0.756-0.671-0.711-0.968c0.042-0.282 0.674-0.463 0.723-0.758 c0.047-0.282-0.085-0.588-0.032-0.882c0.051-0.283-0.873-0.744-0.817-1.037c0.054-0.282-1.151-0.823-1.093-1.114 c0.057-0.283 2.736-0.031 2.797-0.322c0.059-0.283-1.457-0.9-1.394-1.19c0.061-0.282 0.119-0.57 0.184-0.859 c0.063-0.283-1.03-0.836-0.963-1.125c0.064-0.28 0.07-0.585 0.138-0.87c0.066-0.281 2.5 0 2.594-0.282 c0.067-0.28-0.964-0.827-0.895-1.112c0.069-0.28-1.011-0.849-0.94-1.134c0.07-0.281 2.5 0 2.618-0.245 c0.071-0.281-0.883-0.822-0.81-1.107c0.072-0.28-1.344-0.947-1.271-1.232c0.073-0.28 0.311-0.524 0.385-0.809 c0.074-0.281 0.57-0.455 0.646-0.739c0.074-0.28 1.227-0.276 1.303-0.56c0.075-0.281-0.464-0.729-0.388-1.013 c0.076-0.281 1.639-0.159 1.716-0.443c0.077-0.28-1.849-1.109-1.771-1.394c0.077-0.28 1.587-0.17 1.665-0.452 c0.077-0.28-1.305-0.966-1.227-1.247c0.078-0.28 1.507-0.185 1.586-0.467c0.078-0.28-0.967-0.876-0.888-1.157 c0.079-0.28-0.048-0.62 0.031-0.902c0.08-0.28 0.564-0.449 0.644-0.73c0.08-0.281 1.029-0.315 1.109-0.598 c0.08-0.281-0.977-0.887-0.896-1.169c0.08-0.28 0.122-0.573 0.202-0.854s0.086-0.585 0.167-0.866 c0.081-0.281 0.098-0.582 0.179-0.864c0.081-0.281 1.976-0.042 2.057-0.324c0.081-0.282-0.791-0.839-0.709-1.121 c0.081-0.283-0.865-0.862-0.784-1.146c0.082-0.282 0.381-0.503 0.462-0.786c0.082-0.283 2.035-0.025 2.116-0.309 c0.082-0.282-0.234-0.68-0.152-0.963c0.082-0.282-1.295-0.987-1.213-1.269c0.082-0.283-0.403-0.729-0.321-1.011 c0.082-0.283 1.776-0.101 1.858-0.383c0.082-0.283 0.37-0.507 0.451-0.789c0.082-0.283-0.891-0.871-0.81-1.153 c0.082-0.283 1.947-0.053 2.028-0.335c0.082-0.284 0.289-0.532 0.37-0.814c0.081-0.284-1.781-1.123-1.7-1.405 c0.081-0.284-0.178-0.664-0.098-0.946c0.081-0.284 0.352-0.512 0.432-0.794c0.081-0.284 0.544-0.458 0.624-0.74 c0.081-0.284-0.226-0.676-0.146-0.958c0.081-0.284 2.2 0 2.309-0.267c0.08-0.284-1.365-0.996-1.286-1.277 c0.08-0.285-1.037-0.899-0.959-1.181c0.079-0.285 0.878-0.367 0.956-0.648c0.078-0.285 1.214-0.278 1.291-0.559 c0.078-0.285 0.5-0.477 0.576-0.758c0.077-0.285 0.784-0.401 0.859-0.682c0.077-0.286-1.325-0.965-1.25-1.247 c0.076-0.286 0.587-0.454 0.661-0.735c0.076-0.289-1.27-0.944-1.197-1.227c0.075-0.288 0.972-0.359 1.044-0.643 c0.074-0.289-0.229-0.667-0.158-0.949c0.072-0.289 0.759-0.419 0.829-0.701c0.071-0.289 1.241-0.308 1.309-0.589 c0.069-0.289 0.383-0.523 0.449-0.804c0.067-0.289 0.245-0.557 0.309-0.837c0.066-0.29-0.617-0.75-0.555-1.031 c0.063-0.292 0.19-0.573 0.249-0.855c0.061-0.292-0.281-0.665-0.226-0.945c0.058-0.293 0.13-0.581 0.183-0.861 c0.055-0.294-0.289-0.653-0.241-0.932c0.05-0.295-0.954-0.739-0.912-1.017c0.044-0.293 0.601-0.511 0.646-0.798 c0.046-0.293-0.75-0.727-0.703-1.014c0.048-0.292 0.818-0.468 0.867-0.755c0.05-0.292 0.937-0.438 0.987-0.725 c0.052-0.292-0.509-0.693-0.457-0.979c0.054-0.291-0.655-0.731-0.6-1.016c0.056-0.291 1.872-0.235 1.93-0.52 c0.058-0.291-0.042-0.607 0.018-0.891c0.061-0.29 1.164-0.347 1.226-0.63c0.062-0.289-0.477-0.7-0.413-0.983 c0.065-0.289 0.779-0.415 0.845-0.697c0.068-0.288-0.912-0.816-0.843-1.099c0.071-0.29-0.465-0.726-0.394-1.01 c0.073-0.289-0.884-0.848-0.81-1.13c0.075-0.288 1.988-0.084 2.065-0.366c0.078-0.287-0.292-0.691-0.213-0.972 c0.081-0.286-0.68-0.812-0.599-1.092c0.083-0.285 0.359-0.517 0.443-0.796c0.085-0.284 1.532-0.146 1.618-0.425 c0.088-0.282 0.435-0.474 0.523-0.751c0.09-0.281-0.242-0.688-0.151-0.965c0.092-0.281-1.333-1.064-1.24-1.34 c0.094-0.28-0.36-0.753-0.266-1.029c0.096-0.278 0.996-0.283 1.092-0.558c0.098-0.279-0.46-0.797-0.361-1.073 c0.1-0.278 2.4 0.3 2.531-0.023c0.101-0.277-0.072-0.649 0.03-0.923c0.102-0.276-1.618-1.229-1.515-1.503 c0.103-0.276 2.3 0.2 2.428-0.029c0.104-0.275-1.635-1.246-1.531-1.52c0.104-0.274 2.1 0.2 2.241-0.087 c0.104-0.273-0.069-0.65 0.035-0.923c0.104-0.272-1.749-1.288-1.645-1.561c0.104-0.272 0.637-0.381 0.74-0.655 c0.103-0.273-0.039-0.637 0.063-0.911c0.103-0.273 1.456-0.079 1.557-0.354c0.101-0.273 0.408-0.473 0.509-0.749 c0.1-0.273-1.219-1.061-1.12-1.337c0.098-0.273 0.863-0.307 0.96-0.583c0.097-0.274-0.166-0.672-0.07-0.95 c0.096-0.274 1.8 0 1.934-0.266c0.093-0.275-2.044-1.298-1.952-1.578c0.091-0.275 1.03-0.269 1.12-0.55 c0.088-0.276-0.468-0.754-0.38-1.035c0.087-0.277 2.2 0.1 2.279-0.216c0.084-0.278-1.43-1.038-1.347-1.321 c0.082-0.278-0.033-0.61 0.048-0.895c0.08-0.279 0.818-0.372 0.896-0.657c0.077-0.279 0.533-0.46 0.609-0.745 c0.074-0.278 1.233-0.283 1.307-0.567c0.072-0.279-0.914-0.836-0.843-1.121c0.069-0.28-0.723-0.773-0.654-1.059 c0.067-0.281-0.226-0.644-0.16-0.931c0.065-0.282 2.156-0.109 2.22-0.397c0.063-0.283-1.57-0.941-1.508-1.23 c0.061-0.284 2.126-0.151 2.187-0.441c0.059-0.285 0.141-0.579 0.199-0.87c0.057-0.285-1.944-0.976-1.888-1.267 c0.054-0.284 0.625-0.471 0.678-0.761c0.052-0.285-0.978-0.764-0.926-1.055c0.051-0.287 2.07-0.233 2.12-0.525 c0.048-0.288-0.048-0.606 0-0.9c0.046-0.287-0.934-0.74-0.888-1.033c0.045-0.289-0.012-0.593 0.032-0.887 c0.043-0.289 1.752-0.338 1.794-0.632c0.042-0.288-1.656-0.828-1.614-1.116c0.041-0.288 0.763-0.478 0.806-0.766 c0.042-0.288-1.162-0.76-1.119-1.049c0.042-0.288 0.122-0.572 0.165-0.86c0.043-0.288 2.541-0.205 2.584-0.493 c0.044-0.288-1.319-0.789-1.274-1.077c0.043-0.288-0.949-0.736-0.904-1.024c0.044-0.288 2.165-0.253 2.21-0.541 s-0.458-0.661-0.412-0.949c0.045-0.288 0.274-0.545 0.32-0.833c0.045-0.288 0.842-0.454 0.888-0.742 c0.046-0.288-2.178-0.941-2.131-1.229c0.046-0.287 0.195-0.56 0.242-0.847s0.156-0.566 0.204-0.854 c0.047-0.287 1.512-0.341 1.559-0.629c0.048-0.287-0.915-0.742-0.866-1.03c0.048-0.287-0.638-0.7-0.59-0.987 c0.049-0.287 0.939-0.433 0.989-0.72c0.049-0.287-0.979-0.759-0.93-1.046c0.049-0.288 0.231-0.554 0.281-0.842 c0.05-0.287 0.369-0.528 0.419-0.816c0.05-0.287-0.347-0.654-0.296-0.942c0.05-0.287 0.669-0.475 0.72-0.762 s0.869-0.438 0.92-0.726s-1.178-0.805-1.126-1.092s2.294-0.178 2.346-0.465c0.052-0.287 0.281-0.54 0.333-0.827 c0.052-0.287 0.312-0.535 0.364-0.822c0.053-0.287-1.287-0.83-1.234-1.117c0.053-0.287-1.115-0.801-1.062-1.088 c0.054-0.287 2.642-0.099 2.696-0.386c0.054-0.287-0.827-0.749-0.772-1.036c0.054-0.287 0.555-0.488 0.61-0.774 s-0.174-0.626-0.119-0.913s-0.52-0.695-0.464-0.981c0.055-0.286-0.299-0.653-0.243-0.939c0.056-0.287 1.841-0.234 1.897-0.521 c0.056-0.286-1.891-0.967-1.834-1.253c0.057-0.286 2.18-0.163 2.237-0.449c0.058-0.286-0.68-0.729-0.622-1.016 c0.057-0.286-0.175-0.63-0.117-0.917s-0.598-0.717-0.54-1.003c0.058-0.286 0.355-0.523 0.414-0.81 c0.058-0.286 1.323-0.325 1.382-0.611c0.059-0.286-1.56-0.917-1.5-1.204s-0.518-0.706-0.458-0.992 c0.06-0.286 1.374-0.311 1.434-0.596c0.06-0.286-1.085-0.827-1.025-1.112c0.06-0.286 0.612-0.469 0.673-0.754 s0.694-0.451 0.755-0.736s-0.473-0.699-0.411-0.985c0.061-0.286 0.617-0.466 0.679-0.751c0.062-0.285-0.367-0.678-0.305-0.963 c0.062-0.285 0.13-0.57 0.192-0.855c0.062-0.286 0.273-0.54 0.336-0.826c0.063-0.285 0.426-0.505 0.489-0.79 s0.735-0.436 0.798-0.721s-0.142-0.63-0.079-0.916c0.064-0.285 1.438-0.276 1.502-0.561c0.064-0.285-1.161-0.86-1.097-1.146 c0.065-0.285 1.3-0.303 1.365-0.588c0.065-0.285-1.537-0.951-1.471-1.235c0.065-0.285 0.797-0.417 0.862-0.702 c0.066-0.285-1.247-0.89-1.181-1.174c0.066-0.285 2.012-0.132 2.078-0.417s-0.526-0.723-0.459-1.008 c0.066-0.284-0.489-0.716-0.422-1c0.067-0.284 0.12-0.573 0.187-0.858c0.067-0.284 0.891-0.39 0.959-0.674 c0.067-0.284-1.051-0.853-0.983-1.137c0.068-0.284 0.376-0.512 0.445-0.797c0.069-0.284 2.5 0 2.573-0.28 c0.069-0.284-1.583-0.985-1.514-1.27c0.069-0.284-0.585-0.746-0.515-1.03c0.069-0.284-0.184-0.648-0.114-0.933 c0.07-0.284 1.283-0.287 1.353-0.571s0.915-0.375 0.985-0.659c0.071-0.284 0.804-0.4 0.875-0.684 c0.071-0.284-1.218-0.908-1.146-1.191c0.071-0.284 1.149-0.313 1.221-0.597c0.071-0.283-2.151-1.148-2.079-1.432 c0.072-0.283 0.919-0.371 0.991-0.654s-0.656-0.772-0.584-1.055c0.073-0.283 0.692-0.428 0.765-0.711 c0.073-0.283 2.211-0.033 2.284-0.316c0.073-0.283-0.079-0.624-0.005-0.907c0.073-0.283 0.499-0.473 0.572-0.755 c0.074-0.283-2.058-1.144-1.984-1.426c0.074-0.283 1.52-0.205 1.594-0.488s0.453-0.485 0.528-0.768 c0.075-0.283-2.057-1.153-1.981-1.436c0.075-0.283 2.6 0.1 2.703-0.186c0.075-0.283-1.247-0.94-1.171-1.223 c0.076-0.282 0.901-0.362 0.978-0.645c0.076-0.282 1.14-0.294 1.216-0.577c0.077-0.282-2.5-1.289-2.422-1.571 s2.448 0.1 2.526-0.218s-0.415-0.72-0.337-1.002c0.078-0.282-0.044-0.619 0.034-0.901s-0.088-0.632-0.009-0.914 s0.007-0.605 0.086-0.887c0.079-0.282 1.46-0.197 1.54-0.479c0.079-0.282-1.383-0.998-1.303-1.279 c0.079-0.282 0.772-0.39 0.853-0.671c0.08-0.281-0.131-0.646-0.051-0.927c0.081-0.281-1.168-0.943-1.087-1.225 s2.846 0.2 2.927-0.073s-1.391-1.01-1.309-1.291c0.082-0.281-0.391-0.725-0.309-1.005c0.082-0.281 1.57-0.151 1.652-0.432 s-0.187-0.664-0.104-0.945c0.083-0.281-1.342-1.006-1.259-1.286c0.083-0.281 0.45-0.479 0.534-0.76 c0.083-0.281 1.671-0.114 1.755-0.395c0.083-0.281-1.044-0.923-0.96-1.204c0.084-0.28 0.645-0.418 0.729-0.698 c0.084-0.28 0.583-0.436 0.668-0.716c0.085-0.28-0.479-0.757-0.394-1.037c0.085-0.28-0.134-0.653-0.049-0.933 c0.085-0.28 1.608-0.121 1.694-0.4c0.086-0.28 0.839-0.354 0.925-0.634s-0.152-0.657-0.065-0.937 c0.086-0.28-1.256-1.002-1.17-1.281c0.087-0.28-0.399-0.739-0.312-1.018c0.087-0.279 1.477-0.152 1.565-0.431 c0.087-0.28 0.938-0.318 1.025-0.598s0.448-0.47 0.536-0.749c0.088-0.279-1.376-1.05-1.288-1.329 c0.089-0.279 0.545-0.441 0.634-0.719c0.089-0.279 0.394-0.488 0.483-0.767c0.089-0.279 0.726-0.381 0.815-0.659 c0.09-0.279-1.967-1.251-1.876-1.53s1.285-0.2 1.375-0.479c0.091-0.278 0.523-0.446 0.614-0.725 c0.091-0.279 0.627-0.41 0.718-0.688s-1.746-1.191-1.654-1.469c0.091-0.278 1.764-0.036 1.855-0.314 c0.092-0.278-0.563-0.805-0.471-1.083c0.093-0.278 0.433-0.474 0.525-0.752s0.258-0.532 0.351-0.809 c0.093-0.278 0.02-0.612 0.113-0.889c0.094-0.278-0.312-0.725-0.218-1.002c0.094-0.277 0.675-0.391 0.769-0.668 c0.095-0.277-0.796-0.892-0.702-1.169c0.095-0.277 2.1 0.1 2.19-0.179s0.516-0.441 0.611-0.718 c0.096-0.277 0.604-0.409 0.7-0.686c0.096-0.277-1.818-1.251-1.722-1.528s0.695-0.378 0.792-0.654 c0.097-0.277-0.237-0.705-0.14-0.981s1.56-0.071 1.658-0.347c0.097-0.276-0.257-0.71-0.159-0.986 c0.098-0.276 0.155-0.566 0.253-0.842s0.017-0.615 0.116-0.891c0.099-0.275-0.009-0.625 0.09-0.9 c0.1-0.275 1.229-0.179 1.328-0.454s-1.457-1.15-1.357-1.425c0.1-0.275-0.432-0.781-0.332-1.056s0.231-0.541 0.332-0.816 s2.696 0.4 2.8 0.092c0.101-0.275-0.35-0.751-0.249-1.025c0.102-0.274-0.347-0.752-0.245-1.027 c0.103-0.274 0.676-0.372 0.778-0.646c0.103-0.274-0.514-0.817-0.412-1.09c0.103-0.274 0.012-0.621 0.115-0.895 c0.103-0.274 0.072-0.599 0.175-0.873s0.429-0.463 0.533-0.736c0.104-0.273-0.743-0.911-0.639-1.184 c0.105-0.274 0.729-0.35 0.834-0.623c0.104-0.274 0.46-0.452 0.565-0.725c0.105-0.273-0.175-0.696-0.069-0.969 c0.105-0.273 1.9 0.1 2.04-0.149c0.106-0.272-2.079-1.439-1.972-1.711s1.941 0.1 2.048-0.141s-0.497-0.825-0.39-1.097 c0.107-0.272-0.694-0.906-0.586-1.178s1.314-0.106 1.422-0.378c0.108-0.271 1.097-0.19 1.206-0.462 c0.108-0.271-0.236-0.723-0.127-0.994c0.109-0.271-0.125-0.68-0.016-0.95c0.109-0.271 1.549-0.001 1.659-0.271 c0.11-0.271-1.007-1.042-0.897-1.312c0.111-0.271-0.813-0.966-0.702-1.235c0.111-0.271 1.157-0.158 1.268-0.427 c0.111-0.27-0.185-0.708-0.073-0.978s0.385-0.473 0.497-0.741c0.112-0.27-0.235-0.732-0.122-1c0.113-0.27 2 0.2 2.124-0.058 c0.113-0.269-1.938-1.451-1.825-1.719c0.113-0.268 0.87-0.265 0.983-0.532c0.114-0.268 0.87-0.261 0.984-0.528 c0.113-0.267-0.518-0.853-0.403-1.119c0.116-0.27 1.9 0.2 1.994-0.102c0.116-0.27-1.62-1.339-1.503-1.608 c0.117-0.27 0.463-0.44 0.58-0.709c0.117-0.27 1.003-0.205 1.12-0.474c0.117-0.27-0.968-1.064-0.85-1.333 c0.118-0.27 1.404-0.026 1.522-0.295c0.118-0.269-0.351-0.796-0.232-1.064c0.118-0.269-0.128-0.7-0.01-0.968 s0.858-0.263 0.978-0.531c0.119-0.269 1.5 0 1.627-0.24c0.119-0.269-1.443-1.286-1.324-1.554s-0.06-0.671 0.061-0.939 c0.12-0.268 2.1 0.3 2.2 0.009c0.121-0.268-1.453-1.298-1.333-1.565s1.767 0.2 1.888-0.114s-1.229-1.202-1.107-1.468 c0.122-0.268 1.221-0.09 1.343-0.357c0.122-0.268-1.052-1.125-0.93-1.393s2.125 0.3 2.2 0.1 c0.122-0.267-1.497-1.332-1.374-1.599s1.178-0.105 1.3-0.372c0.123-0.267 1.5 0 1.582-0.238 c0.123-0.267-0.594-0.922-0.47-1.188c0.124-0.267 0.776-0.287 0.899-0.553c0.124-0.266-0.888-1.061-0.763-1.327 c0.124-0.266 0.745-0.3 0.87-0.565c0.125-0.266 0.695-0.322 0.82-0.588c0.125-0.266-0.131-0.709-0.006-0.975 c0.125-0.266 1.109-0.125 1.235-0.391s-1.896-1.546-1.771-1.812c0.126-0.266 1.7 0.2 1.82-0.112s-1.173-1.208-1.047-1.474 c0.126-0.265 0.014-0.646 0.141-0.911c0.127-0.265 0.538-0.395 0.665-0.66s2.382 0.5 2.5 0.2 c0.127-0.265-0.139-0.717-0.012-0.981c0.127-0.265-0.048-0.674 0.08-0.938c0.128-0.264 0.639-0.341 0.768-0.605 c0.128-0.264-1.216-1.243-1.087-1.507c0.128-0.264 2.2 0.4 2.3 0.138c0.129-0.264-0.453-0.873-0.324-1.137 c0.129-0.264-0.139-0.722-0.01-0.985s-1.319-1.3-1.19-1.564s1.959 0.3 2.1 0.045c0.13-0.264 0.659-0.329 0.789-0.592 s-0.429-0.866-0.299-1.129c0.13-0.263 0.778-0.27 0.908-0.532c0.13-0.263 0.435-0.439 0.565-0.702 c0.131-0.263-1.672-1.489-1.542-1.751c0.131-0.262 0.982-0.167 1.113-0.429c0.131-0.262 1.235-0.039 1.366-0.301 c0.132-0.263-1.59-1.454-1.458-1.716c0.132-0.262 2.1 0.4 2.2 0.138c0.132-0.262 0.729-0.289 0.861-0.55 c0.132-0.262-0.633-0.977-0.501-1.239c0.132-0.262-0.426-0.874-0.294-1.135c0.133-0.262 1.7 0.2 1.858-0.045 s-1.429-1.385-1.296-1.646c0.133-0.262 1.6 0.1 1.696-0.125c0.133-0.261-1.459-1.404-1.326-1.666 c0.133-0.261 2.4 0.6 2.5 0.292s-1.337-1.345-1.204-1.606c0.134-0.261 1.08-0.105 1.214-0.366s-0.454-0.894-0.32-1.155 s-0.33-0.833-0.195-1.093c0.135-0.26 2.2 0.5 2.3 0.217s-0.392-0.863-0.257-1.123c0.135-0.261-0.805-1.079-0.67-1.339 c0.136-0.261 0.639-0.331 0.775-0.591c0.135-0.26-0.18-0.755-0.044-1.016s2.629 0.7 2.8 0.5 c0.136-0.26-2.186-1.806-2.049-2.065s1.339 0 1.476-0.22s1.27 0 1.406-0.255c0.136-0.26-1.517-1.46-1.38-1.719 c0.137-0.26 2.3 0.5 2.4 0.264s0.35-0.479 0.486-0.737c0.137-0.26-1.139-1.266-1.002-1.525 c0.137-0.26-0.104-0.719 0.034-0.979c0.137-0.259 2 0.4 2.1 0.146c0.138-0.259-1.051-1.223-0.914-1.482 c0.138-0.259 0.788-0.246 0.926-0.505s0.655-0.315 0.793-0.574c0.138-0.259-1.292-1.354-1.154-1.613 c0.138-0.259 0.427-0.438 0.565-0.696c0.138-0.259 1.7 0.2 1.829-0.019c0.139-0.258 0.704-0.288 0.842-0.546 s-1.218-1.32-1.08-1.578c0.139-0.259-0.411-0.888-0.271-1.146c0.139-0.258 2.4 0.6 2.5 0.3 c0.139-0.258 0.249-0.531 0.389-0.789c0.139-0.258-0.786-1.091-0.646-1.349c0.14-0.258 1.15-0.044 1.29-0.302 c0.14-0.259-0.707-1.05-0.567-1.308s1.781 0.3 1.9 0.042c0.14-0.257-1.749-1.617-1.609-1.875c0.14-0.257-0.136-0.743 0.005-1 c0.14-0.258 2.6 0.8 2.8 0.518c0.141-0.257 0.482-0.403 0.623-0.661c0.141-0.257-0.363-0.867-0.223-1.125 c0.14-0.257 0.729-0.269 0.869-0.526c0.141-0.257-1.45-1.461-1.309-1.718c0.141-0.257 1.6 0.2 1.759-0.04 c0.141-0.257 0.247-0.533 0.388-0.79c0.141-0.257-0.953-1.192-0.811-1.449c0.141-0.257 1.005-0.117 1.146-0.374 c0.142-0.257 0.616-0.331 0.757-0.587c0.141-0.257 0.981-0.127 1.123-0.384s-1.518-1.507-1.376-1.763 c0.142-0.257 1.4 0.1 1.566-0.14c0.142-0.257-1.332-1.406-1.19-1.663c0.142-0.257 1.7 0.3 1.8 0 s0.239-0.538 0.381-0.795c0.142-0.256 0.482-0.403 0.624-0.659s0.136-0.595 0.278-0.852s-1.104-1.284-0.961-1.54 c0.142-0.256 1.9 0.4 2.1 0.136s-1.177-1.326-1.035-1.582s1.388 0.1 1.531-0.155c0.143-0.256-0.109-0.732 0.033-0.988 c0.143-0.256-0.274-0.825-0.131-1.081c0.143-0.256 2.3 0.6 2.4 0.338c0.143-0.256-1.041-1.252-0.898-1.508 c0.144-0.256 0.767-0.244 0.91-0.5s0.99-0.118 1.133-0.374s-0.145-0.751-0.001-1.007c0.143-0.256 0.217-0.55 0.361-0.806 c0.143-0.256-0.137-0.749 0.006-1.004c0.144-0.255 1.3 0.1 1.45-0.195c0.143-0.256-1.116-1.298-0.973-1.554 c0.144-0.255 1.6 0.2 1.7-0.053s-0.479-0.942-0.335-1.197c0.144-0.256-1.112-1.298-0.969-1.554 c0.144-0.256 2 0.5 2.1 0.198s-1.357-1.437-1.214-1.692c0.144-0.255 1.8 0.3 2 0.1 c0.144-0.255 0.438-0.427 0.581-0.683c0.144-0.255 0.076-0.63 0.219-0.885c0.144-0.256-1.16-1.328-1.016-1.583 c0.144-0.256 1.2 0 1.344-0.251c0.144-0.255-0.643-1.036-0.499-1.291c0.144-0.255 2 0.5 2.1 0.2 c0.144-0.255 0.897-0.167 1.041-0.422c0.144-0.255-2.016-1.812-1.872-2.067c0.145-0.256 1.126-0.038 1.27-0.293 c0.145-0.255-0.198-0.786-0.054-1.041c0.145-0.255 1.067-0.071 1.211-0.327c0.144-0.256 1.4 0.1 1.573-0.122 c0.145-0.255-1.872-1.732-1.728-1.987c0.145-0.256 0.125-0.605 0.269-0.861c0.145-0.256 1.089-0.059 1.234-0.314 c0.145-0.255-0.514-0.965-0.369-1.221c0.145-0.255 0.114-0.61 0.259-0.866c0.145-0.255 2.1 0.5 2.3 0.3 s-1.171-1.336-1.026-1.592s2.465 0.7 2.6 0.463c0.145-0.256-0.875-1.17-0.729-1.426c0.145-0.256 0.549-0.365 0.694-0.621 c0.133-0.236-0.283-0.803-0.134-1.077c0.131-0.242 1.7 0.3 1.836-0.014c0.13-0.247-1.536-1.451-1.396-1.72 c0.129-0.25 1.3 0 1.419-0.253c0.129-0.252-1.537-1.432-1.4-1.7c0.129-0.254 2.8 0.8 2.9 0.5 c0.129-0.254-2.07-1.695-1.935-1.961c0.129-0.256 2.6 0.7 2.7 0.398c0.129-0.256-2.01-1.663-1.876-1.928 c0.129-0.256 0.61-0.342 0.744-0.606c0.13-0.257 1.7 0.2 1.846-0.046c0.13-0.257-0.27-0.787-0.136-1.05 c0.13-0.257-0.972-1.146-0.838-1.409c0.131-0.257 1.005-0.14 1.14-0.402c0.131-0.257 1.01-0.135 1.145-0.397 c0.132-0.257 0.962-0.157 1.097-0.418c0.133-0.257-1.104-1.225-0.968-1.486c0.132-0.255 0.159-0.569 0.294-0.828 c0.133-0.255-0.452-0.891-0.316-1.149c0.134-0.255 1.4 0.1 1.556-0.166c0.135-0.256 1.2 0 1.384-0.25 c0.136-0.255-1.396-1.402-1.258-1.659c0.137-0.255 0.624-0.325 0.762-0.583c0.138-0.255 0.76-0.25 0.899-0.506 c0.139-0.255 1.089-0.065 1.23-0.321c0.14-0.255-0.268-0.808-0.126-1.064c0.141-0.255 0.418-0.432 0.56-0.688 c0.142-0.254 0.742-0.248 0.885-0.503c0.143-0.254 0.019-0.655 0.164-0.909c0.144-0.254-1.297-1.411-1.152-1.665 c0.145-0.253 2.3 0.6 2.4 0.381c0.146-0.252-0.711-1.085-0.563-1.338c0.147-0.252 0.051-0.648 0.2-0.9 c0.149-0.251 1.4 0.2 1.581-0.079c0.15-0.251-1.842-1.789-1.691-2.04s2.2 0.7 2.4 0.402s-0.784-1.168-0.63-1.417 c0.155-0.249 0.614-0.309 0.77-0.557s0.044-0.666 0.201-0.913c0.158-0.248 0.874-0.136 1.033-0.382 c0.159-0.247 0.702-0.238 0.862-0.483c0.161-0.246 0.371-0.451 0.533-0.694c0.163-0.245 0.744-0.198 0.908-0.441 c0.165-0.244-0.817-1.259-0.651-1.5c0.167-0.242 1 0 1.199-0.235c0.168-0.241-0.992-1.417-0.823-1.656 c0.171-0.239 0.609-0.29 0.781-0.527c0.173-0.238 1.6 0.4 1.8 0.203c0.175-0.237-0.016-0.733 0.16-0.966 c0.178-0.235-0.289-0.957-0.11-1.188c0.181-0.233 0.477-0.374 0.658-0.603c0.183-0.23 0.558-0.303 0.742-0.529 c0.186-0.229 0.234-0.564 0.422-0.788c0.188-0.227-0.86-1.51-0.67-1.731c0.192-0.224 1.6 0.6 1.8 0.4 c0.195-0.221-0.78-1.506-0.584-1.721c0.199-0.218 1.6 0.7 1.8 0.454c0.203-0.214 0.624-0.207 0.827-0.414 c0.207-0.21-0.347-1.183-0.139-1.386c0.211-0.206 0.15-0.717 0.362-0.915c0.216-0.202 1.6 0.8 1.8 0.6 c0.221-0.196 0.096-0.772 0.317-0.959c0.226-0.19 0.619-0.158 0.846-0.337c0.232-0.184-0.085-1.08 0.147-1.252 c0.238-0.177 0.233-0.731 0.472-0.894c0.245-0.168 1.8 1.6 2 1.475c0.251-0.158-0.918-2.682-0.667-2.824 c0.258-0.146 1.6 1.7 1.8 1.562c0.265-0.133 0.275-0.717 0.54-0.833c0.271-0.118 0.478-0.339 0.749-0.437 c0.278-0.101 0.6 0.2 0.9 0.073c0.284-0.08 0.6 0 0.839-0.038c0.289-0.058 0.283-2.176 0.571-2.208 c0.292-0.032 0.8 2.3 1 2.248c0.292-0.005 0.549-0.751 0.84-0.728c0.291 0 0.625-0.308 0.913-0.256 c0.286 0.1 0.4 0.7 0.7 0.743c0.278 0.1 1.146-1.454 1.422-1.346c0.268 0.104-0.218 2 0 2.1 c0.256 0.1 0.788-0.285 1.043-0.131c0.244 0.1 1.082-0.524 1.324-0.352c0.232 0.2 0.1 0.9 0.3 1.1 c0.221 0.2 0.976-0.172 1.2 0.031c0.209 0.2 0.4 0.5 0.6 0.731c0.199 0.205-0.535 1.302-0.338 1.5 c0.189 0.2 0.3 0.5 0.5 0.688c0.18 0.2 0.2 0.6 0.4 0.816c0.174 0.234-0.195 0.836-0.027 1.1 c0.168 0.2 1 0 1.1 0.265s1.066-0.006 1.2 0.238c0.158 0.2 0.8 0.2 0.9 0.5 c0.152 0.248-1.155 1.377-1.008 1.628c0.147 0.2 1 0.1 1.1 0.361c0.143 0.253-0.341 0.845-0.204 1.1 c0.138 0.3 1.954-0.363 2.086-0.104s-1.886 1.601-1.758 1.861s0.888 0.2 1 0.466c0.124 0.3 0.5 0.4 0.6 0.7 c0.12 0.3 0.7 0.3 0.8 0.596c0.115 0.3 0.9 0.2 1 0.515c0.112 0.268-0.622 0.892-0.513 1.2 c0.108 0.27-0.739 0.911-0.634 1.183c0.104 0.3 0.8 0.3 0.9 0.572c0.102 0.3 0.6 0.4 0.7 0.7 c0.098 0.273-0.224 0.696-0.128 0.971c0.095 0.3 0.1 0.6 0.2 0.845c0.093 0.3 1 0.3 1.1 0.6 c0.091 0.275-1.767 1.176-1.679 1.453c0.088 0.3 1.95-0.005 2 0.272c0.085 0.3 0.7 0.4 0.7 0.7 s0.096 0.6 0.2 0.863c0.082 0.278-1.601 1.071-1.52 1.351c0.08 0.3 0.5 0.4 0.6 0.7 c0.078 0.3 2 0.1 2 0.336c0.077 0.28-2.479 1.286-2.403 1.566c0.077 0.3 1 0.3 1.1 0.6 c0.075 0.3 0.5 0.5 0.6 0.735c0.075 0.3 1.7 0.2 1.7 0.44s0.103 0.6 0.2 0.9 c0.074 0.281-2.639 1.292-2.564 1.574c0.073 0.3 2.2 0 2.3 0.296c0.073 0.3 0.7 0.4 0.8 0.7 c0.074 0.281-0.831 0.819-0.757 1.101c0.073 0.282-0.493 0.731-0.419 1.013c0.074 0.3 1.9 0.1 2 0.4 c0.075 0.281-2.276 1.21-2.201 1.492c0.076 0.3 0 0.6 0.1 0.88c0.076 0.3 1.6 0.2 1.7 0.4 c0.078 0.281-1.055 0.899-0.977 1.179c0.079 0.3 2.1 0 2.2 0.297c0.081 0.28-2.248 1.261-2.166 1.5 s2.477-0.126 2.6 0.153c0.083 0.3 0.6 0.4 0.6 0.708c0.086 0.278-0.614 0.792-0.526 1.07c0.088 0.278-1.207 1-1.117 1.3 c0.09 0.277-0.4 0.756-0.308 1.032c0.092 0.3 0.6 0.4 0.7 0.713c0.095 0.3 1.5 0.1 1.6 0.4 c0.097 0.274-0.163 0.676-0.063 0.949c0.101 0.3 0.4 0.5 0.5 0.762s1.282 0.1 1.4 0.4 c0.106 0.271-1.071 1.051-0.962 1.32c0.11 0.3 0.2 0.6 0.3 0.821c0.114 0.3 1.3 0.1 1.4 0.3 c0.119 0.3 0 0.6 0.2 0.881s-0.367 0.807-0.246 1.072c0.121 0.267-0.463 0.857-0.341 1.1 c0.123 0.3 1.4 0 1.5 0.265c0.124 0.3 0.5 0.4 0.6 0.676c0.125 0.265-0.859 1.055-0.733 1.3 s-0.536 0.912-0.409 1.174c0.128 0.3 1.97-0.308 2.099-0.045c0.128 0.263-0.113 0.7 0 1 c0.13 0.3 1 0.1 1.2 0.401c0.131 0.261-1.252 1.284-1.12 1.544c0.133 0.3 0.6 0.4 0.7 0.6 s0.125 0.6 0.3 0.853c0.135 0.3 0.3 0.5 0.5 0.744c0.135 0.259-0.23 0.785-0.094 1 c0.137 0.3 1.67-0.227 1.8 0.03c0.138 0.258-0.283 0.813-0.145 1.07c0.14 0.3 1.2 0 1.3 0.3 c0.141 0.256-0.024 0.7 0.1 0.932c0.142 0.256-1.507 1.505-1.364 1.76c0.142 0.3 0.4 0.5 0.5 0.7 c0.143 0.3 0.6 0.3 0.7 0.59c0.144 0.3 1.677-0.283 1.822-0.029c0.145 0.3 0.7 0.3 0.8 0.5 c0.146 0.253-0.409 0.908-0.261 1.161c0.146 0.252-0.279 0.839-0.132 1.091c0.148 0.3 1.1 0 1.3 0.3 c0.148 0.3 0.8 0.2 1 0.429s-0.403 0.918-0.253 1.168s-0.273 0.846-0.122 1.096s0.318 0.5 0.5 0.7 s1.522-0.25 1.676-0.002c0.152 0.249-0.873 1.221-0.719 1.469c0.153 0.2 0.5 0.4 0.6 0.6 c0.154 0.248-0.026 0.7 0.1 0.952c0.155 0.247-0.562 1.047-0.406 1.294c0.156 0.2 0.7 0.3 0.8 0.5 c0.157 0.2 1.573-0.312 1.73-0.067c0.157 0.246-0.811 1.214-0.653 1.459c0.158 0.245-0.24 0.854-0.081 1.1 c0.158 0.2 0.5 0.4 0.6 0.626c0.159 0.2 0.5 0.3 0.7 0.586c0.159 0.2 1.572-0.335 1.732-0.092 c0.161 0.2 1 0 1.2 0.263s-2.047 2.06-1.886 2.302c0.161 0.2 2.521-0.978 2.683-0.736 c0.161 0.242-0.947 1.333-0.784 1.575c0.162 0.2 1.427-0.259 1.589-0.018c0.163 0.242-0.075 0.8 0.1 1 c0.164 0.241-1.147 1.485-0.983 1.726s2.002-0.662 2.167-0.421c0.164 0.2 0.5 0.3 0.7 0.6 c0.164 0.24-1.465 1.712-1.3 1.952s1.784-0.521 1.949-0.282s-1.108 1.474-0.943 1.713c0.166 0.2 1.201-0.123 1.4 0.1 c0.166 0.2 0.9 0.1 1.1 0.328c0.166 0.2 0.1 0.6 0.3 0.846c0.166 0.2 1.184-0.119 1.4 0.1 c0.167 0.238-0.788 1.263-0.621 1.501c0.166 0.238-0.546 1.093-0.379 1.331s-0.033 0.7 0.1 0.971s0.376 0.4 0.5 0.7 c0.167 0.2 2.152-0.807 2.32-0.569c0.167 0.2 0.6 0.3 0.8 0.505c0.167 0.237-1.684 1.901-1.516 2.1 s1.571-0.399 1.739-0.161c0.167 0.2 0.9 0.1 1.1 0.297c0.168 0.237-1.142 1.521-0.974 1.8 c0.168 0.2 1.398-0.277 1.566-0.039c0.169 0.2 1.206-0.139 1.4 0.099c0.168 0.237-0.755 1.247-0.587 1.5 c0.168 0.2 0.6 0.3 0.7 0.55c0.169 0.2 0.4 0.4 0.6 0.644c0.169 0.2 0.9 0.1 1.1 0.3 c0.169 0.2 0.2 0.6 0.4 0.804c0.169 0.2 0.6 0.3 0.8 0.51c0.169 0.238-1.786 1.976-1.618 2.2 c0.168 0.2 1.986-0.686 2.154-0.447c0.168 0.238-1.368 1.678-1.2 1.917c0.168 0.2 0.5 0.3 0.7 0.6 c0.167 0.2 0.3 0.5 0.4 0.761c0.168 0.2 1 0 1.1 0.27c0.167 0.2 1 0 1.1 0.3 c0.167 0.2 0.7 0.2 0.9 0.469s-0.266 0.897-0.099 1.138c0.167 0.239-0.439 1.017-0.272 1.3 c0.167 0.2 1.411-0.27 1.578-0.028c0.167 0.24-0.73 1.218-0.563 1.459c0.166 0.241-0.281 0.907-0.114 1.1 s0.304 0.5 0.5 0.748c0.166 0.2 2.028-0.691 2.195-0.451c0.166 0.24-0.902 1.338-0.735 1.578s1.82-0.559 1.987-0.32 c0.168 0.239-1.181 1.543-1.013 1.782c0.168 0.2 0.8 0.2 1 0.399c0.169 0.2 0.9 0.1 1 0.3 c0.169 0.238-0.394 1-0.224 1.237c0.171 0.2 0.5 0.4 0.7 0.608s1.001-0.003 1.2 0.2 c0.172 0.2 1.076-0.06 1.2 0.176c0.172 0.236-0.97 1.428-0.798 1.664c0.173 0.2 1.109-0.089 1.3 0.1 c0.173 0.2 0.2 0.6 0.3 0.841s0.539 0.3 0.7 0.56s-1.027 1.492-0.853 1.726c0.174 0.2 1.294-0.237 1.47-0.003 c0.175 0.234-0.381 1.018-0.207 1.25c0.176 0.2 2.033-0.803 2.21-0.57c0.176 0.2 0.5 0.3 0.7 0.6 c0.177 0.232-1.065 1.542-0.888 1.774c0.177 0.2 0.5 0.4 0.6 0.617c0.178 0.2 0.976-0.013 1.2 0.2 s0.512 0.3 0.7 0.573c0.179 0.231-0.278 0.952-0.1 1.183c0.179 0.2 0.1 0.7 0.3 0.9 c0.18 0.2 1.056-0.083 1.2 0.147c0.18 0.2 0.6 0.2 0.8 0.463c0.181 0.229-1.446 1.877-1.266 2.1 c0.18 0.2 1.065-0.094 1.2 0.135c0.181 0.2 0.5 0.3 0.7 0.543c0.181 0.2 0.3 0.5 0.5 0.7 c0.182 0.229-0.352 1.026-0.17 1.255s0.711 0.2 0.9 0.41c0.183 0.2 0.5 0.4 0.6 0.6 c0.182 0.229-0.21 0.919-0.027 1.146s2.33-1.124 2.513-0.896c0.184 0.228-0.408 1.078-0.226 1.3 c0.184 0.227-0.23 0.936-0.048 1.163c0.184 0.2 0.6 0.3 0.7 0.523s1.107-0.147 1.3 0.1 c0.185 0.227-0.267 0.97-0.083 1.195c0.185 0.227-0.324 1.017-0.141 1.244c0.185 0.2 1.552-0.511 1.736-0.285 s0.412 0.4 0.6 0.643c0.185 0.226-0.282 0.985-0.098 1.21c0.186 0.2 1.613-0.568 1.798-0.343 c0.186 0.226-0.956 1.541-0.771 1.766c0.186 0.2 0.6 0.3 0.8 0.48c0.186 0.2 0.3 0.5 0.5 0.7 s-0.238 0.952-0.053 1.177s2.298-1.139 2.483-0.914c0.186 0.225-1.673 2.138-1.487 2.363c0.187 0.2 1.438-0.432 1.625-0.208 c0.186 0.225-0.864 1.473-0.678 1.697c0.186 0.2 1.697-0.648 1.883-0.424c0.187 0.225-0.63 1.28-0.444 1.5 c0.187 0.2 0.1 0.7 0.3 0.896s2.102-0.987 2.288-0.763c0.187 0.2 0.5 0.3 0.7 0.6 c0.187 0.225-1.174 1.731-0.987 1.956s2.006-0.908 2.192-0.684c0.187 0.225-0.89 1.499-0.703 1.724s0.975-0.052 1.2 0.2 s1.028-0.094 1.2 0.13c0.186 0.225-1.228 1.777-1.041 2.001s1.286-0.309 1.472-0.084c0.187 0.2 0.1 0.7 0.3 0.9 c0.186 0.2 1.533-0.513 1.72-0.288c0.186 0.2 0.2 0.6 0.4 0.792c0.187 0.2 0.4 0.5 0.6 0.7 c0.187 0.225-0.422 1.106-0.236 1.331c0.187 0.225-0.927 1.525-0.741 1.75c0.187 0.2 1.43-0.426 1.615-0.201 s-0.065 0.8 0.1 1.036s1.288-0.305 1.474-0.08c0.186 0.226-0.978 1.558-0.792 1.783c0.185 0.2 1.887-0.793 2.072-0.567 c0.185 0.226-1.143 1.692-0.958 1.918c0.186 0.2 0.6 0.3 0.7 0.518c0.186 0.2 0.1 0.7 0.2 0.9 c0.185 0.2 0.5 0.3 0.7 0.53c0.185 0.2 1.602-0.553 1.786-0.326c0.184 0.226-0.882 1.468-0.698 1.7 c0.185 0.2 1.772-0.687 1.956-0.46c0.185 0.2 0.9 0 1.1 0.234s-1.542 1.999-1.358 2.226s0.974-0.039 1.2 0.2 c0.183 0.2 1.786-0.685 1.969-0.457c0.183 0.227-1.898 2.272-1.716 2.5s2.495-1.252 2.678-1.024s-0.061 0.8 0.1 1 c0.182 0.229-0.534 1.173-0.352 1.401c0.182 0.2 1.1-0.127 1.3 0.102c0.182 0.229-0.187 0.893-0.005 1.1 c0.181 0.2 0.4 0.4 0.6 0.622c0.181 0.2 0.2 0.6 0.4 0.794c0.181 0.2 1.359-0.314 1.539-0.082 s0.483 0.4 0.7 0.612c0.178 0.233-0.856 1.39-0.68 1.625c0.177 0.2 0 0.7 0.2 1 c0.175 0.2 1.818-0.616 1.992-0.379s-0.524 1.114-0.352 1.351c0.173 0.237-0.584 1.143-0.412 1.4 c0.171 0.2 0.2 0.5 0.4 0.789c0.17 0.2 0.8 0.1 1 0.388c0.168 0.2 0.9 0.1 1 0.3 c0.168 0.24-0.142 0.8 0 1.052c0.167 0.241-0.049 0.7 0.1 0.982c0.165 0.2 1.099-0.041 1.3 0.2 c0.164 0.243-0.231 0.859-0.068 1.103c0.162 0.2 1.114-0.038 1.3 0.207c0.161 0.245-0.774 1.208-0.614 1.5 c0.161 0.2 0.9 0.1 1.1 0.361c0.159 0.246-0.278 0.872-0.12 1.119c0.158 0.2 2.5-0.9 2.657-0.653 c0.157 0.247-2.117 2.036-1.961 2.284c0.157 0.2 2.66-0.981 2.815-0.732c0.156 0.249-1.566 1.669-1.411 1.9 c0.154 0.2 2.268-0.709 2.422-0.459c0.152 0.25-2.058 1.945-1.905 2.196c0.153 0.2 0.3 0.5 0.4 0.8 c0.152 0.3 1.725-0.355 1.875-0.104c0.151 0.251-0.93 1.236-0.779 1.488c0.149 0.3 0.6 0.3 0.7 0.6 c0.148 0.3 1.944-0.461 2.093-0.208s-1.082 1.312-0.935 1.566s2.052-0.509 2.198-0.254c0.147 0.254-1.684 1.648-1.537 1.9 c0.146 0.3 1.917-0.418 2.062-0.162c0.146 0.255-0.025 0.7 0.1 0.948c0.145 0.3 0 0.7 0.1 0.9 c0.145 0.256-0.326 0.857-0.183 1.114s0.734 0.3 0.9 0.52s-0.462 0.927-0.319 1.184c0.142 0.3 0.4 0.4 0.6 0.7 c0.142 0.257-0.306 0.835-0.164 1.093c0.141 0.3 1.649-0.231 1.8 0.027c0.141 0.258-0.021 0.7 0.1 0.9 c0.14 0.3 1.1 0.1 1.2 0.346c0.139 0.3 0.3 0.5 0.4 0.763c0.139 0.3 0.7 0.3 0.8 0.6 c0.139 0.26-1.164 1.285-1.026 1.544s0.069 0.6 0.2 0.887c0.137 0.3 1.455-0.1 1.6 0.16s-1.1 1.242-0.963 1.5 c0.137 0.3 1.594-0.169 1.7 0.092s-0.225 0.78-0.089 1.041s0.216 0.6 0.4 0.812c0.136 0.3 0.1 0.6 0.3 0.8 c0.135 0.3 0.1 0.6 0.2 0.87s-0.777 1.06-0.644 1.322c0.135 0.3 1.796-0.259 1.9 0 c0.135 0.3 1.1 0.1 1.2 0.361c0.134 0.263-0.185 0.755-0.051 1.018c0.133 0.3 0.7 0.3 0.9 0.6 s-1.839 1.589-1.706 1.852c0.133 0.3 0.5 0.4 0.6 0.687c0.133 0.3 1.3 0 1.4 0.3 c0.133 0.263-1.3 1.313-1.168 1.577c0.133 0.3 0.6 0.4 0.7 0.636s0.049 0.6 0.2 0.9 c0.132 0.3 0.6 0.4 0.7 0.623s1.085 0.1 1.2 0.378c0.133 0.3 1.513-0.098 1.6 0.2 c0.131 0.3 0.2 0.5 0.4 0.801c0.132 0.263-0.698 1.007-0.567 1.27c0.132 0.263-0.014 0.7 0.1 0.9 c0.132 0.3 0.8 0.3 0.9 0.535c0.132 0.3 0.1 0.6 0.2 0.888c0.131 0.3 0.7 0.3 0.8 0.6 c0.132 0.264-1.559 1.435-1.428 1.698c0.133 0.3 0.2 0.5 0.4 0.804c0.132 0.3 1.622-0.155 1.8 0.1 c0.132 0.3 1.334-0.013 1.5 0.249c0.132 0.262-0.883 1.098-0.752 1.36c0.132 0.3 0.6 0.3 0.8 0.6 s-0.301 0.807-0.17 1.067c0.132 0.3 0.7 0.3 0.8 0.564c0.132 0.3 0.2 0.6 0.3 0.8 c0.131 0.3 1.2 0.1 1.3 0.323c0.131 0.261-0.744 1.028-0.613 1.291c0.13 0.262-0.242 0.773-0.113 1 c0.13 0.3 0.7 0.3 0.9 0.56c0.129 0.3 0.4 0.4 0.6 0.703c0.128 0.263-1.365 1.314-1.237 1.6 c0.128 0.3 1 0.2 1.1 0.436s1.976-0.299 2.103-0.035c0.126 0.263-0.598 0.935-0.472 1.2 c0.126 0.263-0.012 0.7 0.1 0.917c0.125 0.264-0.563 0.911-0.438 1.176c0.124 0.3 1.2 0.1 1.4 0.3 s-0.08 0.7 0 0.948c0.123 0.3 0.8 0.3 0.9 0.554c0.122 0.265-1.37 1.273-1.247 1.5 c0.121 0.3 2.516-0.511 2.638-0.245c0.121 0.266-0.934 1.069-0.812 1.335s1.091 0.1 1.2 0.416s0.815 0.3 0.9 0.5 c0.119 0.3 0.2 0.5 0.3 0.814c0.118 0.267-0.175 0.718-0.056 0.985c0.118 0.267-0.417 0.826-0.299 1.1 c0.117 0.267-0.488 0.853-0.371 1.12s0.711 0.3 0.8 0.596c0.116 0.3 0.9 0.2 1 0.5 c0.116 0.268-0.895 1.022-0.779 1.292c0.115 0.3 0.2 0.5 0.3 0.817c0.115 0.269-0.286 0.756-0.171 1 c0.114 0.3 2.023-0.223 2.1 0.047c0.114 0.3 0.1 0.6 0.2 0.849c0.113 0.27-0.982 1.046-0.869 1.3 c0.112 0.27-0.164 0.701-0.052 0.971c0.112 0.3 1.4 0 1.5 0.313c0.111 0.3 0.6 0.4 0.7 0.7 c0.11 0.271-0.15 0.694-0.04 0.965c0.11 0.271-0.546 0.853-0.437 1.125c0.11 0.271-0.053 0.7 0.1 0.9 c0.108 0.3 1.72-0.057 1.8 0.215s-0.429 0.801-0.32 1.073c0.107 0.272-0.705 0.908-0.598 1.2 c0.107 0.3 2.093-0.194 2.2 0.079c0.106 0.272-1.839 1.347-1.732 1.62s0.221 0.5 0.3 0.812s1.617 0 1.7 0.3 c0.104 0.3 0.8 0.3 1 0.577c0.104 0.273-2.044 1.405-1.94 1.679c0.104 0.3 2.241-0.223 2.3 0.1 s-1.368 1.142-1.265 1.416c0.103 0.3 0.4 0.5 0.5 0.754c0.102 0.3 0.9 0.3 1 0.6 c0.102 0.274-0.96 0.977-0.858 1.252c0.101 0.3 0.3 0.5 0.4 0.786c0.101 0.3 2.438-0.265 2.5 0 c0.101 0.275-1.919 1.319-1.819 1.595c0.1 0.3 2.237-0.183 2.3 0.093c0.1 0.3 0.3 0.5 0.4 0.8 s-0.954 0.961-0.856 1.238c0.099 0.276-1.254 1.062-1.156 1.339c0.097 0.3 0.2 0.6 0.3 0.8 c0.097 0.3 0.4 0.5 0.5 0.763c0.096 0.3 1.2 0.2 1.3 0.483c0.096 0.277-0.64 0.839-0.544 1.1 c0.095 0.277-0.132 0.662-0.037 0.939c0.095 0.3 2.721-0.304 2.814-0.026c0.094 0.277-0.028 0.6 0.1 0.9 c0.093 0.278-1.257 1.037-1.165 1.315c0.093 0.3 1.5 0.1 1.6 0.408s-1.514 1.115-1.422 1.4 c0.091 0.278-0.374 0.737-0.283 1.016c0.091 0.3 2.745-0.273 2.8 0.006c0.09 0.279-0.944 0.92-0.854 1.2 c0.089 0.279-0.122 0.654-0.033 0.934c0.09 0.279-0.697 0.835-0.609 1.114c0.089 0.3 0.7 0.4 0.8 0.7 c0.088 0.3 0.9 0.3 0.9 0.626c0.087 0.28-0.712 0.835-0.625 1.115c0.087 0.3 0.8 0.4 0.9 0.6 c0.086 0.28-1.073 0.939-0.987 1.22c0.085 0.3 1.4 0.2 1.5 0.452c0.085 0.3 0.1 0.6 0.2 0.9 c0.084 0.3 1.1 0.3 1.1 0.575c0.084 0.281-0.444 0.745-0.361 1.026c0.084 0.3 1.1 0.3 1.2 0.6 c0.083 0.281-0.966 0.895-0.884 1.176c0.082 0.3 1.4 0.2 1.5 0.486s-1.312 0.99-1.23 1.271s1.821 0.1 1.9 0.4 c0.08 0.3 0.2 0.6 0.2 0.849s-1.991 1.173-1.912 1.456c0.08 0.3 0.6 0.4 0.7 0.7 c0.078 0.3 1.7 0.1 1.8 0.419s-0.936 0.865-0.857 1.148c0.077 0.3 0.2 0.6 0.2 0.8 c0.076 0.283-1.058 0.893-0.981 1.176s2.153 0 2.2 0.313c0.076 0.283-1.751 1.073-1.676 1.4 c0.075 0.284-0.245 0.669-0.171 0.953c0.075 0.3 2.1 0.1 2.2 0.341c0.074 0.3 1 0.3 1.1 0.6 s-2.099 1.146-2.025 1.43c0.072 0.285-0.232 0.664-0.16 0.948c0.072 0.3 1.6 0.2 1.7 0.5 c0.072 0.285-1.506 0.983-1.435 1.268s2.498-0.017 2.6 0.268c0.07 0.285-0.901 0.827-0.831 1.1 c0.069 0.285-1.135 0.878-1.065 1.163c0.068 0.3 2.2 0.1 2.3 0.348c0.068 0.285-0.852 0.807-0.784 1.1 c0.067 0.3 1 0.4 1.1 0.641c0.067 0.286-0.43 0.705-0.362 0.991c0.066 0.3 1.1 0.4 1.1 0.6 c0.065 0.286-2.404 1.15-2.34 1.437c0.065 0.3 0.3 0.5 0.3 0.822c0.064 0.3 2.5 0 2.5 0.3 c0.063 0.287-1.89 1.022-1.826 1.308c0.063 0.3 0.6 0.5 0.6 0.758s1.714 0.2 1.8 0.5 c0.062 0.287-1.468 0.917-1.406 1.204c0.062 0.3 0.5 0.5 0.6 0.776c0.062 0.3 0 0.6 0.1 0.9 c0.061 0.288-0.447 0.692-0.388 0.979s1.396 0.3 1.5 0.599c0.059 0.3 0.5 0.5 0.6 0.779s-0.887 0.779-0.829 1.1 c0.058 0.288-0.676 0.732-0.618 1.02c0.057 0.3 0.2 0.6 0.3 0.841c0.056 0.288-0.168 0.629-0.112 0.9 s1.208 0.4 1.3 0.652c0.055 0.289-0.836 0.754-0.782 1.042c0.055 0.3 1.5 0.3 1.5 0.6 c0.054 0.289-1.316 0.84-1.264 1.129c0.054 0.3 0.3 0.5 0.4 0.819c0.052 0.3 1.8 0.3 1.8 0.6 c0.052 0.289-1.972 0.945-1.921 1.234s0.919 0.4 1 0.723c0.051 0.289-0.524 0.684-0.476 1 c0.05 0.3 2.4 0.2 2.5 0.473c0.049 0.29-2.364 0.991-2.316 1.28c0.048 0.3 0.6 0.5 0.6 0.8 c0.048 0.3 0.2 0.6 0.2 0.856s0.994 0.4 1 0.724c0.046 0.3 1 0.4 1 0.7 c0.045 0.29-1.536 0.831-1.491 1.121c0.044 0.3 1.7 0.3 1.7 0.631s-1.714 0.851-1.671 1.141s0.175 0.6 0.2 0.9 c0.042 0.291-0.31 0.638-0.268 0.929c0.042 0.3 0.1 0.6 0.1 0.866c0.041 0.3 0.9 0.5 1 0.8 c0.04 0.3 0.1 0.6 0.1 0.871c0.04 0.291-1.076 0.735-1.038 1.026c0.039 0.3 2.4 0.3 2.4 0.6 s-2.29 0.887-2.253 1.178c0.037 0.3 0.2 0.6 0.2 0.859s2.107 0.3 2.1 0.623c0.035 0.292-2.259 0.863-2.224 1.2 s0.175 0.6 0.2 0.859s1.213 0.4 1.2 0.739c0.033 0.292-0.413 0.635-0.381 0.927s0.087 0.6 0.1 0.9 c0.031 0.3 0.6 0.5 0.6 0.819s1.647 0.4 1.7 0.712c0.029 0.292-1.192 0.712-1.163 1.003s-0.737 0.662-0.708 1 c0.028 0.292-0.691 0.65-0.664 0.942s0.175 0.6 0.2 0.862c0.026 0.3 1.7 0.4 1.7 0.7 c0.026 0.3 0.3 0.6 0.3 0.857c0.025 0.292-0.635 0.645-0.61 0.937c0.024 0.292-1.005 0.671-0.98 1 c0.023 0.3 1.9 0.4 1.9 0.726c0.022 0.292-2.168 0.751-2.146 1.043c0.021 0.3 1.2 0.5 1.2 0.8 c0.021 0.3 1 0.5 1 0.813c0.02 0.292-1.899 0.715-1.88 1.007c0.02 0.3 1.9 0.5 1.9 0.8 c0.018 0.293-0.488 0.618-0.471 0.91c0.018 0.3 0.3 0.6 0.3 0.863s-1.016 0.643-0.999 0.9 c0.016 0.3 1.1 0.5 1.1 0.817c0.015 0.3 0.7 0.6 0.7 0.847c0.015 0.292-0.399 0.607-0.386 0.9 c0.013 0.292-1.178 0.635-1.166 0.927c0.012 0.3 0.3 0.6 0.3 0.864c0.012 0.292-0.638 0.604-0.628 0.9 c0.01 0.3 1.6 0.5 1.6 0.808c0.016 0.281-1.674 0.69-1.65 0.99c0.02 0.3 0.7 0.5 0.7 0.8 c0.025 0.283-0.559 0.642-0.528 0.939c0.028 0.3 2.5 0.3 2.6 0.61c0.032 0.285-2.394 0.857-2.358 1.2 c0.034 0.3 0.5 0.5 0.6 0.822c0.036 0.3 1.6 0.4 1.6 0.671c0.039 0.285-1.564 0.801-1.522 1.1 c0.04 0.3 1.1 0.4 1.1 0.724c0.042 0.286-0.443 0.654-0.399 0.947c0.043 0.286-1.002 0.746-0.957 1 c0.045 0.3 1.3 0.4 1.3 0.682c0.046 0.3 0.1 0.6 0.1 0.872c0.047 0.286-0.465 0.667-0.417 1 c0.048 0.3 1.9 0.3 2 0.559c0.049 0.287-1.304 0.816-1.253 1.106c0.05 0.3 1.8 0.3 1.8 0.6 c0.05 0.285-0.694 0.713-0.643 1.003c0.051 0.3 0.5 0.5 0.6 0.789c0.052 0.285-0.039 0.6 0 0.9 c0.053 0.286-0.227 0.633-0.172 0.922c0.053 0.286-0.571 0.7-0.517 0.989c0.054 0.3 0.7 0.5 0.8 0.7 c0.055 0.286-1.454 0.873-1.398 1.161c0.055 0.3 2.2 0.2 2.2 0.462c0.055 0.283-1.915 0.963-1.858 1.2 c0.055 0.3 0.7 0.5 0.8 0.738c0.056 0.3 1.9 0.2 2 0.496c0.057 0.3 0.3 0.5 0.3 0.8 c0.057 0.283-1.424 0.875-1.366 1.161c0.057 0.3 0.8 0.4 0.9 0.715c0.058 0.283-1.696 0.937-1.638 1.2 c0.058 0.3 0.2 0.6 0.2 0.847c0.059 0.3 1.5 0.3 1.5 0.574c0.058 0.3 0.9 0.4 0.9 0.7 c0.059 0.283-1.561 0.917-1.501 1.203c0.06 0.3 0 0.6 0.1 0.873c0.06 0.3 1.9 0.2 1.9 0.5 c0.06 0.284-2.087 1.032-2.026 1.318c0.06 0.3 2 0.2 2 0.463c0.06 0.3 0.2 0.5 0.3 0.8 c0.061 0.284-0.286 0.656-0.226 0.942c0.061 0.283-0.423 0.685-0.361 0.971c0.061 0.284-0.098 0.616-0.037 0.9 c0.062 0.284-0.492 0.702-0.431 0.988c0.062 0.3 0.1 0.6 0.1 0.872c0.062 0.3 2.2 0.1 2.3 0.4 c0.062 0.284-2.223 1.08-2.16 1.366c0.062 0.3 2.5 0.1 2.5 0.348c0.062 0.284-0.851 0.783-0.788 1.1 c0.062 0.3 1.5 0.3 1.6 0.545c0.062 0.284-2.082 1.055-2.019 1.341c0.062 0.3 1 0.4 1.1 0.7 c0.062 0.3 0.6 0.5 0.7 0.744c0.063 0.285-0.505 0.71-0.441 0.995c0.062 0.3 1.7 0.2 1.8 0.5 c0.063 0.284-1.513 0.935-1.449 1.221c0.063 0.284-0.477 0.705-0.413 0.991c0.064 0.3 1.8 0.2 1.8 0.5 c0.064 0.284-0.591 0.731-0.526 1.018c0.063 0.3 1.1 0.4 1.2 0.64c0.064 0.284-1.673 0.975-1.608 1.3 c0.064 0.3 2.1 0.1 2.1 0.419c0.064 0.284-0.047 0.6 0 0.896c0.064 0.285-1.494 0.937-1.43 1.2 s1.95 0.2 2 0.443c0.064 0.3 0.3 0.5 0.4 0.808s-2.396 1.141-2.332 1.426c0.064 0.3 2.1 0.1 2.1 0.4 s0.069 0.6 0.1 0.866c0.064 0.284-1.885 1.027-1.819 1.312c0.064 0.3 1.3 0.3 1.3 0.6 c0.065 0.3 0.9 0.4 1 0.675c0.064 0.3 0.8 0.4 0.9 0.692c0.064 0.285-2.014 1.059-1.948 1.3 c0.064 0.3 0.2 0.6 0.2 0.842c0.065 0.3 1.5 0.3 1.5 0.546c0.064 0.285-1.469 0.936-1.403 1.2 s-0.394 0.689-0.327 0.975c0.064 0.3 2.882-0.062 2.9 0.224c0.065 0.284-1.264 0.89-1.198 1.175s0.654 0.5 0.7 0.7 c0.065 0.284-0.611 0.739-0.545 1.024c0.065 0.3 0.3 0.5 0.4 0.807c0.065 0.3 0.8 0.4 0.8 0.7 c0.065 0.285-0.088 0.621-0.021 0.906c0.065 0.3 0.6 0.5 0.7 0.748s-1.229 0.882-1.164 1.2 c0.066 0.3 2 0.1 2.1 0.411c0.066 0.285-0.925 0.815-0.858 1.101c0.065 0.285-0.024 0.6 0 0.9 c0.065 0.285-0.965 0.823-0.899 1.108c0.066 0.3 0.5 0.5 0.6 0.771c0.066 0.3 0.5 0.5 0.5 0.8 c0.066 0.3 1.6 0.2 1.7 0.519c0.065 0.285-1.612 0.973-1.546 1.259c0.065 0.3 0.5 0.5 0.5 0.8 c0.066 0.3 0.8 0.4 0.9 0.699c0.066 0.3 0.8 0.4 0.8 0.713c0.066 0.285-0.541 0.729-0.476 1 c0.066 0.3 0.3 0.5 0.3 0.826s-0.325 0.679-0.259 0.965s0.129 0.6 0.2 0.859s-0.139 0.635-0.072 0.9 s0.167 0.6 0.2 0.851s0.795 0.4 0.9 0.705c0.066 0.287-1.805 1.02-1.74 1.306c0.066 0.3 2.977-0.083 3 0.2 c0.066 0.287-0.148 0.639-0.082 0.925c0.066 0.3 0.1 0.6 0.2 0.866c0.066 0.3 0.4 0.5 0.5 0.8 c0.066 0.287-0.167 0.645-0.101 0.932c0.065 0.286-1.857 1.031-1.791 1.316c0.066 0.3 0.9 0.4 0.9 0.7 c0.066 0.287-0.99 0.832-0.925 1.117c0.066 0.3 0.7 0.4 0.7 0.733c0.066 0.3 1.9 0.2 2 0.4 c0.066 0.3 0.1 0.6 0.2 0.856s-1.834 1.027-1.768 1.313c0.065 0.3 1.8 0.2 1.9 0.5 c0.066 0.286-1.281 0.897-1.215 1.184c0.065 0.3 1.7 0.2 1.8 0.491s-1.666 0.986-1.601 1.3 c0.066 0.3 1.5 0.3 1.5 0.556c0.065 0.287-1.231 0.884-1.166 1.17c0.065 0.287-0.271 0.668-0.205 1 c0.064 0.3 1.9 0.2 1.9 0.46s-0.282 0.667-0.217 0.953c0.066 0.287-0.527 0.724-0.462 1.011s-0.67 0.756-0.604 1 c0.065 0.3 0.3 0.5 0.4 0.811c0.065 0.3 0.2 0.6 0.3 0.845c0.065 0.3 1.1 0.4 1.1 0.7 c0.064 0.287-1.07 0.845-1.005 1.132c0.064 0.3 0.1 0.6 0.2 0.87c0.065 0.3 0.8 0.4 0.9 0.7 c0.064 0.3 2 0.2 2 0.446c0.064 0.3 0 0.6 0.1 0.889c0.065 0.287-0.611 0.741-0.547 1 s-0.021 0.6 0 0.893c0.064 0.3 1.3 0.3 1.4 0.601c0.064 0.287-2.188 1.093-2.125 1.4 c0.064 0.3 0.3 0.5 0.4 0.822c0.063 0.3 0.4 0.5 0.5 0.8c0.064 0.3 0.5 0.5 0.6 0.8 c0.063 0.287-0.65 0.748-0.587 1.034c0.064 0.3 0.6 0.5 0.7 0.757c0.063 0.3 0.8 0.4 0.8 0.7 c0.063 0.288-0.188 0.644-0.124 0.929c0.062 0.3 0.8 0.4 0.9 0.708c0.062 0.287-0.912 0.803-0.85 1.1 c0.063 0.3 2 0.2 2.1 0.438c0.063 0.288-1.15 0.855-1.088 1.142c0.062 0.3 0.4 0.5 0.5 0.8 c0.062 0.3 1 0.4 1 0.678c0.062 0.287-1.816 0.994-1.755 1.28c0.062 0.3 0.2 0.6 0.2 0.8 c0.062 0.3 2.1 0.1 2.2 0.432c0.062 0.288-2.385 1.112-2.323 1.398c0.062 0.3 0.9 0.4 1 0.7 c0.062 0.3 1.8 0.2 1.9 0.506c0.062 0.288-1.664 0.954-1.604 1.24c0.061 0.3 1.3 0.3 1.4 0.6 c0.061 0.288-1.462 0.907-1.402 1.192c0.061 0.3 0.2 0.6 0.2 0.846c0.06 0.3 1.6 0.3 1.6 0.6 c0.06 0.288-1.88 0.986-1.82 1.272c0.059 0.3 0.9 0.4 1 0.69c0.059 0.288-0.364 0.673-0.306 1 c0.059 0.3 1.4 0.3 1.5 0.594c0.059 0.288-1.085 0.817-1.027 1.104c0.059 0.3 0.1 0.6 0.1 0.9 c0.058 0.3 1.8 0.2 1.9 0.522c0.058 0.29-1.032 0.806-0.976 1.094c0.057 0.3 1.9 0.2 1.9 0.5 c0.057 0.291-1.591 0.912-1.536 1.199c0.057 0.3 0.9 0.4 1 0.706c0.056 0.291-1.743 0.931-1.688 1.2 c0.055 0.3 2.5 0.1 2.6 0.416c0.055 0.291-0.845 0.758-0.791 1.045c0.054 0.29-0.561 0.701-0.508 1 c0.053 0.3 1.2 0.4 1.2 0.673c0.053 0.291-0.329 0.657-0.277 0.943c0.052 0.29-0.971 0.769-0.92 1.1 c0.051 0.3 2.2 0.2 2.3 0.495c0.051 0.291-0.634 0.706-0.585 0.991c0.05 0.291-1.549 0.856-1.501 1.1 c0.049 0.3 0.9 0.4 0.9 0.733c0.047 0.3 1.4 0.4 1.4 0.66c0.047 0.29-1.363 0.806-1.319 1.1 c0.045 0.3 2.3 0.2 2.3 0.534c0.044 0.292-1.512 0.819-1.471 1.104c0.043 0.3 0.1 0.6 0.1 0.9 c0.041 0.3 1.3 0.4 1.3 0.709c0.039 0.294-1.903 0.839-1.868 1.123c0.037 0.3 1.7 0.4 1.7 0.7 c0.035 0.3 0.4 0.6 0.4 0.841c0.032 0.296-0.748 0.674-0.721 0.957c0.029 0.3 1.3 0.5 1.4 0.8 c0.025 0.298-0.327 0.636-0.308 0.917c0.021 0.299-0.705 0.646-0.69 0.925c0.015 0.3-1.208 0.712-1.2 1 c0.025 0 0.688-0.011 0.095-0.004c-0.242 0.004-0.535 0.005-0.877 0.007c-0.262 0.002-0.56-1.473-0.88-1.472 c-0.271 0.001-0.56 1.707-0.872 1.707c-0.275 0.001-0.567-0.073-0.875-0.073c-0.278 0-0.569-1.024-0.874-1.024 c-0.28 0-0.573 1.421-0.875 1.419c-0.282 0-0.573-0.703-0.874-0.703c-0.283-0.001-0.579 1.178-0.879 1.2 c-0.284-0.001-0.575-0.172-0.875-0.173c-0.285-0.001-0.572-1.851-0.871-1.852c-0.286 0-0.576-0.144-0.874-0.145 c-0.287-0.001-0.58 0.184-0.878 0.183c-0.287-0.001-0.582 0.783-0.879 0.781c-0.289-0.001-0.584 0.788-0.881 0.8 c-0.288-0.001-0.58-0.532-0.877-0.534c-0.289-0.001-0.581 0.018-0.878 0.017c-0.289-0.002-0.581 0.175-0.878 0.2 c-0.289-0.001-0.581-0.12-0.877-0.121c-0.289-0.001-0.585 0.475-0.88 0.474c-0.29-0.002-0.571-2.052-0.867-2.053 c-0.289-0.002-0.584 0.456-0.88 0.454c-0.289-0.001-0.58-0.106-0.876-0.107c-0.289-0.002-0.593 2.403-0.889 2.4 c-0.289-0.001-0.572-1.906-0.867-1.907c-0.29-0.002-0.59 1.672-0.885 1.67c-0.29-0.001-0.58-0.398-0.874-0.4 c-0.29-0.001-0.572-2.088-0.867-2.089c-0.289-0.002-0.583 0.323-0.878 0.322c-0.289-0.002-0.593 2.052-0.887 2.1 c-0.29-0.002-0.579-0.46-0.873-0.461c-0.29-0.002-0.585 0.415-0.88 0.414c-0.289-0.002-0.579-0.449-0.873-0.45 c-0.29-0.002-0.58-0.683-0.874-0.685c-0.29-0.001-0.573-1.334-0.867-1.336c-0.29-0.002-0.588 0.992-0.882 1 c-0.291-0.002-0.582-0.473-0.876-0.474c-0.29-0.002-0.589 1.35-0.883 1.348c-0.291-0.001-0.579-0.681-0.872-0.683 c-0.291-0.002-0.589 1.203-0.883 1.202c-0.29-0.002-0.586 0.274-0.88 0.272c-0.291-0.002-0.57-2.18-0.864-2.181 c-0.29-0.002-0.585 0.652-0.879 0.65c-0.291-0.002-0.59 1.462-0.883 1.46c-0.291-0.001-0.581-0.726-0.875-0.728 c-0.291-0.002-0.586 0.437-0.879 0.435c-0.291-0.002-0.579-0.383-0.873-0.384c-0.29-0.002-0.574-1.448-0.867-1.45 c-0.291-0.002-0.594 1.535-0.888 1.533c-0.291-0.002-0.572-1.59-0.865-1.592c-0.291-0.002-0.587 0.644-0.881 0.6 c-0.291-0.002-0.59 0.948-0.883 0.946c-0.291-0.002-0.587 0.672-0.881 0.67c-0.291-0.002-0.582-0.223-0.875-0.225 c-0.29-0.002-0.574-0.855-0.866-0.857c-0.289-0.002-0.572-1.461-0.863-1.463c-0.29-0.001-0.587 1.125-0.878 1.1 c-0.29-0.002-0.575-0.816-0.866-0.818c-0.29-0.002-0.581-0.023-0.872-0.025c-0.29-0.002-0.584 0.404-0.875 0.4 c-0.29-0.002-0.592 1.61-0.884 1.608c-0.29-0.002-0.565-2.203-0.857-2.205c-0.29-0.002-0.58-0.057-0.873-0.059 c-0.289-0.002-0.595 2.236-0.887 2.234c-0.29-0.002-0.567-2.001-0.859-2.003c-0.29-0.002-0.58-0.082-0.872-0.084 c-0.29-0.002-0.591 1.521-0.883 1.52c-0.29-0.002-0.583 0.071-0.875 0.068c-0.29-0.002-0.584 0.651-0.876 0.6 c-0.29-0.002-0.567-2.04-0.859-2.042c-0.29-0.002-0.594 1.897-0.886 1.896c-0.29-0.002-0.574-1.085-0.866-1.087 c-0.29-0.002-0.571-1.574-0.862-1.576s-0.6 2.403-0.892 2.4c-0.29-0.002-0.583 0.441-0.875 0.4 c-0.291-0.002-0.567-2.075-0.859-2.077c-0.29-0.002-0.578-0.581-0.87-0.583c-0.29-0.002-0.599 2.345-0.891 2.3 c-0.291-0.003-0.572-1.238-0.864-1.24c-0.291-0.002-0.58-0.256-0.872-0.258c-0.291-0.002-0.58-0.39-0.872-0.392 c-0.29-0.002-0.584 0.276-0.876 0.274c-0.29-0.002-0.585 0.457-0.877 0.455c-0.29-0.002-0.572-1.369-0.864-1.371 c-0.291-0.002-0.586 0.491-0.878 0.489c-0.291-0.002-0.587 0.724-0.879 0.722c-0.291-0.002-0.58-0.33-0.872-0.332 c-0.291-0.003-0.59 0.998-0.881 0.996s-0.576-1.15-0.868-1.152c-0.291-0.002-0.583 0.345-0.876 0.3 c-0.291-0.002-0.594 1.612-0.886 1.61c-0.291-0.002-0.584 0-0.876-0.002c-0.291-0.003-0.566-2.209-0.858-2.211 c-0.291-0.002-0.584 0.143-0.876 0.141c-0.291-0.002-0.591 1.144-0.883 1.142c-0.291-0.002-0.58-0.237-0.873-0.239 c-0.291-0.002-0.59 1.165-0.883 1.163c-0.291-0.002-0.565-2.593-0.857-2.595s-0.593 1.546-0.886 1.5 c-0.291-0.002-0.576-1.064-0.868-1.066c-0.291-0.002-0.593 1.477-0.885 1.475c-0.291-0.002-0.576-1.004-0.868-1.006 s-0.581-0.377-0.874-0.379c-0.291-0.002-0.574-0.873-0.866-0.875c-0.291-0.003-0.596 1.447-0.889 1.4 c-0.291-0.002-0.571-1.401-0.863-1.403c-0.291-0.003-0.594 1.249-0.887 1.247c-0.291-0.002-0.573-1.105-0.865-1.108 c-0.292-0.002-0.595 1.33-0.887 1.328c-0.291-0.002-0.574-1.396-0.867-1.397c-0.291-0.002-0.602 2.474-0.894 2.5 c-0.292-0.003-0.581-0.104-0.873-0.105s-0.57-1.904-0.862-1.907c-0.292-0.002-0.593 1.201-0.885 1.199s-0.587 0.336-0.879 0.3 s-0.566-2.167-0.858-2.17c-0.292-0.002-0.591 0.649-0.883 0.647s-0.593 1.302-0.885 1.3s-0.572-1.503-0.864-1.505 c-0.292-0.003-0.585-0.206-0.878-0.208c-0.291-0.002-0.597 2.155-0.89 2.153c-0.292-0.002-0.577-1.016-0.869-1.018 c-0.292-0.003-0.583-0.192-0.875-0.194s-0.596 1.663-0.889 1.661c-0.292-0.002-0.566-2.359-0.858-2.362 c-0.292-0.002-0.592 1-0.885 0.998c-0.291-0.003-0.576-1.042-0.869-1.044c-0.292-0.002-0.584 0.163-0.877 0.2 c-0.291-0.002-0.584-0.035-0.876-0.037c-0.292-0.003-0.599 2.026-0.892 2.024c-0.292-0.002-0.566-2.683-0.858-2.685 s-0.583 0.208-0.876 0.205c-0.292-0.002-0.595 1.309-0.888 1.307c-0.292-0.003-0.579-0.727-0.871-0.729s-0.6 2.093-0.892 2.1 s-0.58-0.835-0.872-0.838c-0.292-0.002-0.569-1.71-0.862-1.712c-0.292-0.003-0.593 1.048-0.886 1 c-0.292-0.003-0.577-1.062-0.87-1.064c-0.292-0.002-0.596 1.649-0.889 1.647c-0.291-0.002-0.592 0.843-0.885 0.8 c-0.292-0.002-0.575-1.058-0.868-1.06c-0.292-0.003-0.593 1.126-0.886 1.124c-0.292-0.003-0.573-1.509-0.865-1.511 s-0.578-1.032-0.87-1.034c-0.293-0.002-0.602 2.233-0.895 2.23c-0.292-0.002-0.579-0.574-0.872-0.577 c-0.292-0.002-0.58-0.512-0.873-0.514c-0.292-0.003-0.581-0.488-0.873-0.49c-0.293-0.002-0.579-0.86-0.872-0.862 c-0.292-0.002-0.583-0.213-0.876-0.215c-0.292-0.002-0.604 2.563-0.896 2.561c-0.292-0.002-0.576-0.949-0.869-0.952 c-0.292-0.002-0.59 0.563-0.882 0.562c-0.293-0.003-0.585-0.016-0.878-0.018c-0.292-0.003-0.57-2.014-0.862-2.016 c-0.293-0.002-0.599 2.057-0.892 2.055c-0.292-0.002-0.571-2.098-0.864-2.1c-0.292-0.002-0.601 2.324-0.893 2.3 c-0.293-0.002-0.571-1.77-0.864-1.772c-0.292-0.002-0.596 1.438-0.888 1.435c-0.292-0.002-0.581-0.358-0.873-0.36 c-0.292-0.003-0.588 0.54-0.88 0.538c-0.291-0.003-0.583 0.134-0.875 0.132s-0.567-2.424-0.859-2.426s-0.6 2.236-0.892 2.2 s-0.577-0.977-0.869-0.979s-0.575-1.02-0.867-1.022c-0.292-0.002-0.584 0.021-0.876 0.019c-0.292-0.002-0.584 0.026-0.876 0 c-0.292-0.002-0.605 2.492-0.897 2.49c-0.292-0.003-0.585 0.094-0.877 0.092c-0.292-0.003-0.566-2.082-0.859-2.084 c-0.292-0.003-0.59 0.703-0.882 0.701c-0.292-0.003-0.592 1.221-0.884 1.219s-0.569-2.364-0.861-2.366s-0.6 2.332-0.892 2.3 s-0.572-1.95-0.864-1.952s-0.59 0.988-0.883 0.986c-0.292-0.002-0.569-1.845-0.861-1.848c-0.292-0.002-0.606 2.574-0.898 2.6 c-0.292-0.002-0.563-2.504-0.856-2.507c-0.292-0.002-0.607 2.821-0.9 2.818c-0.292-0.002-0.572-1.432-0.865-1.435 c-0.292-0.002-0.581-0.332-0.874-0.335c-0.292-0.002-0.594 1.162-0.887 1.16c-0.292-0.003-0.582-0.307-0.875-0.309 c-0.292-0.003-0.578-0.816-0.87-0.818c-0.292-0.003-0.594 1.065-0.886 1.063c-0.293-0.003-0.585 0.015-0.878 0 c-0.292-0.003-0.587 0.306-0.88 0.304c-0.292-0.003-0.562-2.616-0.854-2.618c-0.293-0.003-0.6 1.746-0.893 1.7 c-0.292-0.003-0.583-0.262-0.875-0.264c-0.293-0.002-0.585 0.042-0.878 0.04c-0.292-0.002-0.589 0.589-0.881 0.6 c-0.293-0.002-0.591 0.836-0.884 0.834s-0.578-1.048-0.871-1.05c-0.292-0.002-0.58-0.739-0.872-0.741 c-0.293-0.002-0.594 1.146-0.886 1.144c-0.293-0.002-0.57-2.161-0.863-2.163s-0.588 0.424-0.881 0.422s-0.592 1.021-0.885 1 s-0.583-0.243-0.876-0.245s-0.583-0.355-0.876-0.357s-0.591 0.862-0.884 0.86s-0.575-1.614-0.867-1.616 c-0.293-0.002-0.6 2.061-0.893 2.059c-0.292-0.002-0.59 0.411-0.883 0.409c-0.292-0.003-0.569-2.045-0.862-2.047 s-0.588 0.419-0.88 0.417c-0.293-0.003-0.587 0.019-0.88 0.017c-0.292-0.003-0.597 1.453-0.89 1.5 c-0.293-0.003-0.58-0.755-0.873-0.757c-0.292-0.003-0.576-0.996-0.869-0.998c-0.293-0.003-0.592 0.695-0.885 0.7 c-0.293-0.003-0.587 0.267-0.88 0.265c-0.293-0.003-0.581-0.511-0.874-0.513c-0.292-0.003-0.59 0.604-0.883 0.6 c-0.292-0.003-0.586 0.099-0.878 0.097c-0.293-0.003-0.592 0.813-0.885 0.812c-0.293-0.003-0.569-1.879-0.862-1.881 c-0.292-0.003-0.594 1.091-0.887 1.088c-0.293-0.002-0.591 0.67-0.884 0.667c-0.293-0.002-0.57-1.814-0.863-1.817 c-0.293-0.002-0.581-0.566-0.873-0.569c-0.293-0.002-0.593 0.78-0.886 0.777c-0.292-0.002-0.585 0.066-0.878 0.1 c-0.293-0.002-0.575-1.229-0.868-1.232c-0.293-0.002-0.595 1.114-0.888 1.111c-0.293-0.002-0.592 0.774-0.885 0.8 c-0.292-0.002-0.577-1.136-0.87-1.138s-0.601 2.063-0.894 2.062s-0.57-2.234-0.863-2.236s-0.585-0.239-0.878-0.241 c-0.292-0.002-0.581-0.211-0.874-0.213c-0.293-0.003-0.604 2.235-0.897 2.233c-0.293-0.003-0.578-0.981-0.871-0.983 c-0.293-0.003-0.599 1.369-0.892 1.367c-0.293-0.003-0.57-1.877-0.863-1.879c-0.293-0.003-0.6 1.561-0.893 1.6 c-0.293-0.003-0.577-1.125-0.87-1.128c-0.294-0.002-0.589 0.233-0.882 0.23c-0.293-0.002-0.577-1.109-0.87-1.112 c-0.293-0.002-0.594 0.893-0.887 0.89c-0.294-0.002-0.593 0.896-0.886 0.894c-0.294-0.002-0.579-1.129-0.872-1.131 s-0.59 0.46-0.883 0.458c-0.294-0.002-0.595 1.23-0.889 1.229s-0.588-0.12-0.881-0.122c-0.293-0.003-0.583-0.486-0.876-0.488 c-0.293-0.003-0.572-1.805-0.865-1.807c-0.293-0.003-0.583-0.422-0.877-0.424c-0.293-0.003-0.592 0.634-0.885 0.6 c-0.293-0.003-0.604 1.991-0.897 1.988c-0.293-0.002-0.577-1.245-0.87-1.248c-0.293-0.002-0.597 1.167-0.89 1.2 c-0.293-0.002-0.574-1.535-0.867-1.538c-0.293-0.002-0.586-0.171-0.88-0.173s-0.585-0.311-0.879-0.312 c-0.293-0.002-0.595 1.182-0.888 1.18s-0.58-0.965-0.873-0.967c-0.294-0.003-0.585-0.34-0.878-0.342 c-0.294-0.003-0.587-0.041-0.88-0.043c-0.293-0.003-0.589 0.144-0.882 0.142c-0.294-0.003-0.606 2.194-0.899 2.2 c-0.293-0.002-0.58-0.926-0.873-0.929c-0.294-0.002-0.579-1.028-0.873-1.031c-0.294-0.002-0.587 0.025-0.881 0 c-0.293-0.002-0.591 0.396-0.885 0.394s-0.581-0.952-0.875-0.954c-0.293-0.002-0.599 1.804-0.893 1.8 c-0.294-0.002-0.591 0.259-0.885 0.257c-0.294-0.003-0.59 0.359-0.884 0.357c-0.294-0.003-0.572-1.93-0.866-1.932 c-0.294-0.003-0.589 0.202-0.883 0.2c-0.294-0.003-0.594 0.76-0.888 0.757c-0.294-0.002-0.576-1.423-0.87-1.426 c-0.294-0.002-0.605 2.079-0.899 2.076c-0.294-0.002-0.573-2.001-0.866-2.003c-0.294-0.002-0.595 1.067-0.889 1.1 s-0.591 0.291-0.884 0.289c-0.294-0.003-0.591 0.348-0.885 0.346c-0.294-0.003-0.584-0.437-0.878-0.438 c-0.294-0.003-0.585-0.241-0.879-0.243c-0.294-0.003-0.593 0.587-0.887 0.584c-0.293-0.002-0.574-1.551-0.867-1.554 c-0.293-0.002-0.587-0.067-0.88-0.07c-0.293-0.002-0.597 1.231-0.891 1.229c-0.293-0.002-0.581-0.805-0.875-0.807 c-0.294-0.002-0.597 1.398-0.89 1.396s-0.588 0.206-0.882 0.204c-0.294-0.002-0.573-1.998-0.866-2 c-0.293-0.003-0.593 0.663-0.886 0.661c-0.294-0.003-0.581-0.864-0.874-0.866c-0.293-0.003-0.586-0.119-0.879-0.121 c-0.294-0.003-0.601 1.647-0.895 1.645c-0.294-0.002-0.583-0.517-0.876-0.52c-0.293-0.002-0.591 0.443-0.884 0.4 c-0.294-0.002-0.577-1.294-0.87-1.297c-0.294-0.002-0.592 0.476-0.885 0.474s-0.593 0.841-0.887 0.839s-0.583-0.576-0.876-0.578 c-0.294-0.002-0.577-1.291-0.87-1.293c-0.294-0.003-0.597 1.105-0.89 1.104c-0.294-0.003-0.601 1.587-0.894 1.6 c-0.294-0.003-0.577-1.3-0.87-1.302c-0.294-0.003-0.587 0.016-0.881 0.013c-0.294-0.002-0.58-0.951-0.873-0.954 c-0.293-0.002-0.588 0.043-0.881 0.04c-0.293-0.002-0.591 0.41-0.884 0.407c-0.294-0.002-0.582-0.927-0.875-0.929 c-0.294-0.002-0.604 2.413-0.897 2.411c-0.294-0.002-0.576-1.695-0.87-1.697c-0.294-0.002-0.582-0.847-0.875-0.849 c-0.294-0.002-0.593 0.921-0.886 0.919c-0.294-0.003-0.603 1.877-0.896 1.875c-0.294-0.003-0.584-0.356-0.878-0.358 c-0.294-0.003-0.58-0.976-0.874-0.978c-0.293-0.003-0.588 0.122-0.882 0.12c-0.294-0.003-0.58-0.958-0.873-0.961 c-0.294-0.002-0.592 0.62-0.886 0.617c-0.294-0.002-0.578-1.188-0.872-1.19c-0.293-0.002-0.604 1.989-0.897 2 c-0.294-0.002-0.573-1.71-0.867-1.713c-0.294-0.002-0.6 1.562-0.893 1.56c-0.294-0.002-0.591 0.547-0.885 0.5 s-0.585-0.294-0.879-0.296c-0.294-0.002-0.583-0.727-0.876-0.729c-0.294-0.002-0.581-0.977-0.875-0.979s-0.59 0.478-0.883 0.5 c-0.294-0.003-0.588 0.021-0.881 0.02c-0.294-0.003-0.589 0.174-0.883 0.172c-0.294-0.003-0.578-1.17-0.871-1.172 c-0.294-0.003-0.609 2.621-0.903 2.619c-0.294-0.003-0.572-1.929-0.865-1.931c-0.294-0.003-0.594 0.83-0.888 0.8 c-0.294-0.003-0.6 1.358-0.893 1.355c-0.294-0.002-0.58-0.986-0.873-0.989c-0.294-0.002-0.587 0.016-0.881 0 c-0.294-0.002-0.595 0.878-0.889 0.875c-0.294-0.002-0.568-2.326-0.862-2.329c-0.294-0.002-0.603 1.77-0.896 1.8 c-0.294-0.002-0.588 0.074-0.881 0.071c-0.294-0.002-0.588 0.024-0.881 0.021c-0.294-0.002-0.587 0.13-0.88 0.1 c-0.294-0.002-0.582-0.896-0.875-0.898c-0.294-0.002-0.579-1.393-0.872-1.395c-0.294-0.002-0.598 1.584-0.892 1.6 c-0.294-0.002-0.582-0.911-0.875-0.913c-0.294-0.002-0.597 1.407-0.891 1.405c-0.294-0.002-0.574-2.13-0.867-2.132 c-0.294-0.002-0.603 2.392-0.896 2.39c-0.294-0.002-0.577-1.653-0.87-1.655c-0.294-0.002-0.598 1.526-0.892 1.5 c-0.294-0.002-0.581-0.969-0.875-0.971c-0.294-0.002-0.589 0.222-0.883 0.22c-0.294-0.002-0.587-0.074-0.88-0.076 c-0.294-0.002-0.59 0.363-0.884 0.361c-0.294-0.002-0.589 0.133-0.882 0.131c-0.294-0.002-0.58-1.159-0.874-1.161 c-0.294-0.002-0.593 0.841-0.887 0.839c-0.294-0.002-0.587-0.085-0.88-0.087c-0.294-0.002-0.592 0.57-0.885 0.6 c-0.294-0.002-0.587-0.166-0.88-0.168c-0.294-0.002-0.578-1.54-0.871-1.542c-0.294-0.002-0.594 0.893-0.887 0.9 c-0.294-0.002-0.586-0.254-0.879-0.256c-0.294-0.002-0.59 0.285-0.883 0.282c-0.294-0.002-0.597 1.103-0.89 1.1 c-0.294-0.002-0.588 0.025-0.882 0.022c-0.294-0.002-0.575-1.49-0.869-1.493c-0.294-0.002-0.591 0.489-0.885 0.5 c-0.294-0.002-0.575-1.525-0.868-1.528c-0.294-0.002-0.589 0.191-0.883 0.188c-0.294-0.002-0.588 0.011-0.881 0 c-0.294-0.003-0.602 1.785-0.896 1.783c-0.294-0.003-0.584-0.401-0.877-0.403c-0.294-0.003-0.576-1.505-0.869-1.507 c-0.294-0.003-0.592 0.589-0.886 0.587c-0.294-0.003-0.599 1.655-0.893 1.653c-0.294-0.002-0.586-0.165-0.88-0.167 c-0.294-0.002-0.577-1.59-0.87-1.592c-0.294-0.002-0.59 0.342-0.883 0.34c-0.294-0.002-0.581-0.803-0.874-0.806 c-0.294-0.002-0.584-0.382-0.877-0.385c-0.294-0.002-0.605 2.122-0.898 2.119c-0.294-0.002-0.587-0.039-0.88-0.041 c-0.294-0.003-0.589 0.104-0.882 0.102c-0.294-0.003-0.583-0.429-0.876-0.431c-0.294-0.002-0.582-0.82-0.875-0.822 c-0.294-0.002-0.597 1.488-0.89 1.486c-0.294-0.002-0.576-1.701-0.869-1.704c-0.294-0.002-0.601 1.578-0.894 1.6 c-0.294-0.002-0.568-2.383-0.861-2.385c-0.294-0.003-0.592 0.632-0.886 0.63c-0.294-0.003-0.598 1.291-0.891 1.3 c-0.294-0.002-0.591 0.454-0.884 0.452c-0.294-0.002-0.585-0.387-0.878-0.389c-0.294-0.002-0.59 0.216-0.883 0.2 c-0.294-0.002-0.575-1.552-0.868-1.554c-0.294-0.003-0.603 1.866-0.896 1.864c-0.294-0.003-0.571-2.122-0.864-2.124 c-0.294-0.002-0.604 2.433-0.897 2.431c-0.294-0.002-0.583-0.748-0.876-0.751c-0.294-0.002-0.588 0.075-0.881 0.1 c-0.294-0.003-0.585-0.169-0.878-0.171c-0.294-0.002-0.591 0.521-0.884 0.519c-0.294-0.002-0.578-1.293-0.871-1.296 c-0.294-0.002-0.581-0.829-0.874-0.831c-0.294-0.003-0.587-0.249-0.88-0.251c-0.294-0.002-0.604 2.457-0.897 2.5 c-0.294-0.002-0.589-0.01-0.882-0.013c-0.294-0.002-0.583-0.584-0.875-0.586c-0.294-0.003-0.58-1.026-0.873-1.028 c-0.294-0.002-0.581-0.665-0.874-0.668c-0.294-0.002-0.608 2.493-0.901 2.491c-0.294-0.003-0.581-0.703-0.873-0.705 c-0.294-0.002-0.59 0.3-0.882 0.298c-0.294-0.002-0.572-1.98-0.865-1.982c-0.294-0.003-0.597 1.369-0.89 1.4 c-0.294-0.002-0.594 0.94-0.886 0.938c-0.294-0.002-0.579-1.283-0.871-1.285c-0.294-0.003-0.592 0.721-0.885 0.7 c-0.294-0.002-0.586-0.283-0.878-0.286c-0.294-0.002-0.59 0.505-0.882 0.503c-0.294-0.002-0.584-0.435-0.877-0.437 c-0.294-0.002-0.589 0.11-0.881 0.108c-0.293-0.003-0.576-1.493-0.868-1.495c-0.294-0.002-0.604 2.164-0.896 2.2 c-0.294-0.002-0.58-0.715-0.872-0.717c-0.294-0.002-0.577-1.415-0.869-1.418c-0.294-0.002-0.597 1.42-0.89 1.4 c-0.294-0.002-0.575-1.667-0.867-1.67c-0.294-0.002-0.601 1.839-0.893 1.837c-0.294-0.002-0.591 0.347-0.883 0.3 c-0.294-0.002-0.583-0.341-0.875-0.343c-0.294-0.002-0.586-0.27-0.878-0.271c-0.294-0.003-0.585-0.026-0.877-0.028 c-0.294-0.002-0.586-0.131-0.878-0.133c-0.294-0.002-0.593 0.919-0.885 0.917c-0.294-0.002-0.573-2.071-0.865-2.073 c-0.294-0.002-0.589 0.421-0.881 0.418c-0.294-0.002-0.583-0.573-0.875-0.575c-0.294-0.002-0.597 1.61-0.889 1.6 c-0.294-0.002-0.572-2.005-0.863-2.008c-0.294-0.002-0.596 1.16-0.887 1.158c-0.294-0.002-0.595 1.266-0.887 1.3 c-0.294-0.002-0.583-0.552-0.874-0.554c-0.294-0.002-0.572-2.127-0.864-2.129c-0.293-0.002-0.585-0.108-0.877-0.11 c-0.295-0.002-0.597 1.082-0.89 1.08c-0.296-0.002-0.587-0.427-0.88-0.429c-0.295-0.002-0.598 1.102-0.89 1.1 c-0.296-0.003-0.582-1.184-0.874-1.186c-0.296-0.002-0.593 0.408-0.885 0.406c-0.295-0.002-0.591 0.291-0.884 0.3 c-0.295-0.002-0.586-0.482-0.878-0.484c-0.295-0.002-0.595 0.873-0.887 0.871c-0.295-0.002-0.58-1.468-0.872-1.47 c-0.295-0.002-0.599 1.569-0.891 1.567c-0.295-0.002-0.593 0.561-0.885 0.559c-0.295-0.002-0.579-1.468-0.871-1.47 c-0.295-0.002-0.586-0.413-0.878-0.415c-0.295-0.002-0.598 1.431-0.889 1.429c-0.295-0.002-0.587-0.2-0.879-0.202 c-0.295-0.002-0.576-1.701-0.868-1.703c-0.295-0.002-0.598 1.434-0.889 1.432c-0.295-0.002-0.583-0.673-0.875-0.675 c-0.295-0.002-0.589 0.321-0.88 0.319c-0.295-0.002-0.595 1.025-0.885 1.023c-0.295-0.002-0.581-1.056-0.872-1.057 c-0.294-0.002-0.598 1.685-0.888 1.683c-0.295-0.002-0.573-2.423-0.862-2.424c-0.295-0.002-0.6 2.176-0.889 2.2 c-0.294-0.002-0.575-1.66-0.864-1.662c-0.295-0.002-0.591 0.667-0.88 0.666c-0.294-0.002-0.593 1.357-0.881 1.4 c-0.295-0.002-0.577-1.843-0.865-1.844c-0.294-0.002-0.586 0.178-0.875 0.177c-0.294-0.002-0.582-0.649-0.869-0.649 c-0.295-0.002-0.593 1.462-0.88 1.461c-0.294-0.002-0.584-0.149-0.871-0.151c-0.294-0.001-0.579-1.354-0.865-1.354 c-0.295-0.002-0.588 0.395-0.874 0.393c-0.296-0.001-0.585-0.252-0.872-0.253c-0.296-0.002-0.59 0.453-0.875 0.5 c-0.296-0.002-0.586-0.252-0.872-0.252c-0.297-0.002-0.594 1.343-0.878 1.342c-0.298-0.001-0.591 0.139-0.875 0.1 c-0.299-0.001-0.581-2.223-0.864-2.224c-0.3-0.001-0.594 1.052-0.875 1.051c-0.302-0.001-0.595 0.692-0.875 0.7 c-0.304-0.001-0.593-1.757-0.871-1.757c-0.306-0.001-0.597 0.11-0.872 0.109c-0.31 0-0.602 1.582-0.871 1.6 c-0.317 0-0.603 0.833-0.863 0.834c-0.342 0.001-0.625 0.199-0.867 0.201C77.911 580.6 78.6 579.2 78.6 579.226z"/></g><path d="M284.792 56.193c-3.435 2.524-13.441 2.931-10.08-3.458c1.897-3.606 8.711-4.365 12.107-4.828 c6.083-0.832 12.2 1.5 14 8.138c2.01 7.39-7.662 2.976-11.289 1.411c3.167-7.436-7.388-5.936-4.688-1.263H284.792z" class="eyes"/><path d="M261.347 78.581c-0.335-4.786-3.279-9.067 2.188-12.516c8.256-5.209 12.3 4.1 13 9.1 c0.342-4.298 1.081-7.838 4.944-7.613c7.523 0.4 5.4 5.5 5.6 11.425c-4.198-0.557-21.137-0.757-25.737-0.396H261.347z" class="style1"/><path d="M255.017 56.884c-2.446-0.527-9.957 4.332-8.805-2.198c0.689-3.91 6.7-6.006 9.978-6.242 c4.859-0.348 11.1 1.1 13.8 5.57c4.509 7.609-5.91 3.723-9.339 2.268c3.149-6.889-9.711-5.493-5.459 0.561L255.017 56.884z" class="eyes"/><path d="M287.126 80.486c-1.681-0.167-1.05 1.122-0.204 2.661c1.776 3.2 2.9 0.1 4.6 0.4c1.999 0.4 1.8 4.8 2.5 6.2 c0.49 1.1 0.4 2.2 2 1.919c1.23-0.204 0.905-1.966 2.261-1.51c4.993 1.683-3.373 12.3 0.9 15 c3.586 2.2 5.807-2.682 5.648-5.337c-0.211-3.568-2.898-6.483 0.899-8.444c1.331-0.687 2.58-0.669 3.412-2.324 c0.701-1.394 1.025-3.878 0.771-4.794c-0.861-3.256-13.971-2.956-22.771-3.79H287.126z" class="dribble"/><path d="M308.697 82.175c0 0-71.01-10.61-71.01 6.2" class="style2"/><path d="M267.14 72.646c-0.808-1.969 3.856-1.555 2.6 0.792c-1.234 2.289-2.602-0.993-2.038-2.173"/><path d="M283.171 72.509c1.41-0.56 1.1 3.857-1.324 1.523c-2.284-2.2 1.667-2.381 1.324-1.662"/></svg>