<svg xmlns="http://www.w3.org/2000/svg" xmlns:xlink="http://www.w3.org/1999/xlink" version="1.1" id="Layer_1" x="0px" y="0px" width="595.28px" height="841.89px" viewBox="0 0 595.28 841.89" enable-background="new 0 0 595.28 841.89" xml:space="preserve"><style>.style0{stroke:#000000;}.eyes{fill:#F7941E;}.style2{fill:#EC008C;}.style3{fill:#FFFFFF;}.style4{stroke:#FFFFFF;stroke-width:3;fill:none;}</style><path d="M-31 607.001c-0.199-10.332 24.796-112.024 26-123c1.533-13.976 13.958-49.411 16-63 c3.741-24.904 11.276-29.08 15-55c7.578-52.758 23.624-112.815 44.672-161.833c18.537-43.17 41.048-82.898 63.951-123.405 c6.341-11.214 30.432-67.708 47.779-44.333c9.667 13 10.3 31.3 17 46.475c11.244 25.3 26.7 44.6 42.3 67.3 c15.904 23.1 34.8 43.7 52.2 65.85c14.576 18.6 25.6 42.4 36.2 63.384c23.226 46.1 39.9 104.3 41.7 156 c0.894 26.1 34.6 149.2 35.3 174.565C408.044 610.514-32.098 606.613-31 607.001z" class="style0"/><path d="M176.15 84.073c-3.435 2.524-13.441 2.931-10.08-3.458c1.897-3.606 8.711-4.365 12.107-4.828 c6.083-0.832 12.2 1.5 14 8.138c2.01 7.39-7.662 2.976-11.289 1.411C184.055 77.9 173.5 79.4 176.2 84.073z" class="eyes"/><path d="M152.705 106.461c-0.335-4.786-3.279-9.067 2.188-12.516c8.256-5.209 12.3 4.1 13 9.1 c0.342-4.298 1.081-7.838 4.944-7.613c7.523 0.4 5.4 5.5 5.6 11.425C174.239 106.3 157.3 106.1 152.7 106.461z" class="style2"/><path d="M146.375 84.764c-2.446-0.527-9.957 4.332-8.805-2.198c0.689-3.91 6.7-6.006 9.978-6.242 c4.859-0.348 11.1 1.1 13.8 5.57c4.509 7.609-5.91 3.723-9.339 2.268c3.149-6.889-9.711-5.493-5.459 0.561L146.375 84.764z" class="eyes"/><path d="M178.484 108.366c-1.681-0.167-1.05 1.122-0.204 2.661c1.776 3.2 2.9 0.1 4.6 0.4 c1.999 0.4 1.8 4.8 2.5 6.235c0.49 1.1 0.4 2.2 2 1.919c1.231-0.204 0.905-1.966 2.26-1.51 c4.994 1.683-3.372 12.3 0.9 14.984c3.586 2.2 5.807-2.682 5.649-5.337c-0.211-3.568-2.899-6.483 0.899-8.444 c1.331-0.687 2.58-0.669 3.412-2.324c0.701-1.394 1.026-3.878 0.771-4.794C200.409 108.9 187.3 109.2 178.5 108.366z" class="style3"/><path d="M200.055 110.055c0 0-71.01-10.61-71.01 6.2" class="style4"/><path d="M158.498 100.527c-0.808-1.969 3.856-1.555 2.6 0.792c-1.234 2.289-2.602-0.993-2.038-2.173"/><path d="M174.529 100.389c1.41-0.56 1.1 3.857-1.324 1.523c-2.284-2.2 1.667-2.381 1.324-1.662"/></svg>