<?xml version="1.0" encoding="utf-8"?>
<!-- Generator: Adobe Illustrator 14.0.0, SVG Export Plug-In . SVG Version: 6.00 Build 43363)  -->
<!DOCTYPE svg PUBLIC "-//W3C//DTD SVG 1.1//EN" "http://www.w3.org/Graphics/SVG/1.1/DTD/svg11.dtd">
<svg version="1.1" id="Layer_1" xmlns="http://www.w3.org/2000/svg" xmlns:xlink="http://www.w3.org/1999/xlink" x="0px" y="0px"
	 width="595.28px" height="841.89px" viewBox="0 0 595.28 841.89" enable-background="new 0 0 595.28 841.89" xml:space="preserve">
<g>
	<path d="M-31.225,606.978c-0.005-0.246,0.524-0.501,0.547-0.848c0.018-0.267-0.47-0.604-0.437-0.927
		c0.028-0.275,0.551-0.514,0.59-0.829c0.035-0.279,0.048-0.573,0.092-0.883c0.04-0.281-0.178-0.611-0.132-0.917
		c0.043-0.283,0.094-0.575,0.142-0.878c0.045-0.284,0.774-0.463,0.825-0.765c0.047-0.285-1.343-0.821-1.291-1.121
		c0.049-0.285,1.581-0.32,1.633-0.618c0.05-0.286-0.545-0.691-0.491-0.99c0.052-0.286-0.256-0.645-0.202-0.941
		c0.053-0.287-0.154-0.629-0.098-0.926c0.054-0.287,0.909-0.428,0.965-0.725c0.055-0.287-0.629-0.721-0.572-1.017
		c0.055-0.287,0.316-0.54,0.373-0.835c0.056-0.286-0.241-0.647-0.183-0.94c0.057-0.286,0.017-0.595,0.075-0.888
		c0.057-0.287,0.644-0.472,0.703-0.765c0.057-0.286,0.487-0.502,0.546-0.794c0.058-0.287-0.544-0.711-0.485-1.003
		c0.059-0.287,0.251-0.549,0.312-0.841c0.059-0.288,1.02-0.393,1.08-0.685c0.059-0.287,0.458-0.506,0.519-0.798
		c0.06-0.287-0.111-0.625-0.05-0.917c0.06-0.287-0.585-0.724-0.524-1.015c0.06-0.288-0.32-0.671-0.258-0.962
		c0.061-0.288,1.27-0.336,1.331-0.627c0.061-0.288-0.722-0.757-0.66-1.048c0.061-0.287-0.573-0.726-0.511-1.018
		c0.062-0.288,0.752-0.443,0.814-0.735c0.062-0.288,0.23-0.556,0.292-0.847c0.062-0.288,0.887-0.414,0.95-0.705
		c0.062-0.289,0.095-0.585,0.158-0.876c0.062-0.288,0.45-0.508,0.513-0.799c0.062-0.289-0.008-0.607,0.055-0.898
		c0.062-0.289,0.147-0.574,0.21-0.865c0.063-0.289-0.165-0.641-0.102-0.933c0.063-0.288-0.812-0.782-0.749-1.073
		c0.063-0.289,1.202-0.345,1.265-0.636c0.063-0.289,0.281-0.545,0.345-0.836c0.063-0.289-1.354-0.904-1.29-1.195
		c0.063-0.289,1.706-0.233,1.77-0.523c0.063-0.29-0.5-0.718-0.436-1.009c0.063-0.289-0.045-0.617,0.019-0.908
		c0.063-0.288,0.682-0.454,0.746-0.743c0.064-0.288-0.353-0.684-0.289-0.974c0.064-0.288-0.172-0.644-0.108-0.934
		c0.064-0.288,0.127-0.577,0.191-0.867c0.064-0.289,0.044-0.597,0.109-0.888c0.064-0.287,1.272-0.323,1.337-0.612
		c0.064-0.289-1.556-0.954-1.491-1.244c0.064-0.288,1.018-0.38,1.083-0.67c0.065-0.289-0.133-0.637-0.068-0.927
		s1.121-0.357,1.186-0.647c0.064-0.289-1.654-0.979-1.589-1.269s1.176-0.345,1.241-0.636c0.065-0.289-0.514-0.724-0.449-1.014
		c0.065-0.29,1.208-0.338,1.273-0.628c0.065-0.289-1.227-0.885-1.161-1.175c0.065-0.29,0.823-0.425,0.888-0.715
		c0.065-0.289-0.249-0.665-0.184-0.954c0.065-0.29,0.009-0.606,0.075-0.896s1.014-0.38,1.08-0.67s-0.024-0.615,0.041-0.905
		c0.066-0.29,0.366-0.526,0.432-0.816c0.066-0.29,0.256-0.553,0.322-0.843s0.507-0.495,0.573-0.785s-0.618-0.752-0.552-1.043
		c0.065-0.29,0.226-0.56,0.292-0.85c0.066-0.291,0.641-0.466,0.707-0.757c0.066-0.29-0.369-0.695-0.304-0.986
		c0.066-0.291,0.619-0.472,0.685-0.763c0.066-0.291,0.03-0.605,0.096-0.896c0.066-0.292-0.992-0.839-0.926-1.13
		c0.066-0.291,1.41-0.291,1.477-0.582s-0.251-0.671-0.186-0.962c0.066-0.291,0.579-0.481,0.645-0.772
		c0.066-0.292-0.549-0.739-0.483-1.03c0.066-0.292-0.942-0.828-0.876-1.12c0.067-0.292,0.129-0.585,0.195-0.876
		c0.066-0.292,1.879-0.187,1.945-0.479c0.066-0.291,0.171-0.573,0.237-0.863c0.066-0.292-0.421-0.709-0.355-0.999
		c0.066-0.292-0.245-0.669-0.179-0.959c0.066-0.292,0.377-0.528,0.443-0.818c0.066-0.292-0.606-0.751-0.54-1.041
		c0.066-0.292,0.783-0.435,0.849-0.726c0.066-0.291,0.203-0.566,0.269-0.857s-0.814-0.798-0.749-1.089
		c0.067-0.292,0.073-0.597,0.139-0.887c0.066-0.292,0.907-0.406,0.973-0.697c0.067-0.291,0.339-0.535,0.405-0.826
		c0.066-0.292-0.625-0.755-0.559-1.045c0.066-0.292-0.013-0.617,0.054-0.908s1.128-0.355,1.195-0.646
		c0.066-0.292,0.416-0.52,0.481-0.81c0.066-0.292-1.104-0.864-1.039-1.154c0.066-0.292,0.63-0.471,0.696-0.761
		c0.066-0.292,0.228-0.562,0.293-0.852c0.066-0.292,1.18-0.345,1.246-0.635c0.066-0.292-1.6-0.977-1.534-1.267
		c0.066-0.292,1.964-0.167,2.03-0.458s-1.774-1.016-1.709-1.306c0.066-0.292,0.195-0.568,0.26-0.858
		c0.066-0.292,1.543-0.264,1.609-0.553c0.066-0.293-1.096-0.862-1.031-1.151c0.066-0.292,0.47-0.506,0.536-0.796
		c0.066-0.292,1.22-0.338,1.286-0.628c0.066-0.292-0.744-0.78-0.678-1.069c0.066-0.293,1.216-0.339,1.281-0.629
		c0.065-0.292-0.032-0.619,0.033-0.908c0.065-0.292-0.167-0.651-0.103-0.94c0.065-0.293-0.301-0.68-0.236-0.969
		c0.065-0.293,1.019-0.384,1.084-0.673c0.065-0.293-0.339-0.688-0.274-0.978c0.065-0.292,0.156-0.577,0.22-0.865
		c0.065-0.293-0.236-0.665-0.172-0.954c0.065-0.292-0.702-0.768-0.638-1.056c0.065-0.292,1.742-0.226,1.806-0.514
		c0.065-0.292-1.441-0.93-1.378-1.218c0.065-0.296,0.798-0.44,0.862-0.73c0.065-0.296,0.013-0.613,0.077-0.903
		c0.065-0.295,0.332-0.542,0.396-0.832c0.064-0.295,0.911-0.416,0.974-0.705c0.064-0.295-0.488-0.722-0.426-1.01
		c0.064-0.295-0.672-0.76-0.61-1.048c0.063-0.295,0.216-0.566,0.278-0.854c0.063-0.295,1.413-0.311,1.475-0.598
		c0.063-0.295,0.216-0.567,0.276-0.854c0.063-0.295-0.487-0.716-0.427-1.001c0.062-0.295,0.405-0.526,0.465-0.812
		c0.062-0.296-0.592-0.734-0.533-1.02c0.061-0.297,0.749-0.46,0.807-0.744c0.061-0.299-1.072-0.831-1.015-1.114
		c0.06-0.299,0.337-0.545,0.394-0.827c0.06-0.3-0.27-0.663-0.216-0.943c0.06-0.304,0.215-0.572,0.268-0.852
		c0.058-0.307,1.343-0.37,1.393-0.647c0.056-0.31-1.303-0.844-1.257-1.116c0.054-0.319,0.728-0.5,0.767-0.766
		c0.05-0.335,0.459-0.574,0.486-0.818c0.031-0.285-0.252-0.62-0.211-0.922c0.038-0.286-0.158-0.62-0.113-0.921
		c0.044-0.286,1.481-0.354,1.531-0.652c0.048-0.286-1.391-0.836-1.337-1.134c0.052-0.287-0.086-0.621-0.029-0.918
		c0.055-0.287,1.536-0.299,1.595-0.594c0.058-0.287-0.865-0.778-0.803-1.073c0.06-0.287,1.136-0.359,1.2-0.653
		c0.062-0.286-1.307-0.894-1.241-1.187c0.064-0.286,0.326-0.535,0.393-0.827c0.065-0.284,0.043-0.596,0.112-0.886
		c0.067-0.284,0.032-0.599,0.102-0.888c0.068-0.284,1.124-0.333,1.195-0.622c0.07-0.284,0.701-0.431,0.773-0.719
		c0.071-0.285,0.031-0.597,0.104-0.886c0.072-0.283-1.266-0.931-1.191-1.22c0.073-0.284,0.854-0.388,0.93-0.677
		c0.074-0.284,1.117-0.316,1.192-0.604c0.075-0.285-1.434-0.99-1.357-1.278c0.076-0.284,0.371-0.513,0.448-0.801
		c0.077-0.285,0.986-0.348,1.064-0.635c0.077-0.285-0.326-0.701-0.247-0.988c0.078-0.285-0.046-0.627,0.033-0.914
		c0.078-0.285,1.271-0.263,1.35-0.55c0.079-0.283-0.652-0.793-0.573-1.078c0.079-0.284,0.853-0.375,0.933-0.661
		c0.08-0.284,0.283-0.533,0.364-0.818c0.08-0.283,0.232-0.548,0.313-0.834c0.081-0.284-1.197-0.954-1.116-1.239
		s1.443-0.207,1.524-0.493c0.081-0.285-1.088-0.926-1.006-1.212c0.082-0.284,1.497-0.188,1.579-0.475
		c0.082-0.285,0.15-0.573,0.232-0.858c0.082-0.286-0.62-0.796-0.538-1.082s-0.119-0.653-0.036-0.939s1.232-0.264,1.315-0.551
		c0.083-0.287-0.811-0.854-0.728-1.142c0.083-0.287-0.417-0.743-0.334-1.029c0.083-0.287,1.725-0.124,1.808-0.41
		c0.083-0.287-0.874-0.874-0.791-1.16c0.083-0.287-0.369-0.729-0.286-1.015c0.083-0.287,0.774-0.397,0.856-0.684
		c0.083-0.287,0.884-0.365,0.967-0.651c0.083-0.287-0.32-0.716-0.237-1.002c0.083-0.287-0.155-0.666-0.073-0.952
		c0.083-0.287,1.015-0.33,1.097-0.616c0.083-0.287-0.677-0.816-0.595-1.103c0.082-0.287,0.636-0.439,0.718-0.726
		c0.082-0.288-0.213-0.683-0.132-0.969c0.082-0.287,0.051-0.606,0.132-0.893c0.082-0.288,1.234-0.272,1.314-0.559
		c0.082-0.288-1.493-1.042-1.412-1.328c0.081-0.288,1.477-0.206,1.556-0.491c0.081-0.289-0.293-0.703-0.214-0.988
		c0.08-0.289,0.985-0.349,1.063-0.634c0.08-0.289-0.976-0.889-0.897-1.174c0.079-0.289,1.297-0.268,1.375-0.554
		c0.079-0.289-0.343-0.712-0.266-0.997c0.078-0.289-0.926-0.865-0.85-1.15c0.077-0.29,0.953-0.364,1.028-0.649
		c0.077-0.292-0.619-0.783-0.544-1.07c0.076-0.292,1.349-0.273,1.422-0.561c0.075-0.292,0.236-0.562,0.308-0.849
		c0.074-0.292-1.296-0.939-1.225-1.226c0.072-0.292,1.378-0.279,1.447-0.564c0.07-0.293,0.013-0.613,0.08-0.898
		c0.069-0.292-0.453-0.718-0.388-1.002c0.067-0.294,1.303-0.324,1.365-0.609c0.064-0.295-0.878-0.805-0.818-1.089
		c0.062-0.296,0.87-0.437,0.927-0.721c0.059-0.298-0.624-0.735-0.571-1.02c0.056-0.299,1.043-0.43,1.091-0.712
		c0.051-0.301-1.698-0.88-1.656-1.162c0.045-0.298,0.608-0.518,0.654-0.81c0.047-0.298,1.366-0.387,1.414-0.679
		c0.048-0.297-0.321-0.656-0.271-0.947c0.051-0.297,0.513-0.513,0.565-0.804c0.053-0.296-0.531-0.703-0.477-0.993
		c0.055-0.296,0.527-0.506,0.583-0.795c0.057-0.295,0.313-0.542,0.371-0.832c0.06-0.294-0.689-0.749-0.629-1.038
		c0.062-0.294,0.245-0.558,0.308-0.846c0.064-0.293-0.349-0.691-0.284-0.979c0.067-0.293,0.776-0.434,0.844-0.721
		c0.069-0.292-0.32-0.692-0.25-0.979c0.072-0.293-0.428-0.732-0.354-1.02c0.075-0.293,1.058-0.349,1.134-0.635
		c0.077-0.292,0.108-0.592,0.187-0.878c0.08-0.291-0.542-0.776-0.46-1.062c0.082-0.29-0.114-0.665-0.03-0.949
		c0.085-0.289,1.48-0.186,1.566-0.469c0.087-0.288-0.712-0.845-0.624-1.127c0.089-0.287-0.009-0.636,0.082-0.918
		c0.092-0.286,0.318-0.53,0.411-0.81c0.094-0.285,0.04-0.621,0.134-0.901c0.096-0.284,1.493-0.12,1.59-0.399
		c0.099-0.285-0.725-0.889-0.626-1.169c0.101-0.283,0.978-0.286,1.079-0.566c0.102-0.282-0.222-0.715-0.12-0.994
		c0.103-0.281-0.001-0.637,0.103-0.916c0.104-0.28,0.706-0.372,0.811-0.65c0.105-0.279,0.421-0.478,0.526-0.756
		c0.105-0.278-0.29-0.745-0.184-1.023c0.105-0.277,0.271-0.532,0.376-0.81c0.105-0.276-0.45-0.804-0.345-1.082
		c0.105-0.276,0.859-0.306,0.964-0.583c0.104-0.277,0.356-0.5,0.461-0.778c0.104-0.277-0.283-0.739-0.179-1.018
		c0.103-0.277,0.3-0.52,0.403-0.799c0.102-0.277-0.3-0.739-0.199-1.019c0.101-0.277,0.148-0.571,0.248-0.852
		c0.099-0.278,0.127-0.578,0.226-0.86c0.097-0.278,1.179-0.217,1.274-0.5c0.096-0.279,0.531-0.45,0.625-0.733
		c0.093-0.279-0.057-0.646,0.036-0.93c0.091-0.28-0.763-0.864-0.673-1.15c0.088-0.281,0.406-0.489,0.494-0.775
		c0.086-0.282-0.373-0.725-0.288-1.013c0.084-0.283,0.892-0.352,0.975-0.64c0.082-0.283,0.255-0.542,0.335-0.831
		c0.079-0.284,0.258-0.542,0.336-0.833c0.076-0.282-0.001-0.608,0.074-0.896c0.074-0.283-0.497-0.73-0.424-1.02
		c0.071-0.285,0.893-0.384,0.962-0.674c0.069-0.285-0.509-0.725-0.441-1.016c0.067-0.287,1.247-0.32,1.312-0.613
		c0.064-0.287-0.619-0.742-0.555-1.036c0.062-0.288,0.941-0.407,1.002-0.701c0.06-0.289-0.886-0.786-0.828-1.082
		c0.058-0.289,0.418-0.52,0.475-0.815c0.055-0.288-0.409-0.673-0.354-0.968c0.053-0.29,1.213-0.381,1.265-0.676
		c0.052-0.291-1.194-0.808-1.145-1.105c0.05-0.292,1.773-0.307,1.822-0.605c0.047-0.291,0.218-0.571,0.265-0.868
		c0.046-0.293-1.449-0.826-1.404-1.125c0.044-0.294,1.649-0.362,1.692-0.661c0.042-0.293-0.692-0.696-0.649-0.989
		c0.042-0.292,0.312-0.552,0.354-0.845c0.043-0.292-0.13-0.616-0.087-0.909c0.043-0.292-0.12-0.616-0.076-0.908
		s0.035-0.593,0.08-0.886c0.044-0.292,0.183-0.57,0.228-0.863c0.045-0.292-0.745-0.713-0.7-1.006
		c0.045-0.292,1.15-0.421,1.196-0.713c0.045-0.292,0.555-0.511,0.601-0.804c0.046-0.292,0.341-0.544,0.387-0.836
		c0.046-0.292-1.652-0.862-1.605-1.155c0.047-0.292,0.735-0.482,0.782-0.774c0.047-0.292,1.223-0.399,1.271-0.692
		c0.048-0.292-0.615-0.7-0.567-0.993c0.048-0.292,0.162-0.573,0.21-0.865c0.049-0.292,0.694-0.484,0.743-0.776
		s-0.313-0.652-0.264-0.944s-1.09-0.786-1.041-1.078s1.227-0.391,1.277-0.683c0.05-0.292-0.87-0.751-0.819-1.043
		c0.05-0.292,0.692-0.481,0.743-0.773c0.051-0.292-0.09-0.617-0.039-0.909c0.052-0.292,1.104-0.405,1.157-0.697
		c0.052-0.292-0.772-0.739-0.72-1.031c0.052-0.292-0.061-0.613-0.008-0.905c0.053-0.292,0.831-0.451,0.884-0.743
		c0.053-0.292-1.11-0.805-1.057-1.096c0.053-0.292,0.791-0.458,0.845-0.75c0.054-0.292,0.446-0.519,0.5-0.811
		c0.055-0.291-0.559-0.708-0.504-1c0.055-0.291-0.367-0.672-0.312-0.964c0.055-0.291,0.195-0.567,0.251-0.858
		c0.055-0.291,1.499-0.317,1.554-0.608s-1.231-0.84-1.175-1.132c0.056-0.291,0.438-0.52,0.494-0.811
		c0.057-0.291,0.92-0.424,0.978-0.715s-1.084-0.818-1.027-1.109c0.058-0.291,1.618-0.285,1.676-0.576
		c0.058-0.291-1.226-0.848-1.168-1.139c0.058-0.291,1.465-0.311,1.524-0.602c0.059-0.291-0.281-0.661-0.223-0.952
		c0.059-0.291-0.15-0.636-0.091-0.926c0.059-0.291,0.588-0.485,0.647-0.776s0.26-0.551,0.32-0.842s-0.537-0.716-0.476-1.007
		c0.06-0.29-0.14-0.635-0.079-0.925c0.061-0.291,0.038-0.599,0.099-0.889c0.061-0.291,0.069-0.592,0.131-0.883
		c0.062-0.29,0.004-0.606,0.066-0.896s0.113-0.583,0.175-0.873c0.062-0.29,0.755-0.445,0.817-0.735s0.412-0.517,0.475-0.807
		s0.236-0.555,0.3-0.845s-0.523-0.723-0.459-1.012c0.064-0.29-0.567-0.733-0.503-1.023c0.064-0.29,1.76-0.218,1.824-0.508
		c0.064-0.29-1.672-0.981-1.607-1.271c0.065-0.29,1.257-0.328,1.322-0.617c0.065-0.29-0.388-0.696-0.322-0.986
		c0.065-0.29,0.211-0.562,0.277-0.851c0.066-0.289,0.699-0.448,0.766-0.738c0.066-0.289-0.454-0.714-0.388-1.003
		c0.067-0.289,0.101-0.586,0.168-0.875s0.248-0.553,0.315-0.842s-0.006-0.611,0.062-0.9s0.861-0.408,0.93-0.697
		c0.068-0.289,0.342-0.528,0.41-0.817c0.069-0.289-1.056-0.862-0.987-1.151c0.069-0.289,1.293-0.301,1.362-0.59
		c0.069-0.289-0.675-0.773-0.605-1.062c0.069-0.289,0.481-0.495,0.551-0.784s0.446-0.502,0.516-0.791s0.253-0.549,0.324-0.837
		s-0.729-0.791-0.658-1.08c0.071-0.289,1.258-0.3,1.33-0.589c0.071-0.288-1.443-0.97-1.371-1.258s0.177-0.568,0.25-0.856
		c0.072-0.288,1.681-0.191,1.754-0.479c0.072-0.288-0.873-0.832-0.8-1.12c0.073-0.288-0.29-0.687-0.217-0.975
		c0.073-0.288,1.043-0.347,1.117-0.635c0.073-0.288-0.41-0.718-0.336-1.006c0.074-0.287,1.106-0.328,1.18-0.616
		s-0.94-0.857-0.866-1.145c0.075-0.287,0.67-0.439,0.745-0.727c0.075-0.288,0.013-0.611,0.088-0.898
		c0.075-0.287,0.41-0.507,0.486-0.794s-0.679-0.794-0.603-1.082s1.394-0.245,1.47-0.532c0.077-0.287-1.016-0.886-0.939-1.173
		s1.378-0.246,1.455-0.533s-1.184-0.934-1.107-1.221c0.078-0.287,0.229-0.555,0.308-0.841c0.078-0.287,1.076-0.323,1.154-0.61
		c0.079-0.287-0.107-0.646-0.029-0.932s-0.599-0.782-0.52-1.068c0.079-0.287,0.513-0.476,0.592-0.763
		c0.08-0.286,0.345-0.521,0.425-0.808c0.08-0.287-0.07-0.637,0.01-0.923s1.581-0.174,1.661-0.46
		c0.081-0.286-0.173-0.665-0.092-0.951c0.081-0.286,0.305-0.531,0.386-0.817s-0.261-0.691-0.18-0.978
		c0.081-0.286,0.643-0.433,0.725-0.719c0.082-0.286-0.153-0.662-0.071-0.947c0.083-0.286-0.244-0.689-0.161-0.975
		s1.025-0.322,1.107-0.607c0.083-0.285-0.592-0.791-0.509-1.076c0.083-0.286,0.693-0.416,0.776-0.701
		c0.084-0.286-1.218-0.979-1.134-1.264s-0.091-0.647-0.006-0.933c0.084-0.285,1.218-0.259,1.303-0.544
		c0.085-0.285,0.333-0.521,0.418-0.806c0.085-0.285,0.03-0.612,0.116-0.896s-0.651-0.817-0.565-1.102
		c0.086-0.285,0.857-0.363,0.944-0.647c0.086-0.284,0.15-0.575,0.237-0.859c0.087-0.285-0.155-0.669-0.068-0.954
		c0.087-0.284,0.009-0.62,0.096-0.904s0.42-0.493,0.508-0.777s0.638-0.425,0.726-0.709c0.088-0.284,0.136-0.581,0.224-0.864
		c0.089-0.284-0.363-0.737-0.274-1.021s0.471-0.476,0.561-0.759c0.089-0.284-0.065-0.645,0.025-0.928
		c0.089-0.284,0.972-0.316,1.062-0.599c0.09-0.283,0.158-0.573,0.248-0.856c0.091-0.284-0.596-0.816-0.505-1.099
		c0.091-0.283,0.202-0.56,0.292-0.843c0.091-0.284,0.995-0.305,1.086-0.588s-1.178-1.008-1.085-1.291
		c0.092-0.283,1.141-0.255,1.234-0.538c0.092-0.283,0.094-0.596,0.187-0.878s0.085-0.598,0.179-0.881
		c0.093-0.282,0.897-0.33,0.991-0.612c0.093-0.283-0.959-0.946-0.865-1.229c0.094-0.282,1.27-0.203,1.365-0.485
		c0.094-0.283-1.158-1.017-1.063-1.299c0.095-0.282,1.72-0.05,1.815-0.332c0.095-0.282-0.928-0.941-0.833-1.223
		c0.095-0.282-0.366-0.753-0.27-1.036c0.096-0.281,0.775-0.365,0.872-0.646c0.096-0.281,0.249-0.544,0.346-0.825
		s0.666-0.4,0.763-0.682s0.488-0.46,0.586-0.741c0.098-0.281,0.457-0.47,0.554-0.751c0.098-0.281-0.452-0.787-0.354-1.068
		c0.099-0.281,0.216-0.555,0.315-0.835c0.099-0.281-0.006-0.633,0.093-0.914c0.099-0.281-0.495-0.807-0.396-1.086
		c0.1-0.281,1.219-0.199,1.319-0.479c0.1-0.28,0.204-0.558,0.304-0.838s0.446-0.472,0.547-0.751s-0.531-0.824-0.43-1.103
		c0.102-0.28,0.667-0.39,0.769-0.669c0.102-0.279-0.333-0.754-0.23-1.034s-0.029-0.645,0.073-0.923
		c0.103-0.279,0.328-0.514,0.431-0.793s1.284-0.159,1.387-0.437c0.104-0.278,0.272-0.532,0.375-0.811s-0.601-0.858-0.497-1.136
		c0.104-0.278,1.006-0.257,1.111-0.535c0.104-0.278-0.285-0.742-0.18-1.02s-0.073-0.663,0.033-0.94
		c0.105-0.278,1.069-0.229,1.175-0.506c0.106-0.278,0.268-0.534,0.374-0.811c0.106-0.278-0.103-0.676,0.004-0.953
		c0.107-0.278,0.497-0.444,0.604-0.722s-1.031-1.037-0.924-1.314c0.108-0.277,0.036-0.625,0.144-0.902
		c0.108-0.277,0.645-0.387,0.753-0.663c0.109-0.277-0.168-0.706-0.06-0.982c0.109-0.276,0.605-0.4,0.715-0.676
		c0.11-0.276,0.208-0.557,0.317-0.833s1.144-0.182,1.254-0.457c0.11-0.276,0.165-0.572,0.276-0.847
		c0.111-0.275-0.432-0.814-0.32-1.088c0.111-0.275,0.173-0.57,0.285-0.845c0.112-0.275,1.122-0.184,1.233-0.459
		c0.112-0.275-0.476-0.835-0.363-1.11c0.113-0.274,0.745-0.334,0.858-0.608c0.113-0.274-0.269-0.752-0.155-1.026
		c0.114-0.273,0.6-0.392,0.713-0.666s-0.123-0.692-0.009-0.965c0.115-0.274,0.575-0.401,0.69-0.675
		c0.115-0.273-0.327-0.779-0.211-1.052s0.437-0.457,0.552-0.729c0.116-0.272,0.69-0.347,0.806-0.618s-0.216-0.732-0.1-1.003
		c0.117-0.273,0.412-0.47,0.529-0.743c0.118-0.273-0.751-0.972-0.633-1.245c0.118-0.273,0.395-0.479,0.513-0.751
		c0.119-0.273,1.419-0.032,1.538-0.304c0.119-0.273-1.075-1.118-0.956-1.391s0.75-0.321,0.87-0.593
		c0.12-0.272,0.357-0.492,0.477-0.765c0.12-0.272,1.085-0.171,1.206-0.443s-1.083-1.129-0.962-1.401
		c0.121-0.271,1.426-0.018,1.546-0.289c0.121-0.271-1.223-1.196-1.102-1.467c0.121-0.272,1.724,0.119,1.846-0.152
		s-0.491-0.872-0.369-1.143c0.122-0.271,0.089-0.612,0.211-0.883c0.123-0.271,0.381-0.48,0.503-0.751
		c0.123-0.271,0.794-0.293,0.917-0.563c0.123-0.271-0.537-0.897-0.413-1.167c0.123-0.271,1.015-0.19,1.139-0.46
		c0.124-0.27,0.104-0.606,0.228-0.876c0.124-0.271,0.539-0.406,0.663-0.676c0.124-0.27-1.237-1.225-1.112-1.495
		c0.125-0.27,0.995-0.196,1.119-0.465c0.125-0.27-0.574-0.923-0.449-1.192c0.125-0.27,0.401-0.47,0.526-0.74
		c0.125-0.27,1.421,0.006,1.547-0.263c0.126-0.27-0.283-0.789-0.156-1.058c0.126-0.27,0.788-0.287,0.914-0.556
		c0.126-0.27,0.106-0.607,0.233-0.876c0.126-0.269-0.157-0.731-0.029-1c0.127-0.269-0.064-0.688,0.063-0.957s0.51-0.417,0.638-0.685
		c0.127-0.269-0.019-0.668,0.109-0.936c0.128-0.269,0.812-0.271,0.94-0.54s0.471-0.434,0.599-0.702s0.294-0.518,0.423-0.786
		s-0.375-0.84-0.245-1.108c0.129-0.268,0.822-0.263,0.952-0.53c0.13-0.268-0.492-0.899-0.362-1.167
		c0.129-0.268,1.277-0.041,1.408-0.308c0.13-0.268-0.279-0.797-0.149-1.064c0.13-0.267-0.159-0.739-0.028-1.006
		c0.13-0.267,0.165-0.582,0.296-0.849c0.131-0.267,0.873-0.234,1.004-0.5c0.131-0.267,0.848-0.245,0.979-0.511
		s-0.691-1.004-0.56-1.271c0.132-0.267-0.296-0.81-0.164-1.076c0.132-0.267,1.524,0.091,1.656-0.175
		c0.132-0.267,0.498-0.415,0.63-0.682c0.133-0.266-0.813-1.07-0.68-1.335c0.133-0.266,1.307-0.011,1.44-0.277
		c0.133-0.266-0.739-1.034-0.606-1.299c0.133-0.266,0.118-0.607,0.252-0.873c0.133-0.266,1.413,0.046,1.546-0.22
		c0.134-0.265-0.776-1.058-0.643-1.323c0.134-0.265,0.73-0.296,0.864-0.562c0.134-0.265-0.002-0.667,0.132-0.932
		c0.135-0.265,0.292-0.519,0.427-0.784c0.135-0.265,1.135-0.089,1.27-0.354s-0.93-1.141-0.795-1.405
		c0.135-0.265,1.079-0.117,1.213-0.381c0.136-0.264-0.63-0.991-0.495-1.255c0.135-0.264,1.197-0.053,1.333-0.318
		c0.136-0.264,0.092-0.621,0.229-0.885c0.136-0.264,0.464-0.429,0.6-0.693c0.136-0.264-0.398-0.875-0.262-1.139
		c0.136-0.264,1.398,0.055,1.535-0.209c0.137-0.264-1.083-1.23-0.945-1.494c0.137-0.264,1.373,0.043,1.51-0.22
		c0.137-0.264,0.189-0.57,0.327-0.833c0.137-0.264,0.169-0.582,0.307-0.845c0.137-0.264,0.083-0.626,0.221-0.89
		s-0.543-0.956-0.405-1.219c0.138-0.263,1.521,0.127,1.659-0.136c0.138-0.263-0.655-1.016-0.516-1.279
		c0.138-0.263,1.177-0.051,1.315-0.315c0.139-0.263-0.042-0.693,0.097-0.956s-0.194-0.774-0.055-1.037
		c0.139-0.263,0.277-0.526,0.416-0.789c0.139-0.263,0.718-0.292,0.858-0.554c0.139-0.262-0.663-1.025-0.523-1.288
		c0.14-0.263,0.211-0.562,0.351-0.824s0.952-0.167,1.091-0.428c0.14-0.262,0.252-0.54,0.392-0.802
		c0.14-0.262-0.134-0.746,0.006-1.007s0.901-0.192,1.042-0.454s0.468-0.423,0.608-0.685c0.14-0.262,0.922-0.178,1.063-0.44
		s-0.149-0.754-0.009-1.016c0.141-0.262-0.421-0.901-0.28-1.163c0.141-0.261,1.343,0.05,1.485-0.211
		c0.141-0.261,0.099-0.621,0.24-0.882c0.142-0.261-0.514-0.953-0.372-1.214c0.141-0.261-0.349-0.866-0.207-1.126
		c0.142-0.261,1.979,0.399,2.121,0.138c0.142-0.262-1.199-1.328-1.057-1.589c0.142-0.261,0.494-0.407,0.636-0.668
		c0.142-0.261,0.439-0.438,0.581-0.698c0.143-0.261-0.203-0.788-0.061-1.048c0.143-0.261,0.74-0.274,0.882-0.534
		c0.143-0.261,0.663-0.315,0.806-0.575c0.143-0.261-0.126-0.747,0.016-1.007s0.763-0.259,0.906-0.52
		c0.143-0.26-0.225-0.802-0.083-1.062c0.143-0.26,0.224-0.555,0.367-0.815s1.015-0.12,1.158-0.38c0.144-0.26-0.41-0.903-0.267-1.164
		c0.144-0.26-0.135-0.753,0.008-1.013c0.144-0.26,1.791,0.309,1.934,0.049c0.144-0.26-0.17-0.771-0.026-1.031
		c0.144-0.26,0.153-0.594,0.297-0.854c0.144-0.26,1.001-0.124,1.146-0.384c0.144-0.26-0.227-0.804-0.083-1.063
		s0.064-0.644,0.208-0.904s0.018-0.669,0.162-0.929c0.144-0.259,0.543-0.377,0.688-0.637c0.145-0.259,0.604-0.344,0.749-0.603
		c0.144-0.26-0.691-1.064-0.547-1.324c0.145-0.26,1.537,0.176,1.682-0.083c0.145-0.26-0.428-0.919-0.284-1.178
		s-0.401-0.903-0.256-1.163s0.817-0.225,0.961-0.484c0.145-0.259-0.161-0.771-0.016-1.03c0.145-0.26,0.504-0.398,0.649-0.657
		c0.145-0.259,1.3,0.047,1.445-0.212c0.146-0.259,0.505-0.398,0.65-0.658c0.145-0.259-0.505-0.963-0.36-1.222
		s-0.281-0.838-0.136-1.097c0.145-0.26,0.449-0.43,0.595-0.688c0.145-0.259,0.077-0.637,0.222-0.896
		c0.146-0.259,1.558,0.193,1.703-0.066c0.145-0.259-0.167-0.774-0.021-1.033s-0.19-0.788-0.045-1.047s1.059-0.086,1.204-0.345
		s0.503-0.399,0.648-0.658s-0.048-0.708,0.097-0.967s-0.417-0.916-0.271-1.175c0.146-0.259,0.917-0.165,1.063-0.424
		s0.865-0.194,1.011-0.453s-0.976-1.232-0.83-1.49c0.146-0.259,1.398,0.106,1.543-0.152c0.146-0.258,0.213-0.561,0.359-0.82
		c0.146-0.258,0.574-0.358,0.72-0.616c0.146-0.259,0.295-0.516,0.441-0.774c0.146-0.258,0.062-0.647,0.208-0.906
		c0.146-0.259,0.057-0.651,0.203-0.909c0.146-0.259-0.352-0.881-0.206-1.14s1.398,0.107,1.544-0.152
		c0.146-0.259-0.995-1.246-0.849-1.504s0.562-0.366,0.708-0.625s0.46-0.423,0.606-0.682c0.146-0.259-0.079-0.728,0.068-0.987
		c0.146-0.259-0.014-0.691,0.133-0.95c0.146-0.259,0.523-0.389,0.669-0.647c0.146-0.259,0.662-0.31,0.808-0.569
		c0.146-0.259,0.728-0.273,0.874-0.532s-0.483-0.957-0.336-1.216c0.135-0.238,0.222-0.517,0.373-0.795
		c0.132-0.245,0.75-0.245,0.894-0.519c0.132-0.25,0.856-0.206,0.998-0.478c0.131-0.253,0.009-0.65,0.148-0.922
		c0.131-0.255,0.78-0.257,0.918-0.528c0.131-0.257-0.428-0.874-0.291-1.145c0.131-0.258-0.724-1.021-0.588-1.29
		c0.131-0.259,0.364-0.473,0.5-0.741c0.131-0.259,1.675,0.191,1.811-0.077c0.131-0.26-0.35-0.833-0.214-1.1
		c0.131-0.26,0.438-0.436,0.573-0.703c0.132-0.26-0.332-0.827-0.197-1.093c0.132-0.26,0.466-0.422,0.602-0.688
		c0.133-0.26,0.759-0.272,0.895-0.538c0.133-0.26-0.881-1.113-0.745-1.378c0.134-0.261,1.987,0.363,2.124,0.099
		c0.135-0.26,0.226-0.544,0.363-0.808c0.134-0.259-1.436-1.408-1.299-1.669c0.135-0.258,2.002,0.389,2.14,0.128
		c0.136-0.259-0.439-0.892-0.301-1.153c0.137-0.259-0.079-0.706,0.06-0.967c0.138-0.258,0.3-0.505,0.439-0.766
		c0.139-0.258,0.787-0.244,0.927-0.504c0.139-0.258-0.198-0.775-0.056-1.035c0.14-0.258,0.062-0.638,0.205-0.897
		c0.142-0.257-0.182-0.775-0.039-1.034c0.143-0.258,1.917,0.392,2.062,0.133c0.144-0.257-0.647-1.038-0.502-1.296
		c0.145-0.257,0.696-0.283,0.842-0.541c0.146-0.256,0.201-0.564,0.348-0.821c0.147-0.256-0.321-0.868-0.172-1.125
		c0.148-0.255,0.476-0.409,0.625-0.664c0.149-0.255,0.892-0.161,1.042-0.416c0.151-0.254-0.066-0.728,0.086-0.981
		s0.546-0.362,0.7-0.615c0.154-0.253,0.084-0.642,0.24-0.894c0.155-0.252-0.123-0.776,0.034-1.027c0.157-0.252,0.262-0.54,0.42-0.79
		c0.159-0.251,0.8-0.197,0.959-0.446c0.16-0.25-0.103-0.775,0.059-1.023c0.162-0.25,1.587,0.331,1.75,0.083
		c0.164-0.248-0.221-0.854-0.057-1.1c0.166-0.247-0.29-0.914-0.123-1.158c0.167-0.246,0.408-0.444,0.577-0.688
		c0.169-0.245,0.958-0.054,1.129-0.296c0.172-0.243-0.162-0.844,0.011-1.084c0.174-0.242,1.051,0.031,1.227-0.207
		c0.176-0.24-0.779-1.318-0.602-1.554c0.179-0.238,1.188,0.151,1.368-0.083c0.181-0.237-0.42-1.081-0.238-1.313
		c0.184-0.234,1.005,0.034,1.189-0.196c0.187-0.232,0.631-0.249,0.819-0.477c0.19-0.229-0.138-0.889,0.052-1.114
		c0.193-0.228,0.235-0.589,0.429-0.811c0.196-0.225,0.5-0.36,0.697-0.578c0.2-0.222,0.308-0.534,0.508-0.749
		c0.204-0.218,0.557-0.301,0.761-0.511c0.208-0.215,0.042-0.809,0.25-1.016c0.212-0.21,0.62-0.236,0.833-0.438
		c0.217-0.206,0.714-0.115,0.931-0.311c0.222-0.2,0.28-0.592,0.502-0.783c0.228-0.195,1.101,0.399,1.328,0.215
		c0.233-0.188,0.209-0.676,0.443-0.853c0.239-0.181-0.126-1.203,0.114-1.371c0.246-0.172,1.082,0.523,1.327,0.365
		c0.252-0.163,0.845,0.289,1.097,0.142c0.26-0.151-0.226-1.63,0.033-1.764c0.267-0.138,0.74,0.115,1.006-0.004
		c0.273-0.123,0.409-0.629,0.682-0.731c0.28-0.105,0.605-0.188,0.885-0.271c0.287-0.085,0.73,0.375,1.016,0.313
		c0.292-0.062,0.572-0.192,0.863-0.229c0.295-0.037,0.621,0.732,0.915,0.722c0.296-0.01,0.573-0.832,0.868-0.812
		s0.744-0.829,1.037-0.78c0.29,0.048,0.56,0.55,0.848,0.628c0.282,0.076,0.624,0.159,0.903,0.265
		c0.272,0.103,0.204,1.038,0.474,1.169c0.26,0.127,0.424,0.377,0.683,0.531c0.248,0.148,0.824-0.217,1.07-0.043
		c0.236,0.167-0.068,1.025,0.166,1.216c0.224,0.182,0.233,0.544,0.456,0.749c0.212,0.196,1.131-0.358,1.342-0.141
		c0.201,0.208-0.303,1.049-0.104,1.276c0.191,0.218,1.038-0.132,1.228,0.104c0.182,0.226,0.665,0.238,0.845,0.482
		c0.177,0.238,0.255,0.556,0.426,0.797c0.171,0.242,0.593,0.323,0.758,0.568c0.166,0.246-0.431,0.996-0.271,1.245
		c0.16,0.249,0.615,0.309,0.77,0.562s0.977,0.113,1.127,0.369c0.149,0.255-0.29,0.858-0.146,1.116
		c0.145,0.258-0.488,0.934-0.349,1.195c0.14,0.261,0.131,0.582,0.266,0.845c0.134,0.263,1.452-0.07,1.582,0.196
		c0.13,0.266-0.761,1.017-0.635,1.285c0.125,0.268,0.402,0.455,0.523,0.725s0.521,0.411,0.638,0.683
		c0.117,0.271,0.465,0.444,0.578,0.717c0.113,0.273,0.955,0.257,1.064,0.532c0.109,0.274,0.024,0.635,0.13,0.912
		c0.105,0.276-0.888,0.964-0.785,1.242c0.102,0.277,1.001,0.263,1.101,0.542c0.099,0.278-0.708,0.872-0.611,1.151
		c0.096,0.279,0.37,0.493,0.463,0.773c0.093,0.28,1.241,0.215,1.332,0.496s-0.144,0.67-0.055,0.953
		c0.088,0.282-0.399,0.742-0.312,1.025c0.086,0.283,0.378,0.502,0.462,0.786c0.084,0.283,0.105,0.584,0.188,0.869
		c0.083,0.284,0.275,0.535,0.356,0.82c0.081,0.284,0.468,0.482,0.547,0.767s0.763,0.404,0.841,0.689
		c0.078,0.285-0.089,0.64-0.012,0.926c0.078,0.285-0.863,0.845-0.787,1.131c0.076,0.285,0.095,0.585,0.171,0.871
		s0.657,0.438,0.732,0.724c0.075,0.285,0.323,0.527,0.398,0.813c0.075,0.286-0.78,0.816-0.705,1.103
		c0.075,0.286,0.005,0.61,0.08,0.897c0.075,0.287,0.743,0.418,0.818,0.705s1.379,0.25,1.455,0.537
		c0.076,0.287-1.247,0.942-1.171,1.229c0.076,0.286,0.53,0.473,0.607,0.759s-0.72,0.809-0.642,1.095
		c0.077,0.286,1.184,0.293,1.263,0.579s0.168,0.568,0.248,0.854c0.08,0.285,0.427,0.494,0.509,0.779
		c0.081,0.285,0.065,0.596,0.148,0.881c0.083,0.284,0.565,0.448,0.65,0.731c0.084,0.284-0.671,0.821-0.584,1.104
		c0.086,0.284-0.533,0.792-0.444,1.074s1.168,0.253,1.259,0.536c0.091,0.282-0.108,0.66-0.015,0.94
		c0.093,0.282,1.23,0.207,1.327,0.487c0.096,0.281-1.159,1.03-1.06,1.309c0.099,0.279,0.968,0.283,1.07,0.561
		c0.102,0.278,0.364,0.492,0.469,0.768c0.105,0.277,0.407,0.471,0.515,0.747s0.153,0.568,0.265,0.842
		c0.112,0.274-0.097,0.675,0.019,0.948s-0.83,1.01-0.71,1.28c0.12,0.271,0.508,0.427,0.629,0.696
		c0.122,0.27,0.123,0.597,0.246,0.866s1.387,0.016,1.511,0.283c0.124,0.269-0.316,0.799-0.191,1.066
		c0.125,0.268,0.271,0.527,0.397,0.793c0.127,0.268,0.274,0.525,0.402,0.791c0.128,0.267,1.072,0.138,1.201,0.404
		c0.129,0.266,0.31,0.502,0.44,0.767c0.13,0.266-0.924,1.115-0.792,1.379c0.131,0.265,0.562,0.38,0.695,0.644
		c0.133,0.265,0.82,0.247,0.954,0.51c0.134,0.264-0.332,0.833-0.197,1.095c0.135,0.263,0.37,0.475,0.506,0.736
		c0.136,0.263,0.012,0.662,0.148,0.923c0.138,0.261,1.066,0.105,1.205,0.366c0.138,0.261,0.082,0.623,0.221,0.883
		c0.14,0.261-0.854,1.132-0.713,1.392s1.159,0.043,1.3,0.302c0.142,0.259,1,0.122,1.143,0.379c0.143,0.259-0.283,0.832-0.139,1.089
		c0.144,0.258-0.48,0.947-0.336,1.205c0.145,0.258,1.218-0.009,1.364,0.248s0.563,0.356,0.71,0.612
		c0.147,0.256-1.102,1.318-0.954,1.573c0.148,0.256,1.505-0.191,1.654,0.064s-0.922,1.227-0.772,1.481s0.479,0.405,0.63,0.659
		s1.521-0.219,1.672,0.035c0.152,0.253-0.149,0.776,0.003,1.029c0.152,0.253,0.68,0.277,0.833,0.529
		c0.153,0.252,0.247,0.539,0.401,0.79c0.154,0.252,0.591,0.327,0.746,0.579c0.155,0.251-0.947,1.28-0.792,1.53
		s1.482-0.23,1.639,0.02c0.156,0.25-0.893,1.257-0.736,1.506s0.088,0.645,0.246,0.894s1.264-0.103,1.422,0.146
		c0.159,0.249,0.117,0.625,0.276,0.873s-0.478,1.011-0.317,1.259s1.336-0.163,1.497,0.084c0.161,0.248,0.212,0.564,0.374,0.811
		c0.161,0.247,0.369,0.463,0.53,0.709c0.162,0.246-0.417,0.981-0.255,1.228c0.163,0.246,1.415-0.23,1.578,0.015
		c0.163,0.245,0.528,0.354,0.692,0.599s-0.58,1.096-0.416,1.341s1.146-0.062,1.311,0.183c0.165,0.244,0.217,0.562,0.382,0.805
		c0.165,0.244-0.129,0.798,0.037,1.042c0.165,0.244-0.064,0.757,0.101,1c0.166,0.243,1.462-0.286,1.628-0.043
		c0.167,0.243-0.009,0.719,0.158,0.962s-0.512,1.066-0.345,1.309c0.167,0.243,1.19-0.105,1.357,0.137s-0.059,0.756,0.109,0.998
		c0.167,0.242-0.091,0.78,0.077,1.021s0.903,0.089,1.071,0.331c0.169,0.242,0.15,0.613,0.319,0.854
		c0.168,0.241-0.29,0.922-0.121,1.163s1.171-0.102,1.34,0.139c0.168,0.241,0.43,0.416,0.599,0.657c0.169,0.24-0.53,1.09-0.361,1.331
		c0.169,0.24,0.658,0.256,0.828,0.496c0.169,0.24,0.069,0.671,0.239,0.911c0.169,0.24,0.91,0.077,1.08,0.317
		s0.115,0.639,0.285,0.879c0.169,0.24,0.258,0.537,0.428,0.777s0.874,0.102,1.044,0.342c0.17,0.24-0.595,1.143-0.425,1.383
		c0.17,0.24,0.641,0.267,0.811,0.507s0.126,0.633,0.296,0.873s1.625-0.43,1.796-0.19c0.17,0.24-0.117,0.805,0.053,1.045
		c0.17,0.24,0.393,0.443,0.563,0.684c0.17,0.24,0.203,0.578,0.373,0.819c0.17,0.241,0.953,0.048,1.124,0.289
		c0.17,0.241-0.07,0.771,0.1,1.013c0.17,0.241,0.667,0.251,0.837,0.492c0.17,0.241,0.002,0.721,0.172,0.962
		c0.169,0.241,0.304,0.506,0.473,0.747s0.319,0.497,0.488,0.738c0.169,0.241-0.406,1.004-0.237,1.246
		c0.169,0.242,0.121,0.636,0.29,0.878c0.169,0.242,0.623,0.284,0.792,0.527c0.169,0.242,1.3-0.187,1.469,0.057
		c0.169,0.242-0.674,1.188-0.506,1.431c0.169,0.243,0.598,0.305,0.766,0.548c0.169,0.243,0.576,0.321,0.745,0.565
		c0.169,0.244,0.075,0.67,0.243,0.915c0.169,0.245-0.028,0.742,0.141,0.987c0.167,0.243,0.766,0.19,0.934,0.432
		c0.168,0.243,0.236,0.555,0.404,0.797c0.169,0.242,0.791,0.168,0.959,0.409c0.17,0.241,0.508,0.363,0.678,0.604
		c0.17,0.241,0.441,0.409,0.612,0.649s-0.588,1.142-0.417,1.382c0.171,0.24,0.717,0.214,0.889,0.454s0.763,0.177,0.936,0.417
		c0.173,0.239,0.58,0.307,0.753,0.546c0.173,0.239-0.666,1.213-0.492,1.452c0.174,0.239,0.006,0.729,0.181,0.967
		c0.174,0.237,1.801-0.591,1.976-0.353c0.175,0.237-0.059,0.774,0.116,1.012c0.176,0.237,0.228,0.565,0.404,0.802
		c0.176,0.236,0.322,0.495,0.499,0.731c0.176,0.236,0.488,0.371,0.665,0.607c0.177,0.236,0.578,0.302,0.756,0.538
		c0.177,0.236,0.309,0.505,0.487,0.74c0.178,0.234,0.488,0.369,0.666,0.604c0.179,0.235-0.181,0.878-0.001,1.113
		c0.179,0.234,0.884,0.065,1.064,0.299c0.179,0.234-0.091,0.813,0.088,1.047c0.18,0.233,0.212,0.581,0.393,0.814
		s0.121,0.653,0.301,0.886c0.181,0.233,0.244,0.559,0.425,0.791c0.181,0.233,0.056,0.706,0.238,0.938
		c0.182,0.232,0.32,0.499,0.503,0.731c0.182,0.232,0.823,0.106,1.005,0.338c0.182,0.231,0.446,0.4,0.628,0.631
		c0.183,0.232,1.061-0.085,1.244,0.146c0.183,0.231-0.56,1.195-0.377,1.426c0.183,0.231,0.458,0.391,0.642,0.622
		c0.184,0.23,0.714,0.185,0.898,0.415c0.184,0.23,0.104,0.672,0.289,0.902s1.118-0.141,1.302,0.09
		c0.185,0.229,0.183,0.608,0.368,0.838c0.185,0.23,0.349,0.476,0.534,0.706c0.185,0.229-0.677,1.304-0.491,1.534
		c0.185,0.229,1.297-0.291,1.483-0.062c0.186,0.229,0.464,0.383,0.65,0.612c0.186,0.229,0.802,0.106,0.988,0.335
		c0.186,0.229-0.123,0.86,0.063,1.089c0.187,0.229-0.096,0.839,0.091,1.067s0.969-0.03,1.155,0.198
		c0.187,0.228-0.711,1.345-0.524,1.573s1.509-0.476,1.697-0.248c0.187,0.228,0.193,0.604,0.381,0.832
		c0.187,0.228-0.464,1.145-0.276,1.373c0.188,0.228,1.691-0.63,1.878-0.402s0.314,0.504,0.502,0.732
		c0.188,0.228-0.94,1.541-0.753,1.769c0.188,0.227,1.591-0.55,1.779-0.323c0.188,0.227,0.324,0.497,0.511,0.724
		c0.188,0.228-0.837,1.459-0.649,1.687s0.549,0.311,0.737,0.538s0.435,0.405,0.623,0.632s1.457-0.442,1.645-0.215
		c0.188,0.227,0.453,0.391,0.641,0.618c0.188,0.227-0.181,0.917,0.007,1.144c0.188,0.227,0.044,0.73,0.232,0.957
		c0.188,0.227,0.403,0.431,0.592,0.658c0.188,0.227,0.44,0.401,0.628,0.628c0.188,0.227,0.613,0.257,0.801,0.484
		c0.188,0.227,0.667,0.213,0.855,0.439c0.188,0.227-0.3,1.016-0.112,1.242c0.188,0.227,0.979-0.046,1.167,0.181
		c0.188,0.227-0.195,0.928-0.007,1.155s0.28,0.534,0.468,0.761s0.784,0.117,0.972,0.344s0.81,0.096,0.997,0.323
		c0.188,0.227,0.403,0.433,0.591,0.66c0.188,0.228,0.105,0.678,0.292,0.905c0.188,0.228-0.199,0.929-0.011,1.157
		c0.188,0.228,0.833,0.077,1.021,0.305c0.188,0.228,0.505,0.348,0.692,0.576c0.188,0.228-0.606,1.261-0.419,1.489
		s1.211-0.23,1.397-0.002c0.187,0.228,0.865,0.054,1.052,0.282c0.187,0.228-0.457,1.136-0.27,1.364s0.071,0.702,0.258,0.931
		s1.228-0.241,1.415-0.012c0.186,0.229,0.742,0.158,0.928,0.387s0.12,0.662,0.306,0.892c0.186,0.229,0.222,0.581,0.407,0.81
		c0.186,0.229-0.514,1.174-0.329,1.403c0.185,0.229,0.224,0.577,0.409,0.806c0.185,0.229,0.543,0.318,0.728,0.548
		c0.185,0.23,1.712-0.617,1.896-0.387c0.185,0.23,0.236,0.567,0.421,0.798c0.184,0.23-0.188,0.906-0.004,1.137
		c0.184,0.23,1.068-0.096,1.251,0.135c0.184,0.231,0.022,0.738,0.205,0.97c0.184,0.231-0.404,1.074-0.222,1.305
		c0.184,0.231,1.506-0.436,1.689-0.204s-1.131,1.64-0.949,1.872c0.183,0.233,0.377,0.451,0.559,0.686
		c0.182,0.234,0.699,0.206,0.879,0.442c0.18,0.235,0.679,0.228,0.858,0.465c0.179,0.236-0.356,1.004-0.178,1.243
		c0.177,0.238,1.613-0.458,1.79-0.218c0.176,0.239,0.463,0.401,0.638,0.642c0.174,0.24-0.592,1.162-0.418,1.404
		c0.173,0.241,0.245,0.551,0.418,0.793c0.172,0.242,1.135-0.077,1.306,0.167s-0.724,1.229-0.554,1.473
		c0.169,0.244,1.402-0.249,1.571-0.004c0.168,0.245-0.072,0.77,0.095,1.016s0.246,0.55,0.412,0.796
		c0.166,0.246,0.933,0.091,1.098,0.338c0.164,0.247,0.568,0.338,0.732,0.585c0.163,0.248-0.281,0.898-0.119,1.146
		c0.162,0.248,0.582,0.331,0.743,0.58s-0.33,0.918-0.17,1.168c0.16,0.25,0.437,0.424,0.596,0.675
		c0.158,0.25,0.197,0.576,0.355,0.828c0.158,0.251-0.188,0.815-0.031,1.067c0.158,0.252,0.879,0.15,1.035,0.403
		c0.156,0.252,1.36-0.136,1.516,0.117c0.154,0.253-0.91,1.25-0.756,1.504c0.154,0.253,1.054,0.055,1.208,0.31
		c0.153,0.254,0.574,0.349,0.728,0.604c0.152,0.255-0.209,0.819-0.058,1.075c0.151,0.256,0.55,0.366,0.701,0.623
		c0.15,0.256-0.444,0.949-0.294,1.206c0.149,0.256,0.04,0.662,0.189,0.919c0.149,0.257,1.432-0.143,1.58,0.115
		c0.148,0.257,0.201,0.572,0.349,0.831c0.147,0.258-0.165,0.779-0.018,1.037c0.146,0.258,0.282,0.522,0.429,0.781
		c0.146,0.259,0.668,0.307,0.814,0.566c0.145,0.259,0.242,0.546,0.388,0.806c0.145,0.26,0.827,0.223,0.972,0.483
		c0.144,0.26-0.691,1.062-0.548,1.322c0.144,0.261,0.716,0.286,0.858,0.546c0.143,0.261-0.276,0.829-0.134,1.09
		c0.143,0.261,0.899,0.188,1.041,0.45s-0.636,1.02-0.494,1.281c0.141,0.262,1.218,0.02,1.358,0.282
		c0.141,0.263-0.812,1.109-0.673,1.372c0.141,0.263,1.357-0.049,1.497,0.213s-0.558,0.969-0.419,1.232
		c0.14,0.263,0.383,0.47,0.521,0.733c0.139,0.264,0.606,0.353,0.745,0.617s0.104,0.617,0.242,0.881s0.777,0.266,0.915,0.53
		s0.452,0.437,0.589,0.701c0.137,0.265,0.395,0.467,0.531,0.731c0.137,0.265-1.036,1.204-0.899,1.469
		c0.136,0.265,0.552,0.385,0.688,0.649s1.208,0.05,1.344,0.315c0.136,0.266,0.079,0.63,0.214,0.896
		c0.136,0.266,0.734,0.296,0.87,0.562c0.135,0.266,0.082,0.628,0.217,0.895s-0.255,0.797-0.12,1.063s0.878,0.225,1.012,0.491
		c0.135,0.266-0.055,0.696,0.08,0.962c0.134,0.267,0.71,0.311,0.844,0.577c0.134,0.266-0.869,1.104-0.735,1.37
		s1.279,0.023,1.413,0.29s0.184,0.575,0.317,0.841c0.133,0.266-0.474,0.903-0.341,1.169s-0.15,0.742-0.017,1.008
		c0.133,0.266,1.096,0.117,1.229,0.383c0.133,0.267-0.152,0.741-0.02,1.008c0.133,0.266,0.812,0.259,0.945,0.525
		s-0.388,0.858-0.256,1.124c0.134,0.267,1.044,0.146,1.177,0.413s0.445,0.442,0.578,0.709c0.134,0.266,0.111,0.611,0.244,0.876
		c0.133,0.266,0.49,0.42,0.623,0.686c0.133,0.266-0.592,0.959-0.46,1.225c0.133,0.266,0.641,0.344,0.773,0.609
		s-0.316,0.821-0.184,1.085c0.133,0.266,0.78,0.273,0.913,0.538c0.134,0.265-0.125,0.727,0.008,0.991s-0.037,0.681,0.096,0.944
		s1.494-0.094,1.627,0.168c0.133,0.264-0.899,1.114-0.767,1.378c0.132,0.264,1.654-0.164,1.786,0.101s-1.472,1.392-1.34,1.657
		c0.131,0.265,0.73,0.296,0.86,0.562c0.131,0.265,0.634,0.348,0.764,0.614c0.13,0.266,0.371,0.478,0.5,0.744
		s0.622,0.356,0.751,0.623c0.129,0.266-0.694,0.991-0.566,1.258c0.128,0.266,1.201,0.08,1.328,0.347s-0.591,0.935-0.464,1.202
		c0.126,0.267,1.288,0.044,1.414,0.312c0.126,0.267-0.155,0.727-0.03,0.995s-0.183,0.737-0.058,1.005
		c0.124,0.268,1.187,0.103,1.311,0.371c0.123,0.269-0.428,0.848-0.305,1.116c0.124,0.269-0.565,0.907-0.444,1.176
		c0.123,0.269,1.267,0.073,1.389,0.343c0.122,0.269-0.688,0.959-0.565,1.229c0.121,0.27,1.699-0.116,1.82,0.153
		c0.121,0.27-0.749,0.983-0.629,1.253c0.12,0.27-0.047,0.667,0.073,0.938c0.119,0.27,0.735,0.32,0.854,0.591
		s-0.137,0.706-0.019,0.977c0.118,0.271,1.039,0.192,1.156,0.464c0.118,0.271,0.194,0.561,0.312,0.833
		c0.117,0.271-0.492,0.856-0.375,1.127c0.116,0.271,0.183,0.564,0.299,0.836c0.116,0.271,0.821,0.292,0.938,0.565
		c0.115,0.272-0.83,0.992-0.716,1.264c0.115,0.272,0.146,0.579,0.261,0.852c0.114,0.272,0.39,0.476,0.503,0.75
		c0.113,0.273,1.754-0.088,1.867,0.186c0.113,0.273-1.24,1.151-1.128,1.425c0.112,0.273,1.062,0.205,1.174,0.478
		c0.111,0.274-0.091,0.676,0.021,0.951c0.111,0.274-0.002,0.638,0.109,0.913c0.11,0.274,1.333,0.101,1.443,0.376
		c0.11,0.274-0.146,0.697-0.036,0.973c0.109,0.275-0.696,0.913-0.587,1.188c0.108,0.275,0.415,0.471,0.523,0.747
		s0.946,0.264,1.055,0.54c0.107,0.275,0.37,0.491,0.478,0.767s-1.19,1.095-1.084,1.372s0.935,0.274,1.041,0.551
		c0.105,0.276,0.456,0.459,0.562,0.736c0.105,0.276,0.713,0.362,0.818,0.639c0.104,0.277,0.395,0.485,0.499,0.762
		c0.104,0.277-1.044,1.025-0.94,1.302c0.104,0.277,1.478,0.081,1.581,0.358c0.104,0.278-0.95,0.985-0.848,1.263
		s0.981,0.271,1.083,0.549c0.102,0.278-0.608,0.852-0.507,1.13s1.136,0.217,1.237,0.495c0.101,0.278,0.459,0.467,0.559,0.746
		c0.101,0.278-0.051,0.648,0.049,0.928c0.1,0.278-0.355,0.755-0.257,1.034c0.1,0.279,0.224,0.55,0.322,0.829
		c0.098,0.279,0.07,0.603,0.168,0.882s1.151,0.227,1.249,0.507c0.097,0.279-0.081,0.656,0.016,0.936
		c0.097,0.28-0.862,0.923-0.767,1.203s0.425,0.48,0.521,0.761c0.096,0.28,0.569,0.432,0.665,0.712
		c0.095,0.281-0.622,0.834-0.528,1.115c0.095,0.281,1.035,0.278,1.129,0.559s0.886,0.331,0.979,0.612
		c0.093,0.281-0.084,0.653,0.009,0.935c0.093,0.281,0.411,0.49,0.503,0.772c0.093,0.282,0.216,0.555,0.308,0.836
		s0.176,0.569,0.267,0.851c0.091,0.282-0.206,0.69-0.116,0.972c0.091,0.282-0.025,0.632,0.064,0.914
		c0.089,0.283,0.028,0.612,0.117,0.896c0.089,0.282,0.627,0.425,0.716,0.708c0.088,0.283-0.523,0.784-0.436,1.067
		s0.001,0.62,0.089,0.903c0.087,0.283,0.425,0.489,0.512,0.772c0.087,0.283,0.509,0.464,0.596,0.748
		c0.086,0.283,0.323,0.522,0.408,0.807c0.086,0.284,0.614,0.436,0.699,0.72s-0.646,0.812-0.562,1.096
		c0.085,0.284,0.854,0.368,0.937,0.652c0.084,0.284,0.164,0.572,0.247,0.856c0.083,0.284-1.405,1.025-1.323,1.31
		c0.083,0.285,1.318,0.236,1.4,0.521c0.082,0.285-0.131,0.655-0.049,0.939c0.081,0.285,0.396,0.504,0.478,0.79
		c0.08,0.286,0.64,0.437,0.72,0.722c0.08,0.285-0.74,0.823-0.66,1.109c0.079,0.286-0.445,0.738-0.366,1.024s1.676,0.152,1.755,0.438
		c0.078,0.286-0.73,0.815-0.653,1.102c0.078,0.286-0.452,0.736-0.375,1.022c0.077,0.287,1.263,0.275,1.339,0.562
		c0.076,0.286,0.287,0.537,0.363,0.823s-0.479,0.741-0.404,1.028c0.075,0.287,0.554,0.468,0.628,0.755
		c0.075,0.287-0.489,0.739-0.415,1.026c0.073,0.287,1.481,0.233,1.555,0.521c0.073,0.287,0.075,0.594,0.148,0.882
		c0.072,0.288-1.504,0.991-1.432,1.279s0.918,0.381,0.989,0.669c0.071,0.288,0.266,0.545,0.337,0.833
		c0.07,0.288-0.259,0.674-0.188,0.962s0.333,0.529,0.403,0.817c0.069,0.288,0.34,0.528,0.409,0.816s-0.058,0.624,0.011,0.913
		c0.068,0.289,0.222,0.557,0.289,0.846c0.068,0.289-0.257,0.668-0.19,0.958c0.067,0.289,1.032,0.371,1.099,0.66
		s-0.536,0.731-0.47,1.021c0.065,0.29,0.99,0.384,1.056,0.674s0.29,0.544,0.355,0.833c0.064,0.29-0.858,0.8-0.795,1.09
		s0.735,0.447,0.798,0.737c0.063,0.29-0.417,0.698-0.354,0.988s1.16,0.36,1.223,0.65c0.061,0.29-1.639,0.953-1.578,1.243
		c0.062,0.29,1.578,0.276,1.639,0.566s-0.914,0.795-0.854,1.086c0.059,0.291,0.53,0.497,0.59,0.787
		c0.06,0.291-0.042,0.614,0.017,0.904c0.059,0.291,0.457,0.514,0.515,0.805c0.059,0.291-0.829,0.769-0.772,1.06
		c0.058,0.291-0.126,0.628-0.069,0.919s1.033,0.403,1.089,0.694c0.056,0.292,0.06,0.593,0.115,0.884
		c0.055,0.292-0.371,0.672-0.316,0.964c0.054,0.292,0.133,0.577,0.187,0.869c0.054,0.292,0.86,0.445,0.914,0.737
		c0.053,0.292,0.635,0.49,0.688,0.781c0.052,0.292-1.33,0.84-1.278,1.132c0.052,0.292,0.229,0.561,0.28,0.853
		c0.051,0.292,1.367,0.365,1.417,0.657c0.051,0.292-0.53,0.693-0.481,0.986c0.051,0.292-0.578,0.699-0.529,0.992
		c0.05,0.292,0.667,0.489,0.716,0.781c0.048,0.293-0.534,0.687-0.486,0.979c0.047,0.293,1.253,0.399,1.3,0.692
		c0.047,0.293-1.155,0.783-1.109,1.076s1.16,0.419,1.205,0.712c0.046,0.293,0.535,0.52,0.58,0.813
		c0.044,0.293-1.299,0.795-1.256,1.088c0.044,0.293,0.128,0.58,0.171,0.873c0.043,0.294,0.888,0.471,0.93,0.765
		c0.043,0.294-0.398,0.657-0.357,0.95c0.042,0.294,1.054,0.452,1.095,0.746s-0.946,0.731-0.905,1.025
		c0.04,0.294,0.156,0.577,0.196,0.871c0.039,0.294,0.993,0.468,1.031,0.762c0.039,0.294-1.331,0.772-1.293,1.066
		c0.038,0.294,1.373,0.423,1.41,0.717c0.037,0.294,0.262,0.567,0.298,0.862s-0.806,0.696-0.771,0.991
		c0.036,0.294,0.849,0.497,0.883,0.792c0.035,0.295-0.323,0.636-0.29,0.931c0.034,0.295,0.297,0.564,0.33,0.858
		c0.033,0.295-0.237,0.624-0.205,0.919s-0.809,0.684-0.777,0.979c0.032,0.295,0.692,0.521,0.724,0.816
		c0.03,0.295-0.435,0.639-0.405,0.934c0.03,0.295,0.86,0.51,0.89,0.805c0.027,0.295-0.095,0.605-0.066,0.9
		c0.027,0.295-0.39,0.631-0.362,0.926c0.027,0.295,0.452,0.553,0.479,0.848c0.027,0.295,0.52,0.55,0.546,0.846
		c0.025,0.296-1.166,0.695-1.142,0.991c0.025,0.296,0.443,0.557,0.468,0.852c0.023,0.296,0.497,0.556,0.521,0.851
		c0.023,0.296-0.288,0.616-0.267,0.912c0.022,0.295-0.729,0.647-0.708,0.942c0.021,0.296,0.71,0.541,0.73,0.837
		s0.323,0.57,0.343,0.865c0.019,0.297,0.927,0.536,0.945,0.831c0.019,0.296-0.281,0.614-0.264,0.91s-0.152,0.603-0.136,0.898
		s0.287,0.579,0.303,0.874c0.017,0.296-0.016,0.595,0,0.89c0.015,0.296,0.119,0.589,0.134,0.884
		c0.014,0.296-0.705,0.626-0.692,0.921c0.014,0.296,0.537,0.569,0.549,0.864c0.013,0.295-1.218,0.638-1.207,0.933
		c0.011,0.294,1.407,0.539,1.417,0.833c0.01,0.282-0.072,0.569-0.055,0.875c0.016,0.284-0.737,0.627-0.715,0.93
		c0.021,0.285,0.856,0.512,0.884,0.813c0.025,0.286-0.85,0.665-0.818,0.966c0.028,0.286,0.623,0.521,0.656,0.821
		c0.032,0.287-0.191,0.609-0.155,0.908c0.034,0.288-0.681,0.679-0.643,0.978c0.037,0.287,1.783,0.357,1.823,0.654
		c0.038,0.289-0.455,0.649-0.413,0.947c0.04,0.288-0.522,0.668-0.479,0.965c0.042,0.288,1.077,0.431,1.122,0.727
		c0.044,0.289-1.194,0.778-1.148,1.074c0.045,0.288,0.262,0.556,0.31,0.851c0.046,0.288,0.831,0.46,0.879,0.754
		c0.048,0.289-0.78,0.727-0.73,1.021c0.048,0.288,0.715,0.476,0.765,0.77c0.049,0.288,0.12,0.575,0.171,0.869
		c0.05,0.288,0.149,0.57,0.201,0.863c0.051,0.288,0.692,0.472,0.745,0.765c0.052,0.288-1.337,0.84-1.284,1.133
		c0.053,0.288,0.639,0.482,0.693,0.775c0.053,0.288-0.362,0.666-0.308,0.959c0.054,0.287,0.051,0.59,0.105,0.882
		c0.055,0.288,1.087,0.394,1.143,0.686c0.055,0.288-0.064,0.61-0.009,0.902c0.056,0.288,0.508,0.501,0.564,0.793
		c0.056,0.286-0.151,0.625-0.095,0.915c0.057,0.286-0.158,0.626-0.102,0.916c0.057,0.286,0.551,0.485,0.608,0.775
		c0.058,0.286-0.508,0.698-0.449,0.987c0.057,0.287,0.446,0.507,0.505,0.796c0.058,0.287,0.628,0.472,0.687,0.761
		c0.058,0.287-1.069,0.813-1.01,1.103c0.058,0.287,1.223,0.349,1.282,0.638c0.059,0.287,0.402,0.515,0.463,0.804
		c0.059,0.287-1.606,0.932-1.547,1.22c0.06,0.287,1.54,0.28,1.6,0.569c0.061,0.286,0.097,0.578,0.157,0.867
		c0.061,0.287-0.702,0.748-0.641,1.037c0.06,0.286,0.654,0.462,0.715,0.751c0.061,0.287,0.607,0.471,0.668,0.76
		c0.062,0.287-0.887,0.79-0.825,1.078c0.062,0.287,0.764,0.438,0.824,0.726c0.062,0.287-0.614,0.734-0.553,1.023
		c0.062,0.287,1.465,0.285,1.527,0.574c0.062,0.287-0.317,0.67-0.255,0.958c0.062,0.287-0.142,0.632-0.079,0.92
		c0.062,0.287,0.02,0.599,0.082,0.888c0.062,0.287-0.731,0.762-0.669,1.05c0.062,0.287,0.46,0.503,0.522,0.791
		c0.063,0.288,1.491,0.275,1.555,0.564c0.063,0.287-1.396,0.91-1.333,1.198s0.865,0.413,0.929,0.702
		c0.063,0.287-0.003,0.604,0.062,0.892c0.063,0.287-0.795,0.779-0.73,1.068c0.063,0.287,1.802,0.203,1.866,0.492
		c0.064,0.287-0.416,0.695-0.352,0.984c0.063,0.287,0.054,0.592,0.118,0.881c0.064,0.287,0.146,0.571,0.211,0.859
		c0.063,0.288,0.521,0.487,0.587,0.776c0.063,0.287,0.463,0.5,0.527,0.789c0.064,0.287-1.435,0.926-1.369,1.214
		c0.064,0.288,0.184,0.564,0.249,0.853c0.064,0.288,1.448,0.277,1.513,0.566c0.065,0.287-0.085,0.623-0.02,0.912
		c0.065,0.287,0.368,0.521,0.434,0.81c0.065,0.286-1.182,0.871-1.116,1.158c0.064,0.287,0.06,0.592,0.125,0.879
		s1.625,0.233,1.69,0.521c0.065,0.286-0.471,0.71-0.405,0.998c0.065,0.287-1.067,0.848-1.002,1.135s1.249,0.318,1.314,0.606
		c0.066,0.287,0.115,0.579,0.181,0.867c0.065,0.287,0.404,0.511,0.471,0.799c0.065,0.287-1.033,0.841-0.967,1.129
		c0.065,0.287,0.5,0.491,0.565,0.778c0.066,0.288-0.002,0.605,0.064,0.894c0.065,0.287,0.071,0.59,0.138,0.877
		c0.065,0.288,0.698,0.445,0.765,0.733c0.065,0.288,0.439,0.505,0.506,0.793c0.065,0.288,0.51,0.487,0.576,0.775
		s-0.787,0.787-0.721,1.075s1.146,0.342,1.213,0.63c0.066,0.287-0.816,0.794-0.75,1.082s-0.386,0.697-0.318,0.985
		c0.066,0.288,1.238,0.32,1.305,0.608c0.066,0.287-0.419,0.702-0.353,0.991c0.066,0.287-0.088,0.626-0.021,0.913
		c0.066,0.288-0.066,0.622,0.001,0.91c0.066,0.288,0.352,0.524,0.418,0.812s-0.127,0.637-0.06,0.925
		c0.066,0.288,1.495,0.259,1.562,0.547c0.066,0.288-1.282,0.904-1.216,1.192c0.067,0.289,0.243,0.552,0.311,0.84
		c0.066,0.288,0.181,0.565,0.248,0.854c0.066,0.289,0.125,0.578,0.191,0.866c0.066,0.289,0.554,0.48,0.62,0.769
		c0.067,0.289-0.184,0.651-0.116,0.94c0.066,0.288,0.878,0.404,0.944,0.692c0.067,0.289-1.214,0.893-1.146,1.181
		c0.067,0.289,1.934,0.159,2.001,0.447c0.066,0.289-0.689,0.769-0.623,1.058c0.067,0.289-0.69,0.769-0.624,1.058
		c0.067,0.289,1.916,0.164,1.983,0.453s0.056,0.598,0.123,0.887c0.066,0.289-1.705,1.003-1.638,1.292
		c0.066,0.29,0.378,0.523,0.444,0.812c0.067,0.289-0.116,0.636-0.05,0.925c0.067,0.29,0.248,0.553,0.314,0.842
		c0.067,0.29,1.882,0.176,1.948,0.465c0.067,0.29-0.172,0.649-0.104,0.939c0.066,0.289,0.511,0.492,0.578,0.781
		c0.066,0.289-1.57,0.971-1.504,1.26s0.783,0.429,0.85,0.718c0.067,0.289,0.392,0.518,0.458,0.807
		c0.067,0.289-0.722,0.775-0.655,1.064s0.698,0.448,0.765,0.737s0.032,0.602,0.099,0.891s0.158,0.572,0.225,0.861
		c0.067,0.289-0.019,0.613,0.048,0.902c0.066,0.29-0.106,0.635-0.04,0.924c0.067,0.289,1.566,0.248,1.633,0.537
		s-0.311,0.681-0.244,0.97c0.066,0.29-1.103,0.862-1.036,1.151s0.526,0.487,0.593,0.776c0.066,0.29-0.096,0.631-0.03,0.92
		c0.066,0.29,0.333,0.534,0.399,0.823s1.405,0.286,1.472,0.575c0.066,0.29,0.186,0.568,0.251,0.857
		c0.066,0.29-0.58,0.741-0.515,1.03c0.066,0.29-0.626,0.752-0.56,1.041c0.065,0.29,1.61,0.244,1.676,0.533
		c0.065,0.29-0.676,0.761-0.61,1.05c0.065,0.291-0.616,0.75-0.551,1.038c0.065,0.29,1.236,0.33,1.302,0.619
		c0.065,0.29-0.216,0.657-0.15,0.946c0.065,0.29,0.186,0.567,0.251,0.856c0.065,0.29,0.131,0.58,0.196,0.869
		c0.064,0.29-0.324,0.682-0.259,0.971c0.065,0.29-0.126,0.637-0.061,0.926c0.064,0.29,0.47,0.504,0.534,0.793
		c0.065,0.29-0.119,0.635-0.054,0.924c0.064,0.29,0.916,0.404,0.98,0.693c0.064,0.29-0.508,0.722-0.443,1.011
		c0.064,0.29,1.009,0.385,1.072,0.674c0.064,0.291,0.515,0.493,0.579,0.782c0.064,0.29-0.312,0.679-0.249,0.968
		c0.064,0.29,0.438,0.512,0.502,0.801c0.064,0.29-0.119,0.635-0.056,0.924c0.064,0.29-0.395,0.695-0.331,0.984
		c0.064,0.29-0.326,0.68-0.264,0.969c0.064,0.291,1.453,0.292,1.516,0.581c0.063,0.291,0.07,0.593,0.133,0.881
		c0.063,0.291-1.27,0.884-1.207,1.173c0.062,0.29,0.003,0.606,0.065,0.896c0.062,0.29,1.275,0.332,1.338,0.621
		c0.062,0.291-0.851,0.792-0.788,1.08c0.062,0.291,1.456,0.293,1.519,0.582c0.062,0.291-1.67,0.966-1.608,1.255
		c0.062,0.291,1.015,0.391,1.076,0.68c0.062,0.29-0.159,0.639-0.099,0.928c0.062,0.291-0.242,0.658-0.182,0.946
		c0.062,0.291,0.504,0.5,0.564,0.789c0.061,0.291,0.695,0.462,0.756,0.751c0.061,0.291,0.155,0.573,0.215,0.862
		c0.061,0.291,0.427,0.519,0.486,0.808c0.06,0.291-0.582,0.725-0.522,1.013c0.06,0.292,0.508,0.502,0.567,0.791
		c0.059,0.291,0.01,0.604,0.068,0.893c0.059,0.291,0.343,0.535,0.401,0.823c0.059,0.292-0.91,0.788-0.853,1.076
		c0.059,0.294,1.598,0.291,1.655,0.581c0.059,0.294-1.331,0.873-1.273,1.163c0.058,0.294,1.27,0.357,1.326,0.648
		c0.058,0.293-0.424,0.69-0.367,0.98c0.057,0.294-0.685,0.737-0.629,1.027c0.056,0.294,0.376,0.535,0.431,0.824
		c0.056,0.294,0.327,0.545,0.382,0.834c0.055,0.294,1.216,0.377,1.271,0.667c0.055,0.293-0.934,0.779-0.881,1.068
		c0.055,0.294,0.476,0.518,0.528,0.807c0.054,0.294,0.022,0.601,0.074,0.89c0.052,0.294,0.51,0.514,0.561,0.802
		c0.052,0.294,0.582,0.503,0.632,0.791c0.051,0.294-1.148,0.8-1.1,1.088c0.05,0.294,1.274,0.389,1.322,0.677
		c0.049,0.294-0.997,0.766-0.95,1.054c0.049,0.294,0.343,0.543,0.389,0.831c0.047,0.294-0.713,0.709-0.669,0.996
		c0.046,0.295,1.733,0.334,1.776,0.621c0.045,0.296-0.589,0.689-0.547,0.977c0.043,0.298-0.736,0.707-0.696,0.996
		c0.042,0.297,0.292,0.558,0.33,0.846c0.04,0.297,0.175,0.573,0.211,0.86c0.038,0.296,0.442,0.541,0.477,0.826
		c0.035,0.299,0.601,0.532,0.632,0.818c0.033,0.299-1.214,0.723-1.186,1.009c0.029,0.3-0.109,0.599-0.084,0.884
		c0.025,0.301-0.018,0.585,0.003,0.868c0.021,0.303,0.675,0.542,0.689,0.824c0.016,0.304,0.691,0.54,0.699,0.82
		c0.025,0.014-0.594,0.229-1.194,0.237c-0.245,0.003-0.538,0.554-0.884,0.556c-0.267,0.002-0.567-1.041-0.892-1.04
		c-0.275,0.001-0.57,0.363-0.887,0.363c-0.279,0.001-0.574,0.219-0.886,0.219c-0.282,0-0.577-1.109-0.885-1.109
		c-0.284,0-0.579,0.646-0.885,0.646c-0.286,0-0.581,0.041-0.886,0.041c-0.287-0.001-0.583,0.86-0.887,0.86
		c-0.288-0.001-0.581-1.023-0.884-1.023c-0.289-0.001-0.585,0.077-0.887,0.076c-0.29-0.001-0.584-0.386-0.886-0.387
		c-0.29-0.001-0.587,0.058-0.888,0.057c-0.291-0.001-0.59,0.855-0.891,0.854c-0.292-0.001-0.589,0.161-0.89,0.159
		c-0.292-0.001-0.588,0.245-0.889,0.244c-0.292-0.001-0.587-0.263-0.888-0.264c-0.292-0.001-0.59,0.513-0.89,0.512
		c-0.293-0.001-0.583-1.774-0.883-1.775c-0.293-0.001-0.596,1.54-0.895,1.539c-0.293-0.002-0.589,0.163-0.888,0.161
		c-0.293-0.001-0.583-1.206-0.882-1.208c-0.293-0.001-0.595,1.197-0.894,1.196c-0.293-0.002-0.578-1.885-0.877-1.887
		c-0.293-0.002-0.595,0.779-0.894,0.777c-0.293-0.001-0.594,1.025-0.893,1.024c-0.293-0.002-0.583-1.182-0.881-1.183
		c-0.294-0.002-0.597,1.242-0.896,1.24c-0.293-0.002-0.589-0.009-0.887-0.011c-0.294-0.002-0.584-0.84-0.882-0.842
		c-0.293-0.002-0.587-0.333-0.885-0.335c-0.294-0.002-0.587-0.617-0.885-0.618c-0.293-0.002-0.593,0.616-0.891,0.615
		c-0.294-0.002-0.59,0.114-0.887,0.112c-0.294-0.001-0.595,0.718-0.893,0.716c-0.294-0.002-0.584-0.677-0.882-0.678
		c-0.294-0.002-0.589-0.254-0.886-0.256c-0.294-0.001-0.59,0.131-0.888,0.129c-0.294-0.002-0.597,1.211-0.894,1.209
		c-0.294-0.001-0.589-0.347-0.886-0.349c-0.295-0.002-0.588-0.204-0.886-0.206c-0.294-0.001-0.583-1.162-0.88-1.164
		c-0.294-0.002-0.601,1.562-0.898,1.56c-0.294-0.002-0.58-1.627-0.877-1.628c-0.294-0.002-0.599,1.466-0.896,1.464
		c-0.295-0.002-0.582-1.182-0.88-1.184c-0.294-0.002-0.591,0.06-0.888,0.058c-0.295-0.001-0.593,0.358-0.89,0.356
		c-0.294-0.002-0.585-0.623-0.882-0.625c-0.295-0.002-0.593,0.414-0.89,0.412c-0.295-0.002-0.592,0.126-0.889,0.124
		c-0.294-0.002-0.593,0.417-0.89,0.415c-0.295-0.002-0.585-0.872-0.882-0.874c-0.295-0.002-0.599,1.49-0.896,1.488
		c-0.293-0.001-0.581-1.136-0.876-1.138c-0.293-0.002-0.586-0.267-0.881-0.269c-0.294-0.002-0.591,0.525-0.886,0.523
		c-0.293-0.002-0.588-0.038-0.883-0.04c-0.293-0.002-0.586-0.349-0.881-0.351c-0.293-0.002-0.584-0.604-0.879-0.605
		c-0.293-0.002-0.599,1.73-0.894,1.729c-0.294-0.002-0.58-1.213-0.876-1.215c-0.293-0.002-0.584-0.458-0.88-0.46
		c-0.293-0.002-0.594,0.796-0.889,0.794c-0.294-0.002-0.582-0.902-0.877-0.904s-0.597,1.204-0.893,1.202
		c-0.293-0.002-0.589,0.197-0.884,0.195c-0.294-0.002-0.58-1.366-0.875-1.368c-0.294-0.002-0.598,1.397-0.893,1.396
		c-0.294-0.002-0.589-0.057-0.884-0.059c-0.294-0.002-0.583-0.871-0.878-0.873c-0.294-0.002-0.591,0.294-0.886,0.291
		c-0.294-0.002-0.584-0.748-0.88-0.75c-0.294-0.002-0.59,0.188-0.885,0.187c-0.294-0.002-0.588-0.02-0.884-0.021
		c-0.294-0.003-0.598,1.305-0.894,1.303c-0.294-0.002-0.579-1.539-0.875-1.541c-0.294-0.002-0.587,0.005-0.882,0.003
		c-0.295-0.003-0.596,0.611-0.891,0.609s-0.594,0.691-0.89,0.689c-0.294-0.002-0.59,0.023-0.886,0.021
		c-0.294-0.002-0.588,0.013-0.884,0.011c-0.294-0.002-0.587-0.277-0.883-0.279c-0.294-0.003-0.589-0.098-0.884-0.1
		s-0.587-0.437-0.883-0.438c-0.295-0.002-0.59,0.045-0.885,0.043s-0.595,0.78-0.891,0.778c-0.294-0.002-0.583-0.87-0.879-0.873
		c-0.294-0.002-0.597,0.933-0.892,0.931s-0.578-1.463-0.874-1.466c-0.294-0.002-0.592-0.01-0.887-0.012s-0.594,0.708-0.89,0.705
		c-0.295-0.002-0.596,0.747-0.892,0.745c-0.294-0.002-0.592,0.393-0.887,0.391s-0.584-0.935-0.88-0.937
		c-0.295-0.002-0.586-0.604-0.882-0.606c-0.295-0.002-0.594,0.573-0.89,0.571c-0.295-0.003-0.584-0.896-0.88-0.897
		c-0.295-0.002-0.601,1.54-0.896,1.537c-0.295-0.002-0.584-0.742-0.88-0.744c-0.295-0.002-0.587-0.448-0.883-0.45
		c-0.295-0.002-0.598,0.84-0.894,0.838c-0.295-0.003-0.585-0.615-0.881-0.617c-0.295-0.002-0.597,0.897-0.893,0.895
		c-0.295-0.002-0.593,0.2-0.889,0.198c-0.295-0.003-0.577-1.737-0.873-1.739c-0.295-0.002-0.595,0.666-0.891,0.663
		c-0.295-0.002-0.597,0.816-0.893,0.814c-0.296-0.003-0.59,0.106-0.887,0.104c-0.295-0.002-0.59-0.138-0.887-0.141
		c-0.295-0.002-0.582-1.005-0.878-1.007c-0.295-0.003-0.595,0.619-0.891,0.617s-0.593,0.335-0.889,0.333s-0.596,0.479-0.892,0.478
		c-0.296-0.003-0.586-0.465-0.883-0.467c-0.295-0.002-0.589-0.159-0.885-0.161s-0.586-0.779-0.883-0.782
		c-0.295-0.002-0.598,0.849-0.894,0.847c-0.295-0.003-0.592,0.312-0.888,0.311c-0.295-0.002-0.592,0.11-0.888,0.108
		c-0.295-0.002-0.579-1.646-0.874-1.649c-0.297-0.002-0.59-0.142-0.886-0.144c-0.296-0.003-0.603,1.542-0.899,1.54
		c-0.295-0.002-0.581-1.546-0.877-1.548c-0.295-0.002-0.602,1.479-0.898,1.477c-0.295-0.002-0.585-0.696-0.881-0.699
		c-0.295-0.002-0.59-0.211-0.886-0.213c-0.295-0.003-0.586-0.566-0.882-0.568c-0.295-0.003-0.6,1.074-0.896,1.072
		c-0.295-0.002-0.583-1.135-0.879-1.137c-0.295-0.002-0.604,1.644-0.899,1.641c-0.296-0.002-0.591-0.091-0.887-0.094
		c-0.295-0.002-0.586-0.659-0.882-0.661c-0.295-0.003-0.583-0.92-0.88-0.922c-0.295-0.003-0.604,1.724-0.9,1.722
		s-0.593,0.146-0.889,0.145c-0.295-0.002-0.581-1.635-0.877-1.637c-0.295-0.002-0.59,0.045-0.886,0.042
		c-0.296-0.002-0.589-0.298-0.885-0.301c-0.296-0.002-0.601,1.058-0.896,1.056c-0.296-0.003-0.594,0.224-0.89,0.222
		c-0.295-0.003-0.588-0.407-0.884-0.409c-0.295-0.003-0.586-0.867-0.882-0.869c-0.295-0.002-0.6,1.267-0.896,1.265
		c-0.295-0.002-0.59-0.274-0.886-0.276s-0.597,0.731-0.893,0.729s-0.584-1.16-0.88-1.163c-0.296-0.002-0.591-0.177-0.887-0.18
		c-0.296-0.002-0.597,0.608-0.893,0.605c-0.296-0.002-0.592,0.034-0.888,0.031c-0.296-0.002-0.589-0.422-0.885-0.424
		c-0.296-0.003-0.594,0.239-0.89,0.237c-0.296-0.003-0.591-0.116-0.887-0.118c-0.296-0.003-0.598,0.781-0.895,0.779
		c-0.295-0.003-0.582-1.23-0.877-1.232c-0.296-0.003-0.589-0.334-0.886-0.336c-0.296-0.003-0.601,1.122-0.897,1.12
		c-0.296-0.003-0.597,0.593-0.893,0.591c-0.295-0.003-0.591,0.013-0.886,0.011c-0.295-0.003-0.582-1.093-0.878-1.095
		c-0.295-0.002-0.586-0.606-0.882-0.608c-0.295-0.002-0.599,1.278-0.895,1.276c-0.295-0.002-0.592,0.151-0.887,0.149
		s-0.584-0.945-0.88-0.947s-0.595,0.642-0.891,0.64c-0.295-0.002-0.595,0.683-0.891,0.681c-0.295-0.002-0.582-1.368-0.878-1.37
		c-0.295-0.002-0.594,0.48-0.89,0.479c-0.295-0.002-0.592,0.225-0.888,0.223s-0.593,0.263-0.889,0.261
		c-0.295-0.002-0.591-0.078-0.886-0.08c-0.296-0.002-0.591-0.067-0.887-0.069c-0.295-0.002-0.587-0.62-0.883-0.622
		c-0.295-0.002-0.592,0.148-0.888,0.146s-0.589-0.293-0.885-0.295c-0.295-0.002-0.588-0.496-0.884-0.498
		c-0.295-0.002-0.593,0.357-0.889,0.355s-0.588-0.559-0.884-0.561c-0.295-0.002-0.602,1.651-0.898,1.649s-0.586-0.812-0.882-0.813
		c-0.295-0.002-0.598,0.981-0.895,0.979c-0.295-0.002-0.588-0.508-0.884-0.51c-0.296-0.003-0.587-0.561-0.883-0.562
		c-0.296-0.003-0.599,0.824-0.895,0.822c-0.296-0.003-0.586-0.624-0.882-0.626c-0.296-0.003-0.591-0.084-0.888-0.086
		c-0.296-0.003-0.599,0.879-0.895,0.877c-0.296-0.003-0.584-0.879-0.88-0.881c-0.296-0.003-0.589-0.38-0.885-0.383
		c-0.296-0.002-0.601,1.091-0.896,1.088c-0.296-0.002-0.583-1.205-0.878-1.208c-0.296-0.002-0.588-0.436-0.885-0.438
		c-0.296-0.002-0.601,1.066-0.897,1.063c-0.296-0.002-0.583-1.108-0.879-1.111c-0.296-0.002-0.604,1.461-0.899,1.459
		c-0.296-0.002-0.585-1.086-0.882-1.088c-0.296-0.002-0.592,0.088-0.889,0.086c-0.296-0.002-0.603,1.408-0.899,1.406
		c-0.296-0.003-0.586-0.648-0.883-0.65c-0.296-0.003-0.593,0.082-0.89,0.08c-0.296-0.003-0.584-1-0.88-1.002
		c-0.296-0.003-0.604,1.402-0.9,1.399c-0.296-0.002-0.583-1.089-0.879-1.092c-0.296-0.002-0.602,1.102-0.898,1.099
		c-0.296-0.002-0.583-1.107-0.879-1.11c-0.296-0.002-0.595,0.23-0.891,0.229s-0.594,0.146-0.89,0.144
		c-0.296-0.002-0.592-0.047-0.888-0.049s-0.585-0.858-0.882-0.86c-0.296-0.003-0.601,1.029-0.897,1.027
		c-0.296-0.003-0.599,0.745-0.896,0.743c-0.296-0.003-0.585-0.968-0.881-0.971c-0.296-0.002-0.595,0.347-0.892,0.344
		c-0.296-0.002-0.583-1.135-0.88-1.138c-0.296-0.002-0.604,1.514-0.9,1.511c-0.296-0.002-0.584-1.072-0.88-1.074
		c-0.296-0.002-0.589-0.571-0.885-0.573c-0.296-0.002-0.604,1.617-0.9,1.615c-0.296-0.003-0.591-0.169-0.887-0.171
		c-0.296-0.003-0.587-0.649-0.883-0.651c-0.296-0.003-0.59-0.335-0.886-0.338c-0.296-0.002-0.604,1.369-0.9,1.366
		c-0.296-0.002-0.592-0.066-0.888-0.069c-0.296-0.002-0.584-1.099-0.88-1.101c-0.296-0.002-0.595,0.377-0.892,0.375
		c-0.296-0.003-0.593-0.004-0.889-0.006c-0.296-0.003-0.599,0.72-0.895,0.718c-0.296-0.003-0.588-0.548-0.885-0.551
		c-0.296-0.002-0.585-0.938-0.881-0.941c-0.296-0.002-0.599,0.772-0.896,0.77c-0.296-0.002-0.592-0.129-0.888-0.131
		s-0.599,0.889-0.896,0.887s-0.583-1.332-0.88-1.334c-0.297-0.003-0.591-0.307-0.887-0.309c-0.297-0.003-0.602,1.002-0.898,1
		c-0.297-0.003-0.593-0.039-0.89-0.042c-0.296-0.002-0.583-1.169-0.88-1.172c-0.297-0.002-0.597,0.289-0.894,0.287
		s-0.598,0.623-0.895,0.621c-0.297-0.002-0.585-1.009-0.882-1.011c-0.297-0.003-0.607,1.74-0.904,1.738
		c-0.297-0.003-0.591-0.337-0.888-0.34c-0.297-0.002-0.591-0.356-0.888-0.359c-0.297-0.002-0.595,0.195-0.892,0.192
		c-0.297-0.002-0.59-0.542-0.887-0.544s-0.589-0.465-0.886-0.467c-0.297-0.003-0.595,0.164-0.892,0.162
		c-0.297-0.003-0.605,1.358-0.902,1.355c-0.297-0.002-0.589-0.606-0.886-0.609c-0.297-0.002-0.594-0.004-0.891-0.007
		c-0.297-0.002-0.596,0.332-0.893,0.33s-0.584-1.368-0.881-1.37c-0.297-0.003-0.6,0.701-0.896,0.699
		c-0.297-0.003-0.592-0.244-0.889-0.246c-0.297-0.003-0.594-0.018-0.891-0.021c-0.298-0.002-0.596,0.169-0.893,0.166
		c-0.297-0.002-0.597,0.367-0.894,0.365c-0.297-0.002-0.6,0.639-0.896,0.637c-0.298-0.003-0.593-0.177-0.891-0.179
		c-0.297-0.003-0.581-1.613-0.878-1.616c-0.297-0.002-0.608,1.689-0.905,1.687c-0.297-0.002-0.593,0.037-0.891,0.035
		c-0.297-0.002-0.587-1.069-0.884-1.071c-0.297-0.003-0.599,0.586-0.896,0.584c-0.297-0.003-0.594-0.049-0.891-0.051
		c-0.297-0.003-0.587-0.88-0.884-0.883c-0.297-0.002-0.605,1.28-0.903,1.277c-0.297-0.002-0.591-0.329-0.888-0.331
		s-0.596,0.013-0.893,0.011c-0.297-0.003-0.599,0.524-0.896,0.522c-0.297-0.003-0.579-1.931-0.876-1.934
		c-0.297-0.002-0.601,0.739-0.898,0.736c-0.297-0.002-0.599,0.565-0.896,0.563c-0.298-0.002-0.589-0.735-0.887-0.737
		c-0.298-0.003-0.601,0.615-0.897,0.613c-0.298-0.003-0.589-0.733-0.886-0.736c-0.297-0.002-0.593-0.177-0.891-0.18
		c-0.298-0.002-0.601,0.646-0.898,0.645s-0.6,0.508-0.897,0.506c-0.297-0.003-0.584-1.321-0.881-1.323
		c-0.298-0.003-0.606,1.364-0.904,1.362c-0.298-0.003-0.586-1.095-0.883-1.098c-0.298-0.002-0.593-0.155-0.89-0.158
		c-0.297-0.002-0.602,0.996-0.899,0.994c-0.297-0.002-0.586-1.079-0.883-1.081c-0.297-0.003-0.596,0.328-0.894,0.326
		c-0.297-0.003-0.597,0.245-0.894,0.242c-0.297-0.002-0.597,0.364-0.894,0.361c-0.297-0.002-0.599,0.819-0.896,0.817
		c-0.297-0.002-0.585-1.385-0.882-1.387c-0.297-0.002-0.589-0.581-0.886-0.583c-0.297-0.003-0.604,1.184-0.901,1.182
		c-0.297-0.003-0.584-1.146-0.882-1.149c-0.297-0.002-0.596,0.218-0.893,0.215c-0.297-0.002-0.596,0.023-0.893,0.021
		c-0.297-0.002-0.598,0.607-0.895,0.605c-0.297-0.003-0.598,0.324-0.895,0.322c-0.297-0.003-0.589-0.584-0.887-0.587
		c-0.297-0.002-0.591-0.422-0.888-0.425c-0.297-0.002-0.604,1.134-0.901,1.131c-0.297-0.002-0.594,0.007-0.891,0.005
		s-0.586-1.11-0.883-1.112c-0.298-0.003-0.596,0.162-0.893,0.16c-0.297-0.003-0.603,1.067-0.9,1.064
		c-0.297-0.002-0.585-1.219-0.882-1.222c-0.297-0.002-0.607,1.503-0.904,1.5c-0.297-0.002-0.585-1.317-0.882-1.319
		c-0.297-0.002-0.599,0.593-0.896,0.591c-0.297-0.003-0.592-0.304-0.889-0.306c-0.297-0.003-0.604,1.085-0.9,1.082
		c-0.298-0.002-0.582-1.591-0.879-1.594c-0.297-0.002-0.603,1.198-0.9,1.196s-0.596,0.196-0.893,0.194s-0.595-0.044-0.893-0.046
		c-0.297-0.003-0.583-1.426-0.88-1.428c-0.297-0.003-0.597,0.22-0.894,0.217c-0.297-0.002-0.605,1.27-0.902,1.267
		c-0.297-0.002-0.586-1.088-0.883-1.09c-0.297-0.002-0.6,0.774-0.897,0.772s-0.598,0.232-0.895,0.23
		c-0.297-0.003-0.597,0.275-0.894,0.273c-0.297-0.003-0.59-0.531-0.887-0.534c-0.297-0.002-0.585-1.097-0.882-1.1
		c-0.298-0.002-0.604,1.061-0.901,1.058c-0.297-0.002-0.596,0.188-0.893,0.186s-0.595,0.074-0.892,0.072
		c-0.297-0.002-0.591-0.613-0.888-0.615c-0.297-0.003-0.596,0.14-0.893,0.138c-0.297-0.003-0.595,0.015-0.892,0.012
		c-0.297-0.002-0.596,0.062-0.893,0.059c-0.298-0.002-0.599,0.48-0.896,0.478c-0.297-0.002-0.587-0.998-0.884-1
		c-0.297-0.002-0.602,1.132-0.899,1.13c-0.298-0.002-0.589-0.915-0.886-0.917c-0.297-0.003-0.589-0.671-0.886-0.673
		c-0.297-0.003-0.608,1.602-0.905,1.6c-0.298-0.003-0.581-1.703-0.878-1.706c-0.297-0.002-0.593-0.202-0.89-0.205
		c-0.297-0.002-0.608,1.619-0.905,1.616c-0.298-0.002-0.595,0.261-0.893,0.259s-0.583-1.914-0.879-1.916s-0.605,1.49-0.902,1.488
		c-0.298-0.003-0.582-1.519-0.879-1.521c-0.297-0.003-0.603,0.979-0.9,0.977c-0.297-0.003-0.59-0.514-0.887-0.516
		c-0.298-0.003-0.6,0.504-0.896,0.501c-0.297-0.002-0.59-0.518-0.887-0.521c-0.298-0.002-0.593-0.164-0.891-0.167
		c-0.297-0.002-0.607,1.438-0.904,1.436c-0.297-0.002-0.587-0.917-0.884-0.919c-0.298-0.002-0.598,0.372-0.895,0.37
		c-0.297-0.002-0.596,0.276-0.893,0.274c-0.297-0.002-0.596,0.018-0.893,0.016c-0.298-0.003-0.583-1.504-0.879-1.506
		c-0.297-0.003-0.599,0.42-0.896,0.418c-0.298-0.003-0.603,0.981-0.9,0.979c-0.297-0.003-0.595,0.071-0.892,0.068
		c-0.298-0.002-0.597,0.125-0.894,0.122c-0.297-0.002-0.595,0.013-0.892,0.01c-0.298-0.002-0.596,0.12-0.893,0.117
		c-0.297-0.002-0.595-0.005-0.892-0.008c-0.297-0.002-0.581-1.711-0.877-1.714c-0.298-0.002-0.605,1.319-0.902,1.317
		c-0.297-0.002-0.593-0.317-0.89-0.319c-0.298-0.002-0.598,0.455-0.895,0.453c-0.298-0.002-0.586-1.438-0.883-1.439
		c-0.297-0.002-0.6,0.747-0.896,0.745c-0.297-0.002-0.593-0.285-0.89-0.287c-0.298-0.002-0.593-0.223-0.89-0.225
		c-0.298-0.002-0.604,1.316-0.901,1.314c-0.297-0.002-0.595-0.058-0.892-0.06c-0.298-0.003-0.596,0.116-0.893,0.114
		c-0.297-0.003-0.584-1.255-0.881-1.257c-0.297-0.003-0.597,0.251-0.894,0.249c-0.298-0.003-0.596,0.094-0.893,0.092
		c-0.298-0.003-0.593-0.172-0.89-0.174c-0.298-0.003-0.591-0.414-0.888-0.416c-0.298-0.003-0.608,1.656-0.905,1.654
		c-0.298-0.003-0.581-1.725-0.877-1.727c-0.298-0.003-0.604,1.121-0.901,1.119c-0.297-0.003-0.594-0.13-0.891-0.132
		c-0.297-0.003-0.595,0.167-0.892,0.165c-0.297-0.002-0.585-1.408-0.882-1.41c-0.298-0.002-0.6,0.74-0.896,0.738
		c-0.298-0.002-0.595,0.087-0.892,0.085c-0.297-0.002-0.6,0.741-0.896,0.739c-0.297-0.002-0.587-1.132-0.884-1.134
		c-0.298-0.002-0.593-0.332-0.89-0.334c-0.297-0.002-0.605,1.633-0.902,1.631c-0.298-0.002-0.585-1.369-0.882-1.372
		c-0.297-0.002-0.592-0.359-0.888-0.362c-0.297-0.002-0.604,1.23-0.901,1.228c-0.298-0.002-0.594-0.012-0.891-0.015
		c-0.297-0.002-0.587-0.918-0.884-0.92c-0.297-0.003-0.596,0.182-0.893,0.18c-0.298-0.003-0.606,1.33-0.902,1.328
		c-0.298-0.003-0.592-0.204-0.888-0.206c-0.298-0.002-0.585-1.478-0.881-1.479c-0.298-0.002-0.597,0.344-0.894,0.342
		c-0.298-0.002-0.598,0.531-0.895,0.528c-0.298-0.002-0.6,0.633-0.896,0.63c-0.298-0.002-0.586-1.015-0.883-1.017
		c-0.297-0.003-0.601,0.928-0.897,0.926c-0.297-0.002-0.593-0.252-0.889-0.254c-0.298-0.002-0.596,0.182-0.893,0.18
		c-0.297-0.002-0.591-0.494-0.887-0.497c-0.298-0.002-0.59-0.64-0.886-0.642c-0.297-0.003-0.605,1.309-0.901,1.307
		c-0.297-0.003-0.59-0.406-0.887-0.408c-0.298-0.002-0.596,0.271-0.892,0.27c-0.298-0.002-0.591-0.584-0.887-0.587
		c-0.298-0.002-0.587-0.895-0.883-0.896c-0.298-0.003-0.607,1.762-0.903,1.76c-0.298-0.002-0.589-0.761-0.886-0.763
		c-0.297-0.002-0.593-0.263-0.889-0.266c-0.297-0.002-0.591-0.374-0.887-0.376c-0.297-0.003-0.604,1.269-0.9,1.267
		c-0.297-0.002-0.587-1.003-0.883-1.005c-0.297-0.002-0.593-0.104-0.89-0.106c-0.297-0.002-0.592-0.416-0.888-0.418
		c-0.298-0.002-0.6,0.756-0.896,0.754c-0.297-0.002-0.591-0.394-0.887-0.396c-0.297-0.002-0.6,0.76-0.896,0.758
		c-0.297-0.002-0.593-0.092-0.889-0.094c-0.298-0.002-0.599,0.472-0.895,0.469c-0.297-0.002-0.587-0.828-0.883-0.83
		c-0.298-0.002-0.594-0.1-0.89-0.102c-0.297-0.002-0.592-0.152-0.888-0.154c-0.297-0.003-0.593-0.278-0.888-0.28
		c-0.297-0.002-0.593-0.083-0.888-0.086c-0.297-0.002-0.6,0.799-0.896,0.797c-0.297-0.002-0.585-1.078-0.881-1.081
		c-0.298-0.002-0.602,1.025-0.897,1.023c-0.297-0.002-0.59-0.532-0.886-0.534c-0.297-0.002-0.598,0.595-0.893,0.593
		c-0.297-0.002-0.599,0.502-0.894,0.499c-0.297-0.002-0.59-0.35-0.885-0.352c-0.297-0.002-0.587-0.856-0.883-0.859
		c-0.297-0.002-0.602,1.145-0.897,1.143c-0.297-0.002-0.585-1.269-0.88-1.271c-0.297-0.002-0.603,1.358-0.898,1.356
		c-0.297-0.002-0.587-1.042-0.882-1.044c-0.297-0.002-0.594,0.109-0.889,0.106c-0.297-0.002-0.597,0.568-0.892,0.566
		c-0.297-0.002-0.587-0.945-0.882-0.947c-0.297-0.002-0.602,1.13-0.897,1.128c-0.299-0.003-0.588-1.144-0.885-1.146
		c-0.299-0.002-0.601,0.678-0.897,0.676c-0.299-0.002-0.591-0.898-0.888-0.9c-0.299-0.002-0.594-0.187-0.89-0.188
		c-0.299-0.003-0.597-0.105-0.894-0.107c-0.299-0.002-0.603,0.946-0.898,0.944c-0.299-0.002-0.597,0.072-0.893,0.07
		c-0.299-0.002-0.602,0.814-0.897,0.812c-0.299-0.002-0.587-1.388-0.883-1.39c-0.299-0.002-0.598,0.34-0.894,0.338
		c-0.299-0.002-0.601,0.669-0.896,0.667c-0.299-0.002-0.59-0.958-0.885-0.96c-0.299-0.002-0.596,0.06-0.892,0.058
		c-0.299-0.002-0.602,0.889-0.896,0.887c-0.299-0.002-0.592-0.446-0.887-0.448c-0.299-0.002-0.592-0.555-0.887-0.557
		c-0.298-0.002-0.594-0.463-0.888-0.465c-0.298-0.001-0.603,1.511-0.897,1.509c-0.298-0.002-0.594-0.132-0.888-0.134
		c-0.298-0.002-0.59-0.812-0.884-0.813c-0.299-0.001-0.592-0.284-0.886-0.286c-0.298-0.002-0.604,1.466-0.897,1.464
		c-0.299-0.002-0.588-0.842-0.881-0.844c-0.298-0.002-0.598,0.801-0.891,0.799c-0.298-0.001-0.589-0.937-0.881-0.938
		c-0.298-0.002-0.588-0.843-0.88-0.845c-0.298-0.002-0.602,1.481-0.894,1.48c-0.298-0.002-0.593,0.07-0.885,0.069
		c-0.298-0.002-0.594,0.317-0.885,0.316c-0.298-0.002-0.593,0.038-0.883,0.037c-0.298-0.002-0.584-1.559-0.875-1.561
		c-0.298-0.001-0.595,0.412-0.884,0.41c-0.299-0.001-0.593-0.24-0.882-0.241c-0.299-0.002-0.601,1.396-0.89,1.396
		c-0.3-0.002-0.594-0.13-0.883-0.132c-0.301-0.001-0.593-0.517-0.881-0.519c-0.301-0.001-0.595,0.018-0.883,0.016
		c-0.302-0.001-0.595-0.276-0.882-0.277c-0.303-0.001-0.592-1.038-0.878-1.039c-0.303-0.002-0.604,1.771-0.889,1.771
		c-0.306-0.001-0.6-0.812-0.883-0.812c-0.308-0.001-0.604,0.463-0.886,0.463c-0.31-0.001-0.602-1.443-0.88-1.444
		c-0.313,0-0.608,0.927-0.881,0.927c-0.321,0-0.612,0.999-0.875,0.999c-0.346,0.001-0.637-0.137-0.881-0.135
		C-30.733,607.819-31.255,606.967-31.225,606.978z"/>
</g>
<path fill="#FF6633" d="M176.15,84.073c-3.435,2.524-13.44,2.931-10.08-3.458c1.897-3.606,8.712-4.365,12.107-4.828
	c6.083-0.832,12.2,1.5,14,8.138c2.01,7.39-7.662,2.976-11.289,1.411c3.167-7.436-7.388-5.936-4.688-1.263H176.15z"/>
<path fill="#CC0066" d="M152.705,106.461c-0.335-4.786-3.279-9.067,2.188-12.516c8.256-5.209,12.3,4.1,13,9.1
	c0.342-4.298,1.081-7.838,4.944-7.613c7.522,0.4,5.399,5.5,5.6,11.425c-4.197-0.557-21.137-0.757-25.736-0.396H152.705z"/>
<path fill="#FF6633" d="M146.375,84.764c-2.446-0.527-9.957,4.332-8.806-2.198c0.689-3.91,6.7-6.006,9.979-6.242
	c4.859-0.348,11.1,1.1,13.8,5.57c4.509,7.609-5.91,3.723-9.339,2.268c3.149-6.889-9.711-5.493-5.459,0.561L146.375,84.764z"/>
<path fill="#FF9900" d="M178.484,108.366c-1.681-0.167-1.05,1.122-0.204,2.661c1.776,3.2,2.9,0.1,4.601,0.4
	c1.999,0.4,1.8,4.8,2.5,6.235c0.49,1.1,0.399,2.2,2,1.919c1.23-0.204,0.905-1.966,2.26-1.51c4.994,1.683-3.372,12.3,0.9,14.984
	c3.586,2.2,5.807-2.682,5.648-5.337c-0.211-3.568-2.898-6.483,0.899-8.444c1.331-0.687,2.58-0.669,3.412-2.324
	c0.701-1.394,1.025-3.878,0.771-4.794c-0.861-3.256-13.971-2.956-22.771-3.79H178.484z"/>
<path fill="none" stroke="#EEEEEE" stroke-width="3" d="M200.055,110.055c0,0-71.01-10.61-71.01,6.2"/>
<path d="M158.498,100.527c-0.809-1.969,3.855-1.555,2.6,0.792c-1.233,2.289-2.602-0.993-2.038-2.173"/>
<path d="M174.529,100.389c1.41-0.56,1.101,3.857-1.323,1.523c-2.284-2.2,1.667-2.381,1.323-1.662"/>
</svg>
